<?xml version="1.0" encoding="UTF-8"?>
<svg version="1.1" xmlns="http://www.w3.org/2000/svg" width="1200" height="1200">
<path d="M0 0 C396 0 792 0 1200 0 C1200 396 1200 792 1200 1200 C804 1200 408 1200 0 1200 C0 804 0 408 0 0 Z " fill="#FEFEFE" transform="translate(0,0)"/>
<path d="M0 0 C0.66 0 1.32 0 2 0 C2.23797806 0.50592178 2.47595612 1.01184357 2.72114563 1.53309631 C11.51409209 20.17635994 20.73878307 38.59812947 29.97723389 57.02313232 C31.99866562 61.05569952 34.01779628 65.08941847 36.03710938 69.12304688 C39.60466622 76.24871804 43.17418665 83.37340227 46.74528503 90.49729919 C48.72373938 94.4463708 50.69856607 98.39725444 52.67353821 102.34806824 C56.77636658 110.55507974 60.88512796 118.75911306 64.99480629 126.96269608 C74.41793155 145.77308287 83.83606293 164.58596732 93.25183105 183.40003777 C98.68574974 194.25751964 104.12119522 205.1142324 109.56005859 215.96923828 C114.32414338 225.47751753 119.08544423 234.98718462 123.84336376 244.49855053 C126.35741518 249.52404351 128.87287684 254.5488194 131.39169312 259.57192612 C133.7525068 264.28004082 136.10961374 268.98999194 138.46381569 273.70141602 C139.32997361 275.43317933 140.19751417 277.16425185 141.06650352 278.8945961 C142.24772193 281.24715674 143.42404743 283.6020988 144.59912109 285.95773315 C144.94774043 286.64914615 145.29635977 287.34055914 145.65554333 288.05292404 C148 292.77175468 148 292.77175468 148 295 C115.33 295 82.66 295 49 295 C45.37 287.41 41.74 279.82 38 272 C34.67098472 265.71088272 34.67098472 265.71088272 31.3125 259.4375 C28.54225312 254.20481145 26.02944671 248.85208028 23.5 243.5 C19.91227972 235.91195605 16.19966223 228.42862384 12.22290039 221.03735352 C8.31721351 213.77353913 4.65211517 206.39379174 1 199 C-0.95123345 200.95123345 -1.6893673 202.21957205 -2.8125 204.68359375 C-3.16062744 205.43664795 -3.50875488 206.18970215 -3.86743164 206.96557617 C-4.2411792 207.78131104 -4.61492676 208.5970459 -5 209.4375 C-8.18592972 216.28330478 -11.51334976 223.02272541 -15.0625 229.6875 C-19.17655204 237.41616481 -23.14760168 245.20218634 -27.03222656 253.04833984 C-28.67932903 256.36996879 -30.3404675 259.68456901 -32 263 C-32.66152348 264.32288409 -33.32298173 265.6458008 -33.984375 266.96875 C-38.65625 276.3125 -43.328125 285.65625 -48 295 C-80.67 295 -113.34 295 -147 295 C-148.65 291.37 -150.3 287.74 -152 284 C-153.57992755 280.92004336 -155.17487617 277.86075354 -156.8125 274.8125 C-161.00990331 266.91753324 -165.06514152 258.96436644 -169.03222656 250.95166016 C-170.67932903 247.6300312 -172.34046891 244.31543171 -174 241 C-174.66673174 239.66669921 -175.33339846 238.3333659 -176 237 C-176.33 236.34 -176.66 235.68 -177 235 C-178 233 -179 231 -180 229 C-180.33064453 228.33895264 -180.66128906 227.67790527 -181.00195312 226.99682617 C-181.6628921 225.67446319 -182.32305914 224.35171409 -182.98242188 223.02856445 C-184.73031471 219.52369321 -186.49436884 216.02814416 -188.28125 212.54296875 C-188.6525 211.81400391 -189.02375 211.08503906 -189.40625 210.33398438 C-190.12010586 208.93304226 -190.83865076 207.53447676 -191.5625 206.13867188 C-193.04066143 203.22705149 -194 201.31318891 -194 198 C-197.25092495 200.71242818 -198.817518 204.26601552 -200.625 208 C-200.97127441 208.70278076 -201.31754883 209.40556152 -201.67431641 210.12963867 C-203.92164036 214.71327458 -206.10045286 219.32788314 -208.26733398 223.94995117 C-212.09462448 232.11320666 -216.10962778 240.13623526 -220.34375 248.09619141 C-224.36919432 255.66570919 -228.18826591 263.31877827 -232 271 C-235.96 278.92 -239.92 286.84 -244 295 C-276.34 295 -308.68 295 -342 295 C-340.02425706 289.07277119 -338.14533559 283.88439774 -335.3125 278.4375 C-334.60009617 277.04044833 -333.88786138 275.64331044 -333.17578125 274.24609375 C-332.81436035 273.54210449 -332.45293945 272.83811523 -332.08056641 272.11279297 C-330.3627383 268.75398491 -328.68265495 265.37652483 -327 262 C-326.33352883 260.66656893 -325.66686179 259.33323575 -325 258 C-324.67 257.34 -324.34 256.68 -324 256 C-320.33333333 248.66666667 -316.66666667 241.33333333 -313 234 C-312.67 233.33991943 -312.34 232.67983887 -312 231.99975586 C-311.33359376 230.66710607 -310.66692727 229.33458638 -310 228.00219727 C-308.32718536 224.6594268 -306.65902312 221.31448271 -305 217.96484375 C-301.70121505 211.31657284 -298.33971291 204.71783522 -294.8125 198.1875 C-292.11387132 193.18550934 -289.63734754 188.13589241 -287.33984375 182.9375 C-284.71147976 177.17502268 -281.80702788 171.5446204 -278.95361328 165.89111328 C-277.62893361 163.26413715 -276.31430023 160.63218167 -275 158 C-270.6640625 149.328125 -266.328125 140.65625 -261.9921875 131.984375 C-261.663396 131.32671143 -261.33460449 130.66904785 -260.99584961 129.99145508 C-260.33025698 128.66043299 -259.66440277 127.32954167 -258.99829102 125.9987793 C-257.33777527 122.68057938 -255.68174226 119.36029287 -254.03515625 116.03515625 C-250.68365796 109.27975351 -247.25697143 102.58046425 -243.6875 95.9375 C-239.55395736 88.22432025 -235.77205498 80.36045354 -232.02294922 72.45458984 C-228.43084641 64.88051428 -224.7308702 57.36929921 -220.95166016 49.88720703 C-219.63009195 47.2664471 -218.31819619 44.64089417 -217.0065918 42.01513672 C-216.00543127 40.01087307 -215.00272147 38.00738932 -214 36.00390625 C-212.66117631 33.3269126 -211.32843333 30.64700772 -210 27.96484375 C-205.49586205 18.88632788 -200.81692988 9.91644466 -196 1 C-195.34 1 -194.68 1 -194 1 C-193.26201062 2.48289221 -193.26201062 2.48289221 -192.50911236 3.99574184 C-180.55271105 28.01940551 -168.58486242 52.03733889 -156.60489941 76.04926205 C-150.81181327 87.6612463 -145.02249908 99.27508276 -139.24194336 110.89331055 C-134.20523632 121.01646747 -129.16157356 131.13612208 -124.10942918 141.25158411 C-121.43312599 146.61072457 -118.76040513 151.97158624 -116.09599876 157.33665276 C-113.59055007 162.38136492 -111.07586189 167.42135825 -108.55386162 172.45781517 C-107.62761143 174.31169657 -106.70481462 176.16730781 -105.78565598 178.02471542 C-104.53467001 180.55139554 -103.2716515 183.0716803 -102.0052948 185.59068298 C-101.64050229 186.33483221 -101.27570978 187.07898145 -100.89986295 187.84568065 C-98.95378035 191.98958461 -98.95378035 191.98958461 -95 194 C-94.91621094 193.35289062 -94.83242188 192.70578125 -94.74609375 192.0390625 C-93.7228707 187.87116965 -91.92524986 184.2289246 -90.0625 180.375 C-89.66426025 179.54250732 -89.26602051 178.71001465 -88.85571289 177.85229492 C-85.2224735 170.32483399 -81.33587109 162.94028117 -77.41015625 155.5625 C-74.14672855 149.41652898 -71.05507947 143.18739149 -67.96777344 136.95166016 C-66.32067058 133.63003043 -64.65937086 130.31551259 -63 127 C-62.67201416 126.34338379 -62.34402832 125.68676758 -62.00610352 125.01025391 C-60.30850449 121.61172151 -58.60578429 118.21589857 -56.89453125 114.82421875 C-53.4934542 108.07277969 -50.17257507 101.31280354 -47.09375 94.40625 C-46.03322494 92.07309487 -44.90928082 89.78543933 -43.75 87.5 C-41.97053722 84.14731391 -41.97053722 84.14731391 -41 81 C-40.34 81 -39.68 81 -39 81 C-38.9175 80.34 -38.835 79.68 -38.75 79 C-37.74766173 74.99064694 -35.91228693 71.64609374 -34 68 C-30.81096251 61.74302772 -27.78732729 55.44666759 -25 49 C-24.34 49 -23.68 49 -23 49 C-22.9175 48.34 -22.835 47.68 -22.75 47 C-21.74754699 42.99018796 -19.91083291 39.64736687 -18 36 C-17.24677362 34.50161753 -16.49697021 33.00151107 -15.75 31.5 C-10.5 21 -5.25 10.5 0 0 Z " fill="#4D5C78" transform="translate(698,305)"/>
<path d="M0 0 C0.66 0 1.32 0 2 0 C14.52411983 24.97823793 27.04141503 49.95988525 39.55053711 74.9456377 C45.35856244 86.54620265 51.16883747 98.14563059 56.984375 109.74243164 C62.0516759 119.84718332 67.11479087 129.95401915 72.1728363 140.06340712 C74.85253702 145.41888888 77.53435869 150.77328495 80.22119141 156.12519264 C82.74778577 161.15808562 85.26879229 166.19373682 87.78546143 171.23159981 C88.71218742 173.0842235 89.64098513 174.93581249 90.57196045 176.78630447 C91.8386622 179.30487262 93.09798886 181.82699199 94.35546875 184.35017395 C94.72899979 185.0884975 95.10253082 185.82682105 95.48738098 186.58751804 C98 191.65763637 98 191.65763637 98 195 C65.66 195 33.32 195 0 195 C-0.33 196.65 -0.66 198.3 -1 200 C-2.11576305 202.41938417 -3.2680211 204.76688331 -4.5 207.125 C-7.57836304 213.13583541 -10.5219802 219.19167084 -13.375 225.3125 C-16.83050076 232.6862851 -20.51986796 239.90746803 -24.34375 247.09619141 C-28.36919432 254.66570919 -32.18826591 262.31877827 -36 270 C-39.96 277.92 -43.92 285.84 -48 294 C-80.34 294 -112.68 294 -146 294 C-144.02425706 288.07277119 -142.14533559 282.88439774 -139.3125 277.4375 C-138.60009617 276.04044833 -137.88786138 274.64331044 -137.17578125 273.24609375 C-136.81436035 272.54210449 -136.45293945 271.83811523 -136.08056641 271.11279297 C-134.3627383 267.75398491 -132.68265495 264.37652483 -131 261 C-130.33352883 259.66656893 -129.66686179 258.33323575 -129 257 C-128.67 256.34 -128.34 255.68 -128 255 C-124.33333333 247.66666667 -120.66666667 240.33333333 -117 233 C-116.67 232.33991943 -116.34 231.67983887 -116 230.99975586 C-115.33359376 229.66710607 -114.66692727 228.33458638 -114 227.00219727 C-112.32718536 223.6594268 -110.65902312 220.31448271 -109 216.96484375 C-105.70121505 210.31657284 -102.33971291 203.71783522 -98.8125 197.1875 C-96.11387132 192.18550934 -93.63734754 187.13589241 -91.33984375 181.9375 C-88.71147976 176.17502268 -85.80702788 170.5446204 -82.95361328 164.89111328 C-81.62893361 162.26413715 -80.31430023 159.63218167 -79 157 C-74.6640625 148.328125 -70.328125 139.65625 -65.9921875 130.984375 C-65.663396 130.32671143 -65.33460449 129.66904785 -64.99584961 128.99145508 C-64.33025698 127.66043299 -63.66440277 126.32954167 -62.99829102 124.9987793 C-61.33777527 121.68057938 -59.68174226 118.36029287 -58.03515625 115.03515625 C-54.68365796 108.27975351 -51.25697143 101.58046425 -47.6875 94.9375 C-43.55395736 87.22432025 -39.77205498 79.36045354 -36.02294922 71.45458984 C-32.43084641 63.88051428 -28.7308702 56.36929921 -24.95166016 48.88720703 C-23.63009195 46.2664471 -22.31819619 43.64089417 -21.0065918 41.01513672 C-20.00543127 39.01087307 -19.00272147 37.00738932 -18 35.00390625 C-16.66117631 32.3269126 -15.32843333 29.64700772 -14 26.96484375 C-9.49586205 17.88632788 -4.81692988 8.91644466 0 0 Z " fill="#4D5C79" transform="translate(502,306)"/>
<path d="M0 0 C0.495 0.99 0.495 0.99 1 2 C2.6746357 2.0154612 2.6746357 2.0154612 4.38310242 2.03123474 C14.90364254 2.12898525 25.42412374 2.23172096 35.94456768 2.33933926 C41.35324272 2.39450672 46.76192323 2.44791685 52.1706543 2.49731445 C57.390228 2.54504909 62.60973695 2.59739519 67.82923317 2.65294075 C69.82071126 2.67332308 71.81220709 2.6920429 73.80371666 2.70907402 C76.59276104 2.73320934 79.38168387 2.76325136 82.1706543 2.79467773 C83.40603943 2.80331093 83.40603943 2.80331093 84.66638184 2.81211853 C88.57091135 2.86213603 92.18684368 3.04646453 96 4 C95.49560876 9.74088933 93.16480521 13.92617159 90.4375 18.875 C89.52078192 20.57609421 88.60543696 22.27792905 87.69140625 23.98046875 C87.23523926 24.82657715 86.77907227 25.67268555 86.30908203 26.54443359 C84.434305 30.0611265 82.64499775 33.61717953 80.875 37.1875 C80.55329834 37.83509277 80.23159668 38.48268555 79.90014648 39.14990234 C79.25542166 40.44908369 78.61129297 41.74856106 77.96777344 43.04833984 C76.32067097 46.3699688 74.65953109 49.68456829 73 53 C72.33326826 54.33330079 71.66660154 55.6666341 71 57 C63.66666667 71.66666667 56.33333333 86.33333333 49 101 C16.33 101 -16.34 101 -50 101 C-51.65 97.37 -53.3 93.74 -55 90 C-56.57992755 86.92004336 -58.17487617 83.86075354 -59.8125 80.8125 C-64.00990331 72.91753324 -68.06514152 64.96436644 -72.03222656 56.95166016 C-73.67932903 53.6300312 -75.34046891 50.31543171 -77 47 C-77.66673174 45.66669921 -78.33339846 44.3333659 -79 43 C-79.33 42.34 -79.66 41.68 -80 41 C-81 39 -82 37 -83 35 C-83.33064453 34.33895264 -83.66128906 33.67790527 -84.00195312 32.99682617 C-84.6628921 31.67446319 -85.32305914 30.35171409 -85.98242188 29.02856445 C-87.73031471 25.52369321 -89.49436884 22.02814416 -91.28125 18.54296875 C-91.6525 17.81400391 -92.02375 17.08503906 -92.40625 16.33398438 C-93.12010586 14.93304226 -93.83865076 13.53447676 -94.5625 12.13867188 C-96.04066143 9.22705149 -97 7.31318891 -97 4 C-97.66 4 -98.32 4 -99 4 C-99 3.34 -99 2.68 -99 2 C-97.77446915 1.98969254 -96.54893829 1.97938507 -95.28627014 1.96876526 C-83.76378827 1.87121208 -72.24136258 1.76849566 -60.71897221 1.66066074 C-54.79451973 1.60538308 -48.87006237 1.55195548 -42.94555664 1.50268555 C-37.23323041 1.45511326 -31.52096633 1.40277332 -25.80871391 1.34705925 C-23.62413508 1.32660325 -21.43953919 1.30789567 -19.2549305 1.29092598 C-16.2064303 1.26695355 -13.15804878 1.23688958 -10.10961914 1.20532227 C-9.19684204 1.1995668 -8.28406494 1.19381134 -7.34362793 1.18788147 C-3.35261476 1.53861061 -3.35261476 1.53861061 0 0 Z " fill="#4D5C78" transform="translate(601,499)"/>
<path d="M0 0 C0.79642914 -0.00137466 1.59285828 -0.00274933 2.41342163 -0.00416565 C3.27800995 -0.00057037 4.14259827 0.0030249 5.03338623 0.00672913 C6.40951584 0.00651009 6.40951584 0.00651009 7.81344604 0.00628662 C10.84348928 0.00698286 13.87347093 0.01476177 16.90350342 0.02259827 C19.00528937 0.02446347 21.10707576 0.02588689 23.2088623 0.02688599 C28.739209 0.03070308 34.26952941 0.0405265 39.79986572 0.05158997 C45.443783 0.06182143 51.08770453 0.06638733 56.73162842 0.07142639 C67.80455663 0.08214947 78.87746534 0.09921623 89.95037842 0.12025452 C87.81172417 7.78802318 87.81172417 7.78802318 85.84881592 11.39759827 C85.24396362 12.52500427 85.24396362 12.52500427 84.62689209 13.67518616 C84.19739258 14.46143372 83.76789307 15.24768127 83.32537842 16.05775452 C82.41133654 17.76279733 81.49859233 19.4685364 80.58709717 21.17494202 C79.91106445 22.43709534 79.91106445 22.43709534 79.22137451 23.7247467 C77.47387089 27.0183513 75.79476123 30.34283692 74.13787842 33.68275452 C73.67454102 34.61559265 73.67454102 34.61559265 73.20184326 35.567276 C72.51913525 36.94296464 71.83687052 38.31887333 71.15496826 39.69496155 C68.59831048 44.84247642 66.02204106 49.98022482 63.45037842 55.12025452 C62.3227098 57.37543063 61.19510431 59.6306383 60.06756592 61.88587952 C54.02850342 73.96400452 47.98944092 86.04212952 41.95037842 98.12025452 C9.61037842 98.12025452 -22.72962158 98.12025452 -56.04962158 98.12025452 C-54.07387865 92.19302571 -52.19495717 87.00465225 -49.36212158 81.55775452 C-48.64971775 80.16070284 -47.93748296 78.76356496 -47.22540283 77.36634827 C-46.86398193 76.66235901 -46.50256104 75.95836975 -46.13018799 75.23304749 C-44.41235988 71.87423943 -42.73227653 68.49677934 -41.04962158 65.12025452 C-40.38315042 63.78682345 -39.71648337 62.45349027 -39.04962158 61.12025452 C-38.71962158 60.46025452 -38.38962158 59.80025452 -38.04962158 59.12025452 C-34.38295492 51.78692118 -30.71628825 44.45358785 -27.04962158 37.12025452 C-26.71937988 36.45960999 -26.38913818 35.79896545 -26.04888916 35.11830139 C-25.38518514 33.79121766 -24.72096368 32.46439259 -24.05621338 31.13783264 C-22.33978313 27.71086909 -20.63383494 24.27924411 -18.94415283 20.83900452 C-9.49527541 1.64404594 -9.49527541 1.64404594 -6.16209793 0.43636417 C-4.07151353 0.12353041 -2.11318596 -0.00282511 0 0 Z " fill="#223357" transform="translate(412.04962158203125,501.87974548339844)"/>
<path d="M0 0 C2.625 2.25 2.625 2.25 4 4 C4.33 1.69 4.66 -0.62 5 -3 C12.59 -3 20.18 -3 28 -3 C28.06800261 6.34530229 28.12294628 15.69043798 28.15543652 25.03593254 C28.17103675 29.37626271 28.1921708 33.7164136 28.22631836 38.05664062 C28.25911455 42.25175849 28.27689536 46.44670481 28.28463173 50.64194107 C28.29013912 52.23578717 28.30089293 53.82962477 28.31719017 55.42339706 C28.44006029 67.94694043 27.76387782 78.36420576 19 88 C11.33472496 95.46355727 0.75943091 96.39037592 -9.484375 96.2734375 C-18.3814461 95.58144308 -26.09887176 93.04486527 -32.54296875 86.75 C-34.29907543 84.64078876 -35.35209921 82.67259076 -36 80 C-36.66 80 -37.32 80 -38 80 C-39.43668294 76.1389146 -40.11185208 73.103573 -40 69 C-36.417094 68.85466245 -32.83494583 68.76592069 -29.25 68.6875 C-28.23421875 68.64560547 -27.2184375 68.60371094 -26.171875 68.56054688 C-18.59267363 68.43588896 -18.59267363 68.43588896 -15.40625 71.46875 C-14.9421875 72.3040625 -14.478125 73.139375 -14 74 C-12.22915167 74.9442592 -12.22915167 74.9442592 -10 75 C-8.700625 75.12375 -7.40125 75.2475 -6.0625 75.375 C-2.53984245 75.34213939 -2.03798639 75.02990418 0.9375 72.6875 C3.818801 68.93307749 4.18321383 65.91811776 4.5625 61.3125 C4.64628906 60.31863281 4.73007812 59.32476563 4.81640625 58.30078125 C4.90728516 57.16189453 4.90728516 57.16189453 5 56 C4.50371094 56.40992188 4.00742187 56.81984375 3.49609375 57.2421875 C-3.24889728 62.59210448 -9.26948891 64.77083207 -18 64 C-24.4973278 63.21474791 -29.38659966 60.65152762 -34 56 C-42.50886871 44.40384265 -43.13159252 32.94687776 -42 19 C-40.303587 10.72998664 -35.59079946 4.88825174 -29.125 -0.3125 C-19.3112414 -5.61192964 -9.7713678 -5.11011461 0 0 Z " fill="#030303" transform="translate(874,706)"/>
<path d="M0 0 C0.495 0.99 0.495 0.99 1 2 C1.66 2 2.32 2 3 2 C3.33 1.34 3.66 0.68 4 0 C10.52404264 13.00140984 17.04347753 26.00512097 23.55757141 39.01151848 C26.58210992 45.05027331 29.60814673 51.08826859 32.63769531 57.12451172 C35.55905752 62.94520865 38.47626545 68.76797596 41.39089966 74.59204483 C42.50592397 76.81838603 43.62236073 79.04402039 44.74020386 81.2689476 C46.30055266 84.37521652 47.855949 87.48391645 49.41015625 90.59326172 C49.87769318 91.52114502 50.3452301 92.44902832 50.82693481 93.4050293 C51.24764252 94.24919403 51.66835022 95.09335876 52.10180664 95.96310425 C52.47052383 96.69869505 52.83924103 97.43428585 53.21913147 98.19216728 C54 100 54 100 54 102 C21.33 102 -11.34 102 -45 102 C-45 101.34 -45 100.68 -45 100 C-44.34 100 -43.68 100 -43 100 C-42.67 98.824375 -42.34 97.64875 -42 96.4375 C-40.30646605 91.34099641 -37.82804855 86.76251443 -35.25585938 82.07397461 C-32.64896711 77.2944757 -30.27797571 72.44395518 -28 67.5 C-25.19787039 61.43408462 -22.19555455 55.53090093 -19 49.6640625 C-16.49112334 45.01872057 -14.2144062 40.2919274 -12 35.5 C-8.8499795 28.68555911 -5.44877867 22.05777734 -1.859375 15.46484375 C0.17001934 11.68317825 2.08065452 7.83869095 4 4 C-27.35 4 -58.7 4 -91 4 C-88.40508975 1.40508975 -86.63754653 1.76408839 -83.10310364 1.75115967 C-82.27807846 1.75835022 -81.45305328 1.76554077 -80.60302734 1.77294922 C-79.73466751 1.77265717 -78.86630768 1.77236511 -77.97163391 1.77206421 C-75.09296782 1.77346083 -72.21455854 1.78903758 -69.3359375 1.8046875 C-67.3433954 1.80841645 -65.35085147 1.81126398 -63.35830688 1.81326294 C-58.10737061 1.82090868 -52.85654452 1.84056523 -47.60565186 1.8626709 C-42.25013724 1.88310909 -36.89460486 1.89226031 -31.5390625 1.90234375 C-21.02599319 1.92381025 -10.51300575 1.95795751 0 2 C0 1.34 0 0.68 0 0 Z " fill="#4D5C79" transform="translate(792,498)"/>
<path d="M0 0 C0.66 0 1.32 0 2 0 C2.23601425 0.50264877 2.4720285 1.00529755 2.7151947 1.5231781 C8.92199544 14.70276867 15.34405207 27.76604934 21.87890625 40.78515625 C22.26978802 41.56423717 22.66066978 42.3433181 23.06339645 43.14600754 C26.72828128 50.44945347 30.39839566 57.7502652 34.07250977 65.04907227 C36.105082 69.08741801 38.13373749 73.12771153 40.16001701 77.16921806 C40.92437349 78.69175723 41.69024345 80.21353764 42.45770454 81.73451424 C43.52308105 83.84600915 44.58347433 85.9599385 45.64282227 88.07446289 C45.95497681 88.69001038 46.26713135 89.30555786 46.58874512 89.9397583 C48.38973678 93.54984757 49.81340183 97.14493652 51 101 C49.68 101 48.36 101 47 101 C47 100.34 47 99.68 47 99 C15.32 99.33 -16.36 99.66 -49 100 C-46.76326531 92.17142857 -46.76326531 92.17142857 -45 89.375 C-43.35486313 86.59883153 -42.0978373 84.01905256 -41 81 C-40.34 81 -39.68 81 -39 81 C-38.9175 80.34 -38.835 79.68 -38.75 79 C-37.74766173 74.99064694 -35.91228693 71.64609374 -34 68 C-30.81096251 61.74302772 -27.78732729 55.44666759 -25 49 C-24.34 49 -23.68 49 -23 49 C-22.87625 48.01 -22.87625 48.01 -22.75 47 C-21.74754699 42.99018796 -19.91083291 39.64736687 -18 36 C-17.24677362 34.50161753 -16.49697021 33.00151107 -15.75 31.5 C-7.875 15.75 -7.875 15.75 0 0 Z " fill="#7A859B" transform="translate(698,305)"/>
<path d="M0 0 C0.495 0.99 0.495 0.99 1 2 C-0.06989395 4.44460098 -1.20032506 6.7661494 -2.4375 9.125 C-3.18640675 10.58583046 -3.93509884 12.04677098 -4.68359375 13.5078125 C-5.07015137 14.25579102 -5.45670898 15.00376953 -5.85498047 15.77441406 C-7.60073966 19.16766369 -9.29956376 22.58388076 -11 26 C-11.66640577 27.33346375 -12.3330734 28.66679667 -13 30 C-13.33 30.66 -13.66 31.32 -14 32 C-17.66666667 39.33333333 -21.33333333 46.66666667 -25 54 C-25.32983887 54.6597583 -25.65967773 55.3195166 -25.99951172 55.99926758 C-26.66754569 57.33517251 -27.3358408 58.6709469 -28.00439453 60.0065918 C-29.65228677 63.29956964 -31.29586742 66.59454643 -32.9296875 69.89453125 C-38.11724683 80.35315187 -43.52660031 90.68838527 -49 101 C-50.48561053 98.7715842 -51.66746653 96.75759774 -52.828125 94.375 C-55.05141515 89.8708854 -57.39572778 85.43668534 -59.75 81 C-63.95719432 73.0379895 -68.0367926 65.02162551 -72.03222656 56.95166016 C-73.67932903 53.6300312 -75.34046891 50.31543171 -77 47 C-77.66673174 45.66669921 -78.33339846 44.3333659 -79 43 C-79.33 42.34 -79.66 41.68 -80 41 C-81 39 -82 37 -83 35 C-83.33064453 34.33895264 -83.66128906 33.67790527 -84.00195312 32.99682617 C-84.6628921 31.67446319 -85.32305914 30.35171409 -85.98242188 29.02856445 C-87.73031471 25.52369321 -89.49436884 22.02814416 -91.28125 18.54296875 C-91.6525 17.81400391 -92.02375 17.08503906 -92.40625 16.33398438 C-93.12010586 14.93304226 -93.83865076 13.53447676 -94.5625 12.13867188 C-96.04066143 9.22705149 -97 7.31318891 -97 4 C-97.66 4 -98.32 4 -99 4 C-99 3.34 -99 2.68 -99 2 C-97.77446915 1.98969254 -96.54893829 1.97938507 -95.28627014 1.96876526 C-83.76378827 1.87121208 -72.24136258 1.76849566 -60.71897221 1.66066074 C-54.79451973 1.60538308 -48.87006237 1.55195548 -42.94555664 1.50268555 C-37.23323041 1.45511326 -31.52096633 1.40277332 -25.80871391 1.34705925 C-23.62413508 1.32660325 -21.43953919 1.30789567 -19.2549305 1.29092598 C-16.2064303 1.26695355 -13.15804878 1.23688958 -10.10961914 1.20532227 C-9.19684204 1.1995668 -8.28406494 1.19381134 -7.34362793 1.18788147 C-3.35261476 1.53861061 -3.35261476 1.53861061 0 0 Z " fill="#79859B" transform="translate(601,499)"/>
<path d="M0 0 C0.66 0 1.32 0 2 0 C8.13507584 12.20074017 14.26372529 24.4046842 20.38411713 36.61279774 C23.22604833 42.28098272 26.07020842 47.94802633 28.91943359 53.61254883 C31.66733774 59.0758384 34.40942414 64.54201091 37.14744568 70.01025963 C38.19477764 72.09936662 39.24422654 74.18741366 40.29579163 76.27439308 C41.76460741 79.19035082 43.22595319 82.10993537 44.68554688 85.03051758 C45.12503159 85.89870117 45.5645163 86.76688477 46.01731873 87.66137695 C46.41278397 88.45643143 46.80824921 89.2514859 47.21569824 90.07063293 C47.5622924 90.76105588 47.90888657 91.45147882 48.26598358 92.16282368 C49 94 49 94 49 97 C17.32 97 -14.36 97 -47 97 C-46.12685342 91.7611205 -44.83923985 88.19328108 -42.4375 83.625 C-41.70681705 82.2006307 -40.97635442 80.77614835 -40.24609375 79.3515625 C-39.87210449 78.6287207 -39.49811523 77.90587891 -39.11279297 77.16113281 C-37.37687491 73.7898413 -35.68975516 70.39459367 -34 67 C-33.33359411 65.66653631 -32.66692673 64.33320327 -32 63 C-31.67 62.34 -31.34 61.68 -31 61 C-27.33333333 53.66666667 -23.66666667 46.33333333 -20 39 C-19.66983887 38.33959717 -19.33967773 37.67919434 -18.99951172 36.9987793 C-18.33473321 35.66938465 -17.66969535 34.34011966 -17.00439453 33.01098633 C-15.30665735 29.61842332 -13.61389168 26.22352267 -11.9296875 22.82421875 C-8.10914178 15.12534969 -4.19681715 7.50340036 0 0 Z " fill="#233457" transform="translate(502,306)"/>
<path d="M0 0 C0.268125 0.639375 0.53625 1.27875 0.8125 1.9375 C1.88667752 4.33131686 1.88667752 4.33131686 5 5 C5.71972831 6.85072995 6.42645459 8.70746547 7.0703125 10.5859375 C8.07928434 13.20587278 9.31790037 15.54952714 10.6875 18 C13.30972909 22.69379007 15.78220216 27.44273652 18.1875 32.25 C18.52031982 32.91128906 18.85313965 33.57257813 19.19604492 34.25390625 C20.75581299 37.38206206 22.24382272 40.51680904 23.6015625 43.73828125 C24.68655472 46.26891954 25.80166162 48.57106839 27.1875 50.9375 C29.63894703 55.26665114 31.89759941 59.67785663 34.125 64.125 C34.46168701 64.79394287 34.79837402 65.46288574 35.14526367 66.15209961 C36.7172135 69.30493742 38.21942993 72.46162389 39.58203125 75.7109375 C41.08422167 79.19535716 42.87137397 82.34597024 44.81640625 85.59375 C46 88 46 88 48 95 C16.32 95 -15.36 95 -48 95 C-45.86446176 87.88153919 -43.81967758 82.21303808 -40.3125 75.875 C-39.41400306 74.21036959 -38.5168878 72.54499273 -37.62109375 70.87890625 C-36.9556958 69.64744873 -36.9556958 69.64744873 -36.27685547 68.39111328 C-34.41094985 64.89691067 -32.6343782 61.36126335 -30.875 57.8125 C-30.55313721 57.16458496 -30.23127441 56.51666992 -29.8996582 55.84912109 C-29.25509711 54.55026478 -28.61113149 53.25111279 -27.96777344 51.95166016 C-26.32067097 48.6300312 -24.65953109 45.31543171 -23 42 C-22.33326826 40.66669921 -21.66660154 39.3333659 -21 38 C-19.66666667 35.33333333 -18.33333333 32.66666667 -17 30 C-16.66959717 29.33887207 -16.33919434 28.67774414 -15.9987793 27.99658203 C-15.33722468 26.67411964 -14.67464025 25.35217186 -14.01098633 24.03076172 C-12.25696111 20.53480503 -10.52592104 17.02956999 -8.82421875 13.5078125 C-8.46650391 12.77433594 -8.10878906 12.04085938 -7.74023438 11.28515625 C-7.05393319 9.87690187 -6.37392376 8.46555848 -5.70117188 7.05078125 C-4.07291557 3.72656568 -3.14718255 2.0981217 0 0 Z " fill="#223457" transform="translate(650,406)"/>
<path d="M0 0 C7.59 0 15.18 0 23 0 C23.33 8.91 23.66 17.82 24 27 C26.97 25.02 29.94 23.04 33 21 C42.1837578 18.70406055 49.00635918 19.64137325 57.328125 24.22265625 C64.28794252 28.85235943 68.54259521 35.74773841 70.6484375 43.83203125 C72.66244975 56.25177347 69.69353713 66.98117974 64.37890625 78.1015625 C63 80 63 80 60.83984375 80.7734375 C59.92912109 80.88558594 59.92912109 80.88558594 59 81 C59 81.66 59 82.32 59 83 C57.730447 83.64834654 56.45930294 84.29357815 55.1875 84.9375 C54.12595703 85.47697266 54.12595703 85.47697266 53.04296875 86.02734375 C46.735152 89.03049169 39.22436935 89.03743024 32.625 86.8125 C28.91517041 85.224754 26.62252051 83.03228934 24 80 C23.67 82.31 23.34 84.62 23 87 C15.41 87 7.82 87 0 87 C0 58.29 0 29.58 0 0 Z " fill="#030303" transform="translate(251,682)"/>
<path d="M0 0 C31.68 0 63.36 0 96 0 C94.25041235 4.37396911 92.37540984 8.61544004 90.375 12.875 C89.84712891 13.99938477 89.84712891 13.99938477 89.30859375 15.14648438 C86.70413252 20.63809746 83.90771808 25.99707512 81.00146484 31.33349609 C78.49185113 35.97952401 76.21473341 40.70717849 74 45.5 C71.49127813 50.92903092 68.86060415 56.24775467 66 61.5 C62.33314901 68.23622786 59.06013725 75.12297979 55.83203125 82.078125 C53.6533753 86.76852315 51.35340965 91.39501092 49 96 C46 95 46 95 44.23828125 91.96484375 C43.58640059 90.6272009 42.94519408 89.28432404 42.3125 87.9375 C41.60052574 86.46731939 40.88827868 84.99727088 40.17578125 83.52734375 C39.81436035 82.77308105 39.45293945 82.01881836 39.08056641 81.24169922 C37.42560134 77.80837584 35.71206126 74.40510431 34 71 C33.33300728 69.66682975 32.66634168 68.33349578 32 67 C31.505 66.01 31.505 66.01 31 65 C24.64322917 52.28645833 18.28645833 39.57291667 11.9296875 26.859375 C11.58873047 26.17770264 11.24777344 25.49603027 10.89648438 24.79370117 C10.22252386 23.44529689 9.54933002 22.0965091 8.87695312 20.74731445 C7.32394651 17.63316422 5.76059349 14.52568593 4.1640625 11.43359375 C3.61492188 10.36238281 3.06578125 9.29117187 2.5 8.1875 C2.0153125 7.25292969 1.530625 6.31835938 1.03125 5.35546875 C0 3 0 3 0 0 Z " fill="#223357" transform="translate(700,502)"/>
<path d="M0 0 C9.24 0 18.48 0 28 0 C33.14705882 13.38235294 33.14705882 13.38235294 35 20 C35.71975344 21.66000939 36.4397643 23.31990808 37.16162109 24.97900391 C38.69462602 28.67446541 39.95335159 32.46659301 41.25 36.25 C43.65297416 43.19636932 46.12510296 50.11086418 48.6875 57 C55.44293804 75.2146902 55.44293804 75.2146902 57 83 C49.08 83 41.16 83 33 83 C30 74 30 74 29 70 C18.77 70 8.54 70 -2 70 C-2.33 72.31 -2.66 74.62 -3 77 C-3.66 78.98 -4.32 80.96 -5 83 C-12.92 83 -20.84 83 -29 83 C-27.64865074 73.54055516 -24.37543529 65.13015522 -20.625 56.375 C-15.32448564 43.90123435 -11.21310171 30.87482013 -7 18 C-6.34 18 -5.68 18 -5 18 C-4.83564453 17.05640625 -4.83564453 17.05640625 -4.66796875 16.09375 C-4.43013672 14.80984375 -4.43013672 14.80984375 -4.1875 13.5 C-4.03667969 12.6646875 -3.88585937 11.829375 -3.73046875 10.96875 C-2.80775406 7.2186796 -1.35601084 3.6160289 0 0 Z " fill="#040404" transform="translate(579,686)"/>
<path d="M0 0 C0.99 0.33 1.98 0.66 3 1 C4.84499398 2.87617698 6.3683599 4.92737609 8 7 C8.33 4.36 8.66 1.72 9 -1 C16.59 -1 24.18 -1 32 -1 C32 20.78 32 42.56 32 65 C24.41 65 16.82 65 9 65 C8.505 61.04 8.505 61.04 8 57 C7.2575 57.763125 6.515 58.52625 5.75 59.3125 C-0.61660387 65.53440833 -5.07873524 66.36721966 -13.890625 66.28125 C-19.79719488 65.7469874 -24.13538312 63.51771141 -28.6875 59.8125 C-37.52587169 49.06312902 -39.96828743 39.7976768 -39.19970703 26.03076172 C-38.30571665 16.94003802 -35.34033671 9.46281659 -28.3359375 3.609375 C-19.64521954 -3.0522326 -10.14626076 -3.52013128 0 0 Z " fill="#040404" transform="translate(961,704)"/>
<path d="M0 0 C0.825 0.598125 1.65 1.19625 2.5 1.8125 C2.83 -0.1675 3.16 -2.1475 3.5 -4.1875 C11.09 -4.1875 18.68 -4.1875 26.5 -4.1875 C26.5 17.5925 26.5 39.3725 26.5 61.8125 C18.91 61.8125 11.32 61.8125 3.5 61.8125 C3.005 58.3475 3.005 58.3475 2.5 54.8125 C2.07589844 55.22242188 1.65179688 55.63234375 1.21484375 56.0546875 C-4.87296184 61.64744077 -10.64501808 63.3425375 -18.8828125 63.1171875 C-25.54599766 62.34147341 -30.80650566 60.01089045 -35.375 55.0625 C-42.19004847 46.44725004 -43.70590604 38.87677761 -43.8125 28.125 C-43.84150391 27.16916016 -43.87050781 26.21332031 -43.90039062 25.22851562 C-43.98659662 15.50050048 -40.95464133 8.63541834 -34.3671875 1.5390625 C-24.36140022 -7.71315084 -10.96026603 -7.19587559 0 0 Z " fill="#030303" transform="translate(381.5,707.1875)"/>
<path d="M0 0 C1.89839917 1.55956509 3.38342275 3.13083255 5 5 C5.33 2.69 5.66 0.38 6 -2 C13.59 -2 21.18 -2 29 -2 C29 19.78 29 41.56 29 64 C21.41 64 13.82 64 6 64 C5.505 60.535 5.505 60.535 5 57 C4.34644531 57.61488281 4.34644531 57.61488281 3.6796875 58.2421875 C-2.79559251 64.10077418 -8.17111053 65.54824719 -16.8984375 65.375 C-23.38506065 64.59072315 -28.79278764 61.62972046 -33.3125 56.9375 C-41.6965736 45.68707645 -42.40628438 33.55485942 -41 20 C-39.33970703 11.76690016 -34.55076747 5.24153454 -27.74609375 0.39453125 C-18.84400717 -4.70666443 -9.07203656 -4.61559755 0 0 Z " fill="#020202" transform="translate(692,705)"/>
<path d="M0 0 C7.59 0 15.18 0 23 0 C23.01981934 1.60439941 23.03963867 3.20879883 23.06005859 4.86181641 C23.13620728 10.82193531 23.22491097 16.78181305 23.31738281 22.74169922 C23.35563417 25.31977574 23.39049371 27.89790492 23.421875 30.47607422 C23.46760833 34.18476162 23.52559041 37.89308763 23.5859375 41.6015625 C23.59748871 42.75177887 23.60903992 43.90199524 23.62094116 45.08706665 C23.64081085 46.16773407 23.66068054 47.24840149 23.68115234 48.36181641 C23.69447601 49.30779694 23.70779968 50.25377747 23.7215271 51.22842407 C23.95856858 54.60838085 23.95856858 54.60838085 26 60 C31.28 60.66 36.56 61.32 42 62 C42 61.34 42 60.68 42 60 C42.81041748 59.39196533 43.62083496 58.78393066 44.45581055 58.1574707 C48.0123932 54.70751575 47.63476314 50.76548538 47.71894836 46.04789734 C47.71501572 44.8706459 47.71108307 43.69339447 47.70703125 42.48046875 C47.72215256 41.26676102 47.73727386 40.05305328 47.75285339 38.80256653 C47.79579896 34.9306897 47.80457572 31.05959149 47.8125 27.1875 C47.83563873 24.56052607 47.86100275 21.93357074 47.88867188 19.30664062 C47.95577681 12.87066758 47.9766703 6.43687613 48 0 C55.92 0 63.84 0 72 0 C72.06908102 7.65008288 72.12875466 15.29907185 72.16479492 22.94921875 C72.17982831 25.54854003 72.20026046 28.14783617 72.22631836 30.74707031 C72.26294101 34.49550605 72.27978152 38.24360472 72.29296875 41.9921875 C72.30845261 43.14363251 72.32393646 44.29507751 72.33988953 45.48141479 C72.34166378 54.09758572 71.422726 62.92687913 66 70 C65.34 70 64.68 70 64 70 C63.79375 70.556875 63.5875 71.11375 63.375 71.6875 C59.15585533 78.78333422 51.57112794 81.29523485 44.046875 83.59765625 C33.17962711 85.73377559 21.60210982 83.87694973 12.328125 77.8984375 C6.16635314 72.87390541 1.94230204 65.68319427 0 58 C-0.39895165 53.50613916 -0.34984464 49.03974136 -0.29296875 44.53125 C-0.28872391 43.25519897 -0.28447906 41.97914795 -0.28010559 40.66442871 C-0.26621934 37.29738106 -0.23933995 33.93096124 -0.20599365 30.56408691 C-0.17512035 27.11830017 -0.16156367 23.67244815 -0.14648438 20.2265625 C-0.11349893 13.48418143 -0.06175894 6.74217642 0 0 Z " fill="#050505" transform="translate(94,686)"/>
<path d="M0 0 C5.67510748 5.05534199 8.51699696 11.42549177 9.15350342 18.990448 C9.44641574 25.90961625 9.3136234 32.82797893 9.19921875 39.75 C9.17912464 41.86782167 9.16087902 43.98566173 9.14453125 46.10351562 C9.10418819 51.25734099 9.02585696 56.40858025 8.94921875 61.5625 C1.02921875 61.5625 -6.89078125 61.5625 -15.05078125 61.5625 C-15.0765625 58.66082031 -15.10234375 55.75914062 -15.12890625 52.76953125 C-15.16734123 49.95294578 -15.21249678 47.13654249 -15.25830078 44.32006836 C-15.28649069 42.36573004 -15.30771508 40.41127814 -15.32177734 38.45678711 C-15.34323432 35.64377777 -15.3898982 32.83213129 -15.44140625 30.01953125 C-15.44263489 29.14851273 -15.44386353 28.2774942 -15.44512939 27.38008118 C-15.54305594 23.30545159 -15.7498033 21.06423664 -17.88671875 17.50195312 C-20.89334835 14.80738346 -22.83212537 15.05156721 -26.80078125 15.25 C-27.97125 15.29511719 -29.14171875 15.34023438 -30.34765625 15.38671875 C-31.2396875 15.44472656 -32.13171875 15.50273438 -33.05078125 15.5625 C-33.05078125 16.2225 -33.05078125 16.8825 -33.05078125 17.5625 C-33.71078125 17.5625 -34.37078125 17.5625 -35.05078125 17.5625 C-35.38078125 32.0825 -35.71078125 46.6025 -36.05078125 61.5625 C-43.97078125 61.5625 -51.89078125 61.5625 -60.05078125 61.5625 C-60.05078125 39.7825 -60.05078125 18.0025 -60.05078125 -4.4375 C-52.13078125 -4.4375 -44.21078125 -4.4375 -36.05078125 -4.4375 C-36.05078125 -2.1275 -36.05078125 0.1825 -36.05078125 2.5625 C-35.56609375 2.15257812 -35.08140625 1.74265625 -34.58203125 1.3203125 C-23.95395195 -7.22302817 -11.39868519 -7.98993552 0 0 Z " fill="#070707" transform="translate(804.05078125,707.4375)"/>
<path d="M0 0 C6.83088279 3.82066325 10.52439481 8.54945907 12.84375 16.03125 C13.9881874 21.38301024 13.97229047 26.58052247 13.94140625 32.0234375 C13.9399913 32.96937775 13.93857635 33.91531799 13.93711853 34.8899231 C13.93154484 37.89539829 13.9189972 40.90079753 13.90625 43.90625 C13.9012316 45.95051975 13.89666929 47.99479068 13.89257812 50.0390625 C13.8824372 55.03651076 13.86285666 60.03379589 13.84375 65.03125 C6.25375 65.03125 -1.33625 65.03125 -9.15625 65.03125 C-9.18203125 62.28554688 -9.2078125 59.53984375 -9.234375 56.7109375 C-9.27283182 54.03993656 -9.31798025 51.3691263 -9.36376953 48.69824219 C-9.39192498 46.84774947 -9.41316646 44.99713771 -9.42724609 43.14648438 C-9.4487512 40.4798512 -9.4954386 37.81464116 -9.546875 35.1484375 C-9.54810364 34.32632782 -9.54933228 33.50421814 -9.55059814 32.65719604 C-9.68480411 27.34605326 -10.62870623 24.24465921 -14.15625 20.03125 C-16.57618358 18.82128321 -18.3309133 18.76041729 -21.03125 18.65625 C-21.89492188 18.60726562 -22.75859375 18.55828125 -23.6484375 18.5078125 C-26.31033123 18.84062992 -26.31033123 18.84062992 -28.27490234 20.97290039 C-30.86917646 25.19019495 -30.75876607 28.62577589 -30.765625 33.48828125 C-30.78216125 34.39124435 -30.79869751 35.29420746 -30.81573486 36.22453308 C-30.86417057 39.09767489 -30.88557588 41.97028757 -30.90625 44.84375 C-30.9344134 46.79625051 -30.96434135 48.74872643 -30.99609375 50.70117188 C-31.07323932 55.47810691 -31.11379889 60.25337752 -31.15625 65.03125 C-39.07625 65.03125 -46.99625 65.03125 -55.15625 65.03125 C-55.15625 43.25125 -55.15625 21.47125 -55.15625 -0.96875 C-47.23625 -0.96875 -39.31625 -0.96875 -31.15625 -0.96875 C-30.82625 1.34125 -30.49625 3.65125 -30.15625 6.03125 C-29.310625 5.268125 -28.465 4.505 -27.59375 3.71875 C-19.60588448 -2.82015387 -9.50803237 -4.20847335 0 0 Z " fill="#060606" transform="translate(486.15625,703.96875)"/>
<path d="M0 0 C7.40465976 3.8149231 11.47248 7.73916229 14.44494629 15.56976318 C15.79206992 20.26386092 15.74319714 24.78145055 15.640625 29.6328125 C15.63496521 30.66187714 15.62930542 31.69094177 15.62347412 32.75119019 C15.60128703 36.00128974 15.55112415 39.25024011 15.5 42.5 C15.47991216 44.71873395 15.46166542 46.93748538 15.4453125 49.15625 C15.40490116 54.56328663 15.32657613 59.96787447 15.25 65.375 C7.66 65.375 0.07 65.375 -7.75 65.375 C-7.77578125 62.47332031 -7.8015625 59.57164062 -7.828125 56.58203125 C-7.86655998 53.76544578 -7.91171553 50.94904249 -7.95751953 48.13256836 C-7.98570944 46.17823004 -8.00693383 44.22377814 -8.02099609 42.26928711 C-8.04245307 39.45627777 -8.08911695 36.64463129 -8.140625 33.83203125 C-8.14185364 32.96101273 -8.14308228 32.0899942 -8.14434814 31.19258118 C-8.2425627 27.10596771 -8.44118952 24.88307712 -10.60620117 21.32104492 C-13.4318937 18.75600733 -15.04259368 18.76288383 -18.8125 18.875 C-19.85535156 18.8853125 -20.89820313 18.895625 -21.97265625 18.90625 C-24.7311994 19.16511192 -24.7311994 19.16511192 -26.55859375 20.65625 C-28.63847234 23.65673058 -28.87397771 26.83001944 -28.95532227 30.40917969 C-28.97526749 31.18968689 -28.99521271 31.97019409 -29.01576233 32.77435303 C-29.04083107 34.0230014 -29.04083107 34.0230014 -29.06640625 35.296875 C-29.08718735 36.15686096 -29.10796844 37.01684692 -29.12937927 37.90289307 C-29.19463739 40.64351598 -29.25364917 43.38423275 -29.3125 46.125 C-29.35570781 47.9856867 -29.39932282 49.84636398 -29.44335938 51.70703125 C-29.55105894 56.26292612 -29.65030868 60.8188947 -29.75 65.375 C-37.34 65.375 -44.93 65.375 -52.75 65.375 C-52.75 43.595 -52.75 21.815 -52.75 -0.625 C-45.16 -0.625 -37.57 -0.625 -29.75 -0.625 C-29.42 1.685 -29.09 3.995 -28.75 6.375 C-28.23050781 5.96507812 -27.71101563 5.55515625 -27.17578125 5.1328125 C-26.47839844 4.59398437 -25.78101563 4.05515625 -25.0625 3.5 C-24.37800781 2.96632813 -23.69351562 2.43265625 -22.98828125 1.8828125 C-16.02299732 -2.80933339 -7.72473909 -3.17455031 0 0 Z " fill="#010101" transform="translate(1068.75,703.625)"/>
<path d="M0 0 C0 8.25 0 16.5 0 25 C-7.75 25.75 -7.75 25.75 -10.17089844 25.95605469 C-13.57156304 26.33466772 -15.72406136 26.78733391 -18.453125 28.890625 C-21.35369731 32.84595088 -21.20502936 36.80439225 -21.31640625 41.51171875 C-21.33718735 42.23994339 -21.35796844 42.96816803 -21.37937927 43.71846008 C-21.44468746 46.04137875 -21.50367237 48.36440906 -21.5625 50.6875 C-21.60570305 52.26368335 -21.64931792 53.83985548 -21.69335938 55.41601562 C-21.80112368 59.27723104 -21.90033556 63.138533 -22 67 C-29.59 67 -37.18 67 -45 67 C-45 45.22 -45 23.44 -45 1 C-37.41 1 -29.82 1 -22 1 C-22 4.63 -22 8.26 -22 12 C-21.34 12 -20.68 12 -20 12 C-19.67 10.68 -19.34 9.36 -19 8 C-18.34 8 -17.68 8 -17 8 C-17 7.34 -17 6.68 -17 6 C-11.69870457 1.86240357 -6.72277886 0 0 0 Z " fill="#040404" transform="translate(233,702)"/>
<path d="M0 0 C3.52586191 2.04525086 7.14473826 4.28947652 9 8 C9.40288977 12.81143363 9.61485588 17.39454299 7.875 21.9375 C4.40032353 25.75964412 1.58556898 27.83597562 -3.625 28.375 C-8.71910112 27.80898876 -8.71910112 27.80898876 -11 26 C-15.3517826 20.31850604 -15.92924245 15.05575952 -15 8 C-13.9765625 5.66796875 -13.9765625 5.66796875 -13 4 C-12.34 4 -11.68 4 -11 4 C-11 3.34 -11 2.68 -11 2 C-7.29868466 -0.36884182 -4.32300499 -0.57640067 0 0 Z " fill="#F4F4F4" transform="translate(689,722)"/>
<path d="M0 0 C3.89030806 2.13585541 6.66209085 4.22808263 9 8 C9.75598215 12.9992368 9.70458836 18.62114266 7 23 C1.48997973 27.95901824 1.48997973 27.95901824 -1.98828125 28.0546875 C-6.33600401 27.71856103 -8.48748122 27.40574403 -12 24.625 C-15.35064346 20.22728046 -15.45034158 16.1706385 -15.421875 10.8046875 C-14.75821222 6.39255904 -12.476318 3.6897059 -9 1 C-5.64870516 -0.11709828 -3.51689744 -0.34479387 0 0 Z " fill="#F5F5F5" transform="translate(376,722)"/>
<path d="M0 0 C3.91524397 2.10820829 6.6730154 4.21360598 9 8 C9.72568194 12.77384885 9.60555288 17.41883413 7.875 21.9375 C4.43194322 25.72486246 1.56426684 27.78045378 -3.5625 28.5 C-7.545271 27.92068785 -9.21994045 26.86430378 -12 24 C-12 23.34 -12 22.68 -12 22 C-12.66 22 -13.32 22 -14 22 C-15.61583601 17.15249197 -15.50460406 12.22025788 -14.375 7.25 C-10.81520514 1.42488114 -6.7895637 -1.09117988 0 0 Z " fill="#F5F5F5" transform="translate(289,722)"/>
<path d="M0 0 C3.26598331 1.28400554 6.18732535 2.77015236 8.171875 5.7734375 C9.87374518 10.34922052 9.64507579 15.2162201 9 20 C7.37030283 23.22910257 5.27850835 25.36074583 2 27 C-1.71234906 27.41248323 -5.29442686 27.49956616 -9 27 C-11.5625 24.6875 -11.5625 24.6875 -13 22 C-13.66 21.01 -14.32 20.02 -15 19 C-15.73610478 14.02701308 -15.54037042 10.06144189 -13.25 5.5625 C-8.9736753 0.69224131 -6.70278109 -0.79524521 0 0 Z " fill="#F6F6F6" transform="translate(870,722)"/>
<path d="M0 0 C5.72727273 3.18181818 5.72727273 3.18181818 7 7 C8.15331644 18.41783275 8.15331644 18.41783275 4.75 22.625 C0.69902943 26.1235655 -0.47075644 27.02427371 -5.9375 26.9375 C-10.23088395 26.28868638 -12.23808562 24.34777501 -15 21 C-15.33 20.67 -15.66 20.34 -16 20 C-17.24409449 7.08661417 -17.24409449 7.08661417 -14.765625 2.9296875 C-9.95834952 -1.04464421 -5.87479926 -1.2944473 0 0 Z " fill="#F8F8F8" transform="translate(962,723)"/>
<path d="M0 0 C2 1.75 2 1.75 4 4 C4 5.32 4 6.64 4 8 C4.66 8 5.32 8 6 8 C6 8.66 6 9.32 6 10 C18.35197698 9.8926248 30.70389398 9.78001734 43.05576134 9.66066074 C48.7907351 9.60540937 54.52571394 9.55198583 60.26074219 9.50268555 C65.79152606 9.45507467 71.32224648 9.40273307 76.85295486 9.34705925 C78.96692965 9.32662083 81.08092185 9.30791025 83.19492722 9.29092598 C86.14743111 9.26691488 89.09981434 9.23685585 92.05224609 9.20532227 C93.37394051 9.19668907 93.37394051 9.19668907 94.72233582 9.18788147 C98.99684399 9.25759791 98.99684399 9.25759791 103 8 C103.33 9.65 103.66 11.3 104 13 C89.64594709 13.17685862 75.29177954 13.34260535 60.9375 13.5 C59.31352673 13.51781588 59.31352673 13.51781588 57.65674591 13.53599167 C22.56228158 13.91779062 -12.52849557 14.09126468 -47.625 14.0625 C-49.20315428 14.06121597 -49.20315428 14.06121597 -50.81319046 14.05990601 C-63.54214535 14.04875813 -76.27107368 14.02906388 -89 14 C-88.67 13.34 -88.34 12.68 -88 12 C-57.64 12.33 -27.28 12.66 4 13 C2.68 9.7 1.36 6.4 0 3 C0 2.01 0 1.02 0 0 Z " fill="#54627E" transform="translate(496,488)"/>
<path d="M0 0 C0.66 0 1.32 0 2 0 C3.3381816 3.95671116 4.669722 7.91562528 6 11.875 C6.3815625 13.00292969 6.763125 14.13085938 7.15625 15.29296875 C7.5171875 16.36933594 7.878125 17.44570313 8.25 18.5546875 C8.58515625 19.54968262 8.9203125 20.54467773 9.265625 21.56982422 C10 24 10 24 10 26 C4.06 26 -1.88 26 -8 26 C-7.566875 24.576875 -7.13375 23.15375 -6.6875 21.6875 C-5.27500021 16.99693465 -3.98511891 12.28206499 -2.74609375 7.54296875 C-1.98502502 4.94895963 -1.04270634 2.49264991 0 0 Z " fill="#EFEFEF" transform="translate(592,712)"/>
<path d="M0 0 C0.495 0.99 0.495 0.99 1 2 C1.66 2 2.32 2 3 2 C3.33 1.34 3.66 0.68 4 0 C4.73080266 1.97746603 5.39421747 3.98072489 6 6 C5.67 6.66 5.34 7.32 5 8 C4.34 8 3.68 8 3 8 C3.33 6.68 3.66 5.36 4 4 C-27.35 4 -58.7 4 -91 4 C-88.40508975 1.40508975 -86.63754653 1.76408839 -83.10310364 1.75115967 C-82.27807846 1.75835022 -81.45305328 1.76554077 -80.60302734 1.77294922 C-79.73466751 1.77265717 -78.86630768 1.77236511 -77.97163391 1.77206421 C-75.09296782 1.77346083 -72.21455854 1.78903758 -69.3359375 1.8046875 C-67.3433954 1.80841645 -65.35085147 1.81126398 -63.35830688 1.81326294 C-58.10737061 1.82090868 -52.85654452 1.84056523 -47.60565186 1.8626709 C-42.25013724 1.88310909 -36.89460486 1.89226031 -31.5390625 1.90234375 C-21.02599319 1.92381025 -10.51300575 1.95795751 0 2 C0 1.34 0 0.68 0 0 Z " fill="#586888" transform="translate(792,498)"/>
<path d="M0 0 C-0.33 0.66 -0.66 1.32 -1 2 C-1.99 2 -2.98 2 -4 2 C-4 1.34 -4 0.68 -4 0 C-35.68 0.33 -67.36 0.66 -100 1 C-100 0.34 -100 -0.32 -100 -1 C-87.552379 -1.17693511 -75.10466496 -1.34289309 -62.65671158 -1.49477577 C-56.87684669 -1.56564462 -51.09708275 -1.64031686 -45.31738281 -1.72363281 C-39.74133594 -1.80387392 -34.1652447 -1.87418751 -28.58898163 -1.93757248 C-26.45985031 -1.96352796 -24.33075976 -1.99308141 -22.20172882 -2.02626419 C-19.22338034 -2.07207421 -16.2451446 -2.10517521 -13.26660156 -2.13525391 C-12.38331177 -2.1517952 -11.50002197 -2.16833649 -10.58996582 -2.18537903 C-9.77670837 -2.19104385 -8.96345093 -2.19670868 -8.12554932 -2.20254517 C-7.42129948 -2.2117631 -6.71704964 -2.22098103 -5.99145889 -2.23047829 C-3.65235654 -1.95976604 -2.03585511 -1.15379239 0 0 Z " fill="#65738B" transform="translate(749,404)"/>
<path d="M0 0 C0.33 0.66 0.66 1.32 1 2 C32.35 2 63.7 2 96 2 C96 2.33 96 2.66 96 3 C64.98 3 33.96 3 2 3 C2 4.32 2 5.64 2 7 C0.68 6.67 -0.64 6.34 -2 6 C-1.34 4.02 -0.68 2.04 0 0 Z " fill="#5C6A89" transform="translate(454,401)"/>
<path d="M0 0 C30.36 0 60.72 0 92 0 C91.67 0.99 91.34 1.98 91 3 C89.35 2.67 87.7 2.34 86 2 C85.67 2.66 85.34 3.32 85 4 C84.505 3.01 84.505 3.01 84 2 C56.28 1.67 28.56 1.34 0 1 C0 0.67 0 0.34 0 0 Z " fill="#5A6A89" transform="translate(608,501)"/>
<path d="M0 0 C3 1 3 1 4.421875 3.1796875 C4.86015625 4.06914063 5.2984375 4.95859375 5.75 5.875 C6.19859375 6.75929688 6.6471875 7.64359375 7.109375 8.5546875 C8 11 8 11 7 14 C5.5 12.75 5.5 12.75 4 11 C4 9.68 4 8.36 4 7 C3.01 6.67 2.02 6.34 1 6 C0 5 0 5 -0.0625 2.4375 C-0.041875 1.633125 -0.02125 0.82875 0 0 Z " fill="#616C7F" transform="translate(825,561)"/>
<path d="M0 0 C3 1 3 1 4.421875 3.1796875 C4.86015625 4.06914063 5.2984375 4.95859375 5.75 5.875 C6.19859375 6.75929688 6.6471875 7.64359375 7.109375 8.5546875 C8 11 8 11 7 14 C5.5 12.75 5.5 12.75 4 11 C4 9.68 4 8.36 4 7 C3.01 6.67 2.02 6.34 1 6 C0 5 0 5 -0.0625 2.4375 C-0.041875 1.633125 -0.02125 0.82875 0 0 Z " fill="#616C7F" transform="translate(809,529)"/>
<path d="M0 0 C3 1 3 1 4.421875 3.1796875 C4.86015625 4.06914062 5.2984375 4.95859375 5.75 5.875 C6.19859375 6.75929688 6.6471875 7.64359375 7.109375 8.5546875 C8 11 8 11 7 14 C5.5 12.75 5.5 12.75 4 11 C4 9.68 4 8.36 4 7 C3.01 6.67 2.02 6.34 1 6 C0 5 0 5 -0.0625 2.4375 C-0.041875 1.633125 -0.02125 0.82875 0 0 Z " fill="#616C7F" transform="translate(777,465)"/>
<path d="M0 0 C3 1 3 1 4.421875 3.1796875 C4.86015625 4.06914062 5.2984375 4.95859375 5.75 5.875 C6.19859375 6.75929688 6.6471875 7.64359375 7.109375 8.5546875 C8 11 8 11 7 14 C5.5 12.75 5.5 12.75 4 11 C4 9.68 4 8.36 4 7 C3.01 6.67 2.02 6.34 1 6 C0 5 0 5 -0.0625 2.4375 C-0.041875 1.633125 -0.02125 0.82875 0 0 Z " fill="#616C7F" transform="translate(761,433)"/>
<path d="M0 0 C2 1.75 2 1.75 4 4 C4 5.32 4 6.64 4 8 C4.66 8 5.32 8 6 8 C5.67 9.98 5.34 11.96 5 14 C4.34 13.67 3.68 13.34 3 13 C2.63128912 11.34080104 2.30404678 9.67225729 2 8 C1.649375 7.13375 1.29875 6.2675 0.9375 5.375 C0 3 0 3 0 0 Z " fill="#596784" transform="translate(496,488)"/>
<path d="M0 0 C0.33 0.99 0.66 1.98 1 3 C0.3503125 3.5259375 0.3503125 3.5259375 -0.3125 4.0625 C-2.68358456 6.78485635 -3.6716835 9.64758216 -5 13 C-5.99 13 -6.98 13 -8 13 C-8 12.34 -8 11.68 -8 11 C-7.34 11 -6.68 11 -6 11 C-5.81824219 10.37351562 -5.63648438 9.74703125 -5.44921875 9.1015625 C-5.19785156 8.28429687 -4.94648437 7.46703125 -4.6875 6.625 C-4.44386719 5.81289063 -4.20023438 5.00078125 -3.94921875 4.1640625 C-3 2 -3 2 0 0 Z " fill="#54647F" transform="translate(755,587)"/>
<path d="M0 0 C0.99 0.33 1.98 0.66 3 1 C1.02 5.455 1.02 5.455 -1 10 C-1.66 9.34 -2.32 8.68 -3 8 C-2.64700993 4.55834679 -1.95418308 2.93127462 0 0 Z " fill="#2E3C5A" transform="translate(470,560)"/>
<path d="M0 0 C0.99 0.33 1.98 0.66 3 1 C1.02 5.455 1.02 5.455 -1 10 C-1.66 9.34 -2.32 8.68 -3 8 C-2.64700993 4.55834679 -1.95418308 2.93127462 0 0 Z " fill="#2E3C5A" transform="translate(486,528)"/>
<path d="M0 0 C0.66 0 1.32 0 2 0 C-0.34594595 7.37297297 -0.34594595 7.37297297 -2 10 C-2.99 10.33 -3.98 10.66 -5 11 C-3.78065514 6.96678237 -2.44045073 3.45730521 0 0 Z " fill="#3E4B63" transform="translate(362,586)"/>
<path d="M0 0 C3 1 3 1 4.75 3.9375 C5.1625 4.948125 5.575 5.95875 6 7 C5.67 7.66 5.34 8.32 5 9 C4.34 9 3.68 9 3 9 C3 8.34 3 7.68 3 7 C2.34 6.67 1.68 6.34 1 6 C0 5 0 5 -0.0625 2.4375 C-0.041875 1.633125 -0.02125 0.82875 0 0 Z " fill="#626B82" transform="translate(833,577)"/>
<path d="M0 0 C3 1 3 1 4.75 3.9375 C5.1625 4.948125 5.575 5.95875 6 7 C5.67 7.66 5.34 8.32 5 9 C4.34 9 3.68 9 3 9 C3 8.34 3 7.68 3 7 C2.34 6.67 1.68 6.34 1 6 C0 5 0 5 -0.0625 2.4375 C-0.041875 1.633125 -0.02125 0.82875 0 0 Z " fill="#626B82" transform="translate(817,545)"/>
<path d="M0 0 C3 1 3 1 4.75 3.9375 C5.1625 4.948125 5.575 5.95875 6 7 C5.67 7.66 5.34 8.32 5 9 C4.34 9 3.68 9 3 9 C3 8.34 3 7.68 3 7 C2.34 6.67 1.68 6.34 1 6 C0 5 0 5 -0.0625 2.4375 C-0.041875 1.633125 -0.02125 0.82875 0 0 Z " fill="#626B82" transform="translate(801,513)"/>
<path d="M0 0 C3 1 3 1 4.75 3.9375 C5.1625 4.948125 5.575 5.95875 6 7 C5.67 7.66 5.34 8.32 5 9 C4.34 9 3.68 9 3 9 C3 8.34 3 7.68 3 7 C2.34 6.67 1.68 6.34 1 6 C0 5 0 5 -0.0625 2.4375 C-0.041875 1.633125 -0.02125 0.82875 0 0 Z " fill="#626B82" transform="translate(785,481)"/>
<path d="M0 0 C3 1 3 1 4.75 3.9375 C5.1625 4.948125 5.575 5.95875 6 7 C5.67 7.66 5.34 8.32 5 9 C4.34 9 3.68 9 3 9 C3 8.34 3 7.68 3 7 C2.34 6.67 1.68 6.34 1 6 C0 5 0 5 -0.0625 2.4375 C-0.041875 1.633125 -0.02125 0.82875 0 0 Z " fill="#626B82" transform="translate(769,449)"/>
<path d="M0 0 C3 1 3 1 4.75 3.9375 C5.1625 4.948125 5.575 5.95875 6 7 C5.67 7.66 5.34 8.32 5 9 C4.34 9 3.68 9 3 9 C3 8.34 3 7.68 3 7 C2.34 6.67 1.68 6.34 1 6 C0 5 0 5 -0.0625 2.4375 C-0.041875 1.633125 -0.02125 0.82875 0 0 Z " fill="#626B82" transform="translate(753,417)"/>
<path d="M0 0 C0.66 0.33 1.32 0.66 2 1 C-1.63 4.63 -5.26 8.26 -9 12 C-9 8.00102358 -7.64683965 6.93298448 -5 4 C-3.36643049 2.62631655 -1.7074998 1.28062485 0 0 Z " fill="#373737" transform="translate(936,705)"/>
<path d="M0 0 C0.66 0.33 1.32 0.66 2 1 C0.3125 4 0.3125 4 -2 7 C-4.75 7.375 -4.75 7.375 -7 7 C-4.78071806 4.09197539 -3.07030857 2.04687238 0 0 Z " fill="#242424" transform="translate(352,705)"/>
<path d="M0 0 C2.64465038 3.1254959 3.84414715 6.08788267 5 10 C3.125 9.375 3.125 9.375 1 8 C-0.3125 5 -0.3125 5 -1 2 C-0.67 1.34 -0.34 0.68 0 0 Z " fill="#6B7586" transform="translate(593,486)"/>
<path d="M0 0 C0.66 0 1.32 0 2 0 C2.66 2.31 3.32 4.62 4 7 C3.01 7 2.02 7 1 7 C1 6.34 1 5.68 1 5 C0.01 5.33 -0.98 5.66 -2 6 C-1.34 4.02 -0.68 2.04 0 0 Z " fill="#949BA7" transform="translate(698,305)"/>
<path d="M0 0 C0.99 0.33 1.98 0.66 3 1 C4.1875 4.0625 4.1875 4.0625 5 7 C1.125 6.125 1.125 6.125 0 5 C-0.04063832 3.33382885 -0.042721 1.66611905 0 0 Z " fill="#626A7F" transform="translate(841,593)"/>
<path d="M0 0 C1.53445094 3.06890187 0.54984289 5.70094266 0 9 C-0.99 8.67 -1.98 8.34 -3 8 C-3.33 6.35 -3.66 4.7 -4 3 C-3.34 3 -2.68 3 -2 3 C-1.34 2.01 -0.68 1.02 0 0 Z " fill="#54647E" transform="translate(660,572)"/>
<path d="M0 0 C1.53445094 3.06890187 0.54984289 5.70094266 0 9 C-0.99 8.67 -1.98 8.34 -3 8 C-3.33 6.35 -3.66 4.7 -4 3 C-3.34 3 -2.68 3 -2 3 C-1.34 2.01 -0.68 1.02 0 0 Z " fill="#54647E" transform="translate(676,540)"/>
<path d="M0 0 C0.25 2.3125 0.25 2.3125 0 5 C-2 6.8125 -2 6.8125 -4 8 C-3.74438677 5.6568787 -3.40729228 3.32156597 -3 1 C-1 0 -1 0 0 0 Z " fill="#586379" transform="translate(454,406)"/>
<path d="M0 0 C0 3 0 3 -1.4375 4.75 C-5.33227626 6.64989086 -8.83440326 5.73877036 -13 5 C-13 4.67 -13 4.34 -13 4 C-12.39671875 3.96261719 -11.7934375 3.92523437 -11.171875 3.88671875 C-5.00632228 3.43746659 -5.00632228 3.43746659 0 0 Z " fill="#565656" transform="translate(876,745)"/>
<path d="M0 0 C0.99 0 1.98 0 3 0 C3.66 1.98 4.32 3.96 5 6 C3.68 6 2.36 6 1 6 C0.67 4.02 0.34 2.04 0 0 Z " fill="#8990A0" transform="translate(729,370)"/>
<path d="M0 0 C0.99 0 1.98 0 3 0 C3.66 1.98 4.32 3.96 5 6 C3.68 6 2.36 6 1 6 C0.67 4.02 0.34 2.04 0 0 Z " fill="#8990A0" transform="translate(713,338)"/>
<path d="M0 0 C0.66 0 1.32 0 2 0 C2.33 1.32 2.66 2.64 3 4 C2.01 4.66 1.02 5.32 0 6 C-0.66 5.67 -1.32 5.34 -2 5 C-1.34 3.35 -0.68 1.7 0 0 Z " fill="#3E4B62" transform="translate(502,306)"/>
<path d="M0 0 C2.475 0.99 2.475 0.99 5 2 C4.67 3.65 4.34 5.3 4 7 C0 2.25 0 2.25 0 0 Z " fill="#37455F" transform="translate(731,566)"/>
<path d="M0 0 C2.475 0.99 2.475 0.99 5 2 C4.67 3.65 4.34 5.3 4 7 C0 2.25 0 2.25 0 0 Z " fill="#37455F" transform="translate(715,534)"/>
<path d="M0 0 C1.5625 1.75 1.5625 1.75 3 4 C2.6875 6.25 2.6875 6.25 2 8 C1.34 8 0.68 8 0 8 C0.33 6.68 0.66 5.36 1 4 C0.01 4 -0.98 4 -2 4 C-2 3.34 -2 2.68 -2 2 C-1.34 2 -0.68 2 0 2 C0 1.34 0 0.68 0 0 Z " fill="#69768B" transform="translate(795,498)"/>
<path d="M0 0 C0.66 0.99 1.32 1.98 2 3 C1.34 4.32 0.68 5.64 0 7 C-0.66 7 -1.32 7 -2 7 C-2 7.66 -2 8.32 -2 9 C-2.66 8.67 -3.32 8.34 -4 8 C-3.67 7.01 -3.34 6.02 -3 5 C-2.34 5 -1.68 5 -1 5 C-0.67 3.35 -0.34 1.7 0 0 Z " fill="#919AA6" transform="translate(660,381)"/>
<path d="M0 0 C0.66 0.99 1.32 1.98 2 3 C1.34 4.32 0.68 5.64 0 7 C-0.66 7 -1.32 7 -2 7 C-2 7.66 -2 8.32 -2 9 C-2.66 8.67 -3.32 8.34 -4 8 C-3.67 7.01 -3.34 6.02 -3 5 C-2.34 5 -1.68 5 -1 5 C-0.67 3.35 -0.34 1.7 0 0 Z " fill="#919AA6" transform="translate(676,349)"/>
<path d="M0 0 C1.53445094 3.06890187 0.54984289 5.70094266 0 9 C-0.99 8.67 -1.98 8.34 -3 8 C-1.125 1.125 -1.125 1.125 0 0 Z " fill="#57637C" transform="translate(652,588)"/>
<path d="M0 0 C0.99 0.33 1.98 0.66 3 1 C4.1875 4.0625 4.1875 4.0625 5 7 C3.0625 6.3125 3.0625 6.3125 1 5 C0.25 2.375 0.25 2.375 0 0 Z " fill="#667082" transform="translate(585,473)"/>
<path d="M0 0 C0.99 0.33 1.98 0.66 3 1 C4.1875 4.0625 4.1875 4.0625 5 7 C3.0625 6.3125 3.0625 6.3125 1 5 C0.25 2.375 0.25 2.375 0 0 Z " fill="#657082" transform="translate(577,457)"/>
<path d="M0 0 C0.99 0.33 1.98 0.66 3 1 C4.1875 4.0625 4.1875 4.0625 5 7 C3.0625 6.3125 3.0625 6.3125 1 5 C0.25 2.375 0.25 2.375 0 0 Z " fill="#667082" transform="translate(569,441)"/>
<path d="M0 0 C0.99 0.33 1.98 0.66 3 1 C4.1875 4.0625 4.1875 4.0625 5 7 C3.0625 6.3125 3.0625 6.3125 1 5 C0.25 2.375 0.25 2.375 0 0 Z " fill="#657082" transform="translate(561,425)"/>
<path d="M0 0 C0.99 0.33 1.98 0.66 3 1 C4.1875 4.0625 4.1875 4.0625 5 7 C3.0625 6.3125 3.0625 6.3125 1 5 C0.25 2.375 0.25 2.375 0 0 Z " fill="#647084" transform="translate(553,409)"/>
<path d="M0 0 C0.66 0 1.32 0 2 0 C1.1875 2.9375 1.1875 2.9375 0 6 C-0.99 6.33 -1.98 6.66 -3 7 C-1.125 1.125 -1.125 1.125 0 0 Z " fill="#3B4862" transform="translate(458,394)"/>
<path d="M0 0 C0.66 0.33 1.32 0.66 2 1 C1.67 2.32 1.34 3.64 1 5 C-0.32 5.33 -1.64 5.66 -3 6 C-1.125 1.125 -1.125 1.125 0 0 Z " fill="#8A91A2" transform="translate(654,394)"/>
<path d="M0 0 C0.99 0 1.98 0 3 0 C3.66 1.98 4.32 3.96 5 6 C3.0625 5.25 3.0625 5.25 1 4 C0.25 1.875 0.25 1.875 0 0 Z " fill="#8A91A1" transform="translate(737,386)"/>
<path d="M0 0 C0.99 0 1.98 0 3 0 C3.66 1.98 4.32 3.96 5 6 C3.0625 5.25 3.0625 5.25 1 4 C0.25 1.875 0.25 1.875 0 0 Z " fill="#8A91A1" transform="translate(721,354)"/>
<path d="M0 0 C0.99 0 1.98 0 3 0 C3.66 1.98 4.32 3.96 5 6 C3.0625 5.25 3.0625 5.25 1 4 C0.25 1.875 0.25 1.875 0 0 Z " fill="#8A91A1" transform="translate(705,322)"/>
<path d="M0 0 C0.66 0 1.32 0 2 0 C1.1875 2.9375 1.1875 2.9375 0 6 C-0.99 6.33 -1.98 6.66 -3 7 C-1.125 1.125 -1.125 1.125 0 0 Z " fill="#3A4862" transform="translate(498,314)"/>
</svg>
