<?xml version="1.0" encoding="UTF-8"?>
<svg version="1.1" xmlns="http://www.w3.org/2000/svg" width="1007" height="497">
<path d="M0 0 C332.31 0 664.62 0 1007 0 C1007 164.01 1007 328.02 1007 497 C674.69 497 342.38 497 0 497 C0 332.99 0 168.98 0 0 Z " fill="#FEFEFE" transform="translate(0,0)"/>
<path d="M0 0 C66.99 0 133.98 0 203 0 C208.1119403 9.20149254 208.1119403 9.20149254 210 14 C211.55100968 17.09068709 213.18386822 20.13716497 214.8125 23.1875 C215.72337612 24.9058686 216.63354122 26.62461431 217.54296875 28.34375 C217.97399902 29.1584375 218.4050293 29.973125 218.84912109 30.8125 C220.968726 34.8412781 222.98676627 38.91743625 225 43 C226.26820836 45.54298019 227.54057824 48.08387556 228.8125 50.625 C229.50657586 52.01298811 230.2005856 53.40100929 230.89453125 54.7890625 C231.24338379 55.48676758 231.59223633 56.18447266 231.95166016 56.90332031 C255.140625 103.28125 255.140625 103.28125 256.06054688 105.125 C256.70876543 106.4187418 257.36138504 107.71028461 258.01757812 109 C259.6212814 112.16480342 261.12872334 115.30546781 262.5078125 118.578125 C264.06507107 122.14922056 265.89068952 125.39906324 267.875 128.75 C271.9516145 135.73995028 275.319203 142.90864821 278.39453125 150.39453125 C280.00772902 154.01735738 281.85522462 157.3391731 283.875 160.75 C287.99491512 167.81419551 291.37323265 175.06864557 294.5 182.625 C296.01939146 186.04363079 297.76497486 189.22273431 299.609375 192.47265625 C301.72720425 196.32163244 303.63955721 200.2693542 305.5859375 204.20703125 C306.72546007 206.45774573 307.9084276 208.6400297 309.1875 210.8125 C310.72737314 213.52055276 311.94611685 216.20795706 313.15454102 219.07104492 C314.59718365 222.36250304 316.24433595 225.54867721 317.875 228.75 C320.1734331 233.29170797 322.40694115 237.83042215 324.4375 242.5 C326.4867394 247.1021639 328.88100231 251.44205116 331.375 255.8125 C337.543253 266.63190766 342.72010037 277.23027602 347 289 C314.33 289 281.66 289 248 289 C247.01 286.36 246.02 283.72 245 281 C244.35004482 279.61778673 243.67082718 278.24822629 242.94140625 276.90625 C242.56113281 276.19718506 242.18085937 275.48812012 241.7890625 274.75756836 C241.38429688 274.0125708 240.97953125 273.26757324 240.5625 272.5 C235.83083743 263.67369817 231.34322097 254.73843407 226.93579102 245.74609375 C226.45166748 244.76640625 225.96754395 243.78671875 225.46875 242.77734375 C225.04013672 241.90327881 224.61152344 241.02921387 224.16992188 240.12866211 C223.05920429 237.8731363 223.05920429 237.8731363 221 236 C220.35639654 234.553188 219.76883695 233.08109209 219.21484375 231.59765625 C216.94005584 225.7375247 214.2898411 220.09851475 211.5625 214.4375 C210.86543945 212.97280273 210.86543945 212.97280273 210.15429688 211.47851562 C207.58502109 206.12137853 204.89425969 200.89382733 201.89819336 195.76196289 C201 194 201 194 201 192 C200.34 192 199.68 192 199 192 C198.74605469 192.67160156 198.49210937 193.34320313 198.23046875 194.03515625 C196.75546564 197.58921136 195.04922996 201.00676354 193.3125 204.4375 C192.9616333 205.13544678 192.6107666 205.83339355 192.24926758 206.55249023 C190.83320158 209.36901206 189.41258229 212.18322286 187.99121094 214.99707031 C187.35490348 216.25748558 186.71938226 217.51829814 186.0847168 218.77954102 C185.23935737 220.45944847 184.39125231 222.13797346 183.54296875 223.81640625 C182.4965863 225.97539789 181.50960899 228.16400503 180.578125 230.375 C178.77386746 234.51943316 176.70624221 238.46137713 174.5625 242.4375 C169.2392861 252.30081205 169.2392861 252.30081205 164.53125 262.46484375 C162.72995298 266.62345039 160.64789978 270.57506228 158.5 274.5625 C157.71810054 276.02178761 156.93683837 277.4814169 156.15625 278.94140625 C155.81400391 279.57763916 155.47175781 280.21387207 155.11914062 280.86938477 C153.70633509 283.55907802 152.35871037 286.28257927 151 289 C118.33 289 85.66 289 52 289 C48.37 281.41 44.74 273.82 41 266 C38.28666477 260.5005167 35.56372693 255.00768863 32.8125 249.52734375 C32.095361 248.0949435 31.37840608 246.66245108 30.66162109 245.22987366 C28.81688416 241.54412968 26.96974852 237.85959357 25.12200928 234.175354 C23.23217533 230.40606925 21.34471127 226.63559815 19.45703125 222.86523438 C16.15303879 216.26669343 12.84706732 209.6691476 9.53955078 203.07237244 C8.77747314 201.55154808 8.77747314 201.55154808 8 200 C7.43909668 198.91977066 6.87819336 197.83954132 6.30029297 196.72657776 C5 194 5 194 5 192 C1.46880898 194.92236498 0.22272629 197.62574371 -1.20703125 201.828125 C-2.50217039 205.37540263 -4.26490321 208.64946827 -6 212 C-6.66 212 -7.32 212 -8 212 C-8.18175781 212.65226563 -8.36351562 213.30453125 -8.55078125 213.9765625 C-9.97466596 218.92730011 -11.49407234 223.46546423 -14 228 C-14.66 228 -15.32 228 -16 228 C-16.15855469 228.6290625 -16.31710937 229.258125 -16.48046875 229.90625 C-17.91079999 235.153432 -19.61557815 239.23696079 -22.671875 243.7109375 C-24.96984897 247.67156322 -26.31100583 252.01975193 -27.7890625 256.33984375 C-28.18867188 257.21769531 -28.58828125 258.09554688 -29 259 C-29.99 259.33 -30.98 259.66 -32 260 C-32.849236 262.06408755 -32.849236 262.06408755 -33.375 264.5625 C-34.56651716 268.96050838 -36.19438834 272.1634997 -38.73046875 275.91015625 C-40.66717686 279.09827576 -41.90430642 282.5095111 -43.203125 285.99609375 C-44 288 -44 288 -45 289 C-48.04402422 289.09530981 -51.06531708 289.12551639 -54.10961914 289.11352539 C-55.06561508 289.11367142 -56.02161102 289.11381744 -57.00657654 289.1139679 C-60.18279245 289.11326835 -63.35895052 289.10547403 -66.53515625 289.09765625 C-68.73091093 289.09579222 -70.92666602 289.09436825 -73.12242126 289.09336853 C-78.91420633 289.08954219 -84.7059665 289.07971091 -90.4977417 289.06866455 C-96.40278791 289.05845293 -102.30783813 289.05387145 -108.21289062 289.04882812 C-119.80860472 289.03808875 -131.40430029 289.02101093 -143 289 C-142.19588015 284.34326143 -140.40363663 280.72072195 -138.125 276.625 C-134.34154294 269.66131269 -130.82953215 262.5996364 -127.4375 255.4375 C-123.4332975 246.99381074 -119.34802399 238.60365288 -115.13671875 230.26171875 C-113.80176348 227.60557064 -112.47871973 224.94363628 -111.15625 222.28125 C-106.57676255 213.0711566 -101.9870482 203.87730015 -97.125 194.8125 C-94.0416405 189.06186513 -91.20842838 183.24894764 -88.51953125 177.30078125 C-84.64006084 168.87365401 -80.4331161 160.59565287 -75.99438477 152.45019531 C-72.19269889 145.47219296 -68.83552229 138.38031728 -65.70117188 131.07666016 C-64.02867804 127.19880413 -62.27721828 123.5721071 -60 120 C-57.63849725 116.01496411 -55.63078778 112.1696961 -53.82568359 107.89599609 C-52.43673106 104.70657997 -50.87637749 101.60648037 -49.3125 98.5 C-48.96292236 97.80205322 -48.61334473 97.10410645 -48.25317383 96.38500977 C-45.97342406 91.85872784 -43.60587385 87.39108971 -41.1875 82.9375 C-37.26359246 75.69177637 -33.72153651 68.2737691 -30.20776367 60.82202148 C-20.5456572 40.36503485 -10.11215029 20.22430057 0 0 Z " fill="#4D5C78" transform="translate(421,0)"/>
<path d="M0 0 C2.31 0 4.62 0 7 0 C8.27571484 2.1847753 9.54560673 4.37261619 10.8125 6.5625 C11.16892578 7.17158203 11.52535156 7.78066406 11.89257812 8.40820312 C14.25636736 12.50688355 16.19289741 16.62745712 18 21 C18.5878125 22.11375 18.5878125 22.11375 19.1875 23.25 C20 25 20 25 20 28 C20.66 28 21.32 28 22 28 C22.99 31.3 23.98 34.6 25 38 C25.66 38 26.32 38 27 38 C28.97435987 41.88063836 30.92848675 45.73926867 32.625 49.75 C33.89069258 52.87036116 33.89069258 52.87036116 35.1875 55.25 C36 57 36 57 36 60 C36.66 60 37.32 60 38 60 C38.99 63.3 39.98 66.6 41 70 C41.66 70 42.32 70 43 70 C45.86034565 75.33931188 47.73130765 80.07943568 49 86 C49.66 86 50.32 86 51 86 C51.36351562 86.8353125 51.36351562 86.8353125 51.734375 87.6875 C53.72500894 92.22002035 55.79635144 96.68054742 58.0703125 101.078125 C59 103 59 103 59.8125 105.15234375 C61.56229174 109.34839039 63.73520549 113.30428433 65.875 117.3125 C74.19093851 132.94498382 74.19093851 132.94498382 75.9765625 137.48046875 C77.50194003 141.23569207 79.46140799 144.7428503 81.375 148.3125 C85.49547841 156.09536882 89.56672976 163.90232651 93.5625 171.75 C94.0869873 172.76102783 94.61147461 173.77205566 95.15185547 174.8137207 C95.63928223 175.77753662 96.12670898 176.74135254 96.62890625 177.734375 C97.06275635 178.58225586 97.49660645 179.43013672 97.94360352 180.30371094 C99 183 99 183 100 190 C67.99 190 35.98 190 3 190 C2.67 191.65 2.34 193.3 2 195 C1.07226178 197.20980212 0.08890394 199.39676258 -0.9375 201.5625 C-1.46214844 202.67753906 -1.98679687 203.79257813 -2.52734375 204.94140625 C-3.66540456 207.305071 -4.81541066 209.65943458 -6 212 C-6.66 212 -7.32 212 -8 212 C-8.18175781 212.65226563 -8.36351562 213.30453125 -8.55078125 213.9765625 C-9.97466596 218.92730011 -11.49407234 223.46546423 -14 228 C-14.66 228 -15.32 228 -16 228 C-16.15855469 228.6290625 -16.31710937 229.258125 -16.48046875 229.90625 C-17.91079999 235.153432 -19.61557815 239.23696079 -22.671875 243.7109375 C-24.96984897 247.67156322 -26.31100583 252.01975193 -27.7890625 256.33984375 C-28.18867188 257.21769531 -28.58828125 258.09554688 -29 259 C-29.99 259.33 -30.98 259.66 -32 260 C-32.849236 262.06408755 -32.849236 262.06408755 -33.375 264.5625 C-34.56651716 268.96050838 -36.19438834 272.1634997 -38.73046875 275.91015625 C-40.66717686 279.09827576 -41.90430642 282.5095111 -43.203125 285.99609375 C-44 288 -44 288 -45 289 C-48.04402422 289.09530981 -51.06531708 289.12551639 -54.10961914 289.11352539 C-55.06561508 289.11367142 -56.02161102 289.11381744 -57.00657654 289.1139679 C-60.18279245 289.11326835 -63.35895052 289.10547403 -66.53515625 289.09765625 C-68.73091093 289.09579222 -70.92666602 289.09436825 -73.12242126 289.09336853 C-78.91420633 289.08954219 -84.7059665 289.07971091 -90.4977417 289.06866455 C-96.40278791 289.05845293 -102.30783813 289.05387145 -108.21289062 289.04882812 C-119.80860472 289.03808875 -131.40430029 289.02101093 -143 289 C-142.19588015 284.34326143 -140.40363663 280.72072195 -138.125 276.625 C-134.34154294 269.66131269 -130.82953215 262.5996364 -127.4375 255.4375 C-123.4332975 246.99381074 -119.34802399 238.60365288 -115.13671875 230.26171875 C-113.80176348 227.60557064 -112.47871973 224.94363628 -111.15625 222.28125 C-106.57676255 213.0711566 -101.9870482 203.87730015 -97.125 194.8125 C-94.0416405 189.06186513 -91.20842838 183.24894764 -88.51953125 177.30078125 C-84.64006084 168.87365401 -80.4331161 160.59565287 -75.99438477 152.45019531 C-72.19269889 145.47219296 -68.83552229 138.38031728 -65.70117188 131.07666016 C-64.02867804 127.19880413 -62.27721828 123.5721071 -60 120 C-57.63849725 116.01496411 -55.63078778 112.1696961 -53.82568359 107.89599609 C-52.43673106 104.70657997 -50.87637749 101.60648037 -49.3125 98.5 C-48.96292236 97.80205322 -48.61334473 97.10410645 -48.25317383 96.38500977 C-45.97342406 91.85872784 -43.60587385 87.39108971 -41.1875 82.9375 C-37.26359246 75.69177637 -33.72153651 68.2737691 -30.20776367 60.82202148 C-26.62036514 53.22664216 -22.8804417 45.71429048 -19.10913086 38.209198 C-17.16134608 34.32954557 -15.22187028 30.44573962 -13.28125 26.5625 C-12.4870158 24.97394002 -11.69274494 23.38539836 -10.8984375 21.796875 C-10.50495117 21.00990234 -10.11146484 20.22292969 -9.70605469 19.41210938 C-6.47070312 12.94140625 -3.23535156 6.47070312 0 0 Z " fill="#4D5C79" transform="translate(421,0)"/>
<path d="M0 0 C62.37 0 124.74 0 189 0 C187.68 3.63 186.36 7.26 185 11 C184.34 11 183.68 11 183 11 C182.82984375 11.56847656 182.6596875 12.13695312 182.484375 12.72265625 C180.83986926 17.96233144 178.79418081 22.28481989 176 27 C175.32525086 28.63867648 174.65074526 30.27745773 173.98046875 31.91796875 C172.66046025 34.7210147 171.0820672 37.33668772 169.5 40 C166.98189504 44.25127763 164.83791369 48.40521578 163 53 C159.80505997 60.55845735 156.04112721 67.59202643 151.8671875 74.640625 C149.98614071 78.02493512 148.46657142 81.4186488 147 85 C146.5771875 86.010625 146.154375 87.02125 145.71875 88.0625 C145.3165625 89.031875 144.914375 90.00125 144.5 91 C142.6931349 95.34521033 140.86558126 99.67970656 139 104 C138.34 104 137.68 104 137 104 C136.84144531 104.54527344 136.68289063 105.09054688 136.51953125 105.65234375 C134.95553232 110.70725743 132.99576888 115.12246361 130.28125 119.6640625 C128.96151715 122.07016081 127.91725481 124.53984897 126.85693359 127.06835938 C125.28080137 130.62116796 123.40610164 134.01806524 121.5625 137.4375 C116.23893263 147.28026924 116.23893263 147.28026924 111.5625 157.4375 C110.32500145 160.2589967 109.01393287 162.82915126 107.5 165.5 C105.38003686 169.24148257 103.67012167 173.03346104 102 177 C101.18326432 178.7785494 100.34887469 180.54906389 99.5 182.3125 C99.0978125 183.15425781 98.695625 183.99601563 98.28125 184.86328125 C97 187 97 187 94 189 C90.26448955 181.54025705 86.5312328 174.07950292 82.82769775 166.6038208 C81.44414987 163.81176474 80.05741392 161.02129762 78.67041016 158.23095703 C77.9613634 156.80259709 77.25372631 155.37353668 76.54736328 153.94384766 C75.50664712 151.83830059 74.46087869 149.73533202 73.4140625 147.6328125 C72.94222031 146.67364426 72.94222031 146.67364426 72.46084595 145.69509888 C71.16458128 143.10190431 70.06522895 141.06522895 68 139 C67.35049539 137.53068733 66.7560982 136.0366587 66.1953125 134.53125 C64.05707505 129.02216741 61.53526392 123.7731641 58.875 118.5 C58.43285156 117.60796875 57.99070312 116.7159375 57.53515625 115.796875 C56.89513672 114.52070313 56.89513672 114.52070313 56.2421875 113.21875 C55.8591748 112.45498047 55.47616211 111.69121094 55.08154297 110.90429688 C54.02528745 108.8481867 54.02528745 108.8481867 52 107 C51.32699761 105.47867528 50.70857887 103.93281797 50.125 102.375 C48.82415394 98.99573447 47.42852564 95.77074582 45.75 92.5625 C44 89 44 89 44 86 C43.34 86 42.68 86 42 86 C41.18395001 84.0848421 40.37229368 82.16781166 39.5625 80.25 C39.11003906 79.18265625 38.65757812 78.1153125 38.19140625 77.015625 C37.26020447 74.6586159 36.5215928 72.47007165 36 70 C35.34 70 34.68 70 34 70 C33.49596232 68.70990357 32.99690074 67.41786211 32.5 66.125 C32.2215625 65.40570313 31.943125 64.68640625 31.65625 63.9453125 C31 62 31 62 31 60 C30.34 60 29.68 60 29 60 C28.5875 59.030625 28.175 58.06125 27.75 57.0625 C27.16784838 55.7078249 26.58438907 54.3537114 26 53 C25.66355469 52.22011719 25.32710938 51.44023438 24.98046875 50.63671875 C24.63628906 49.84910156 24.29210937 49.06148437 23.9375 48.25 C23.61652344 47.51265625 23.29554688 46.7753125 22.96484375 46.015625 C21.94713529 43.76786413 21.94713529 43.76786413 20 41 C20 40.01 20 39.02 20 38 C19.34 38 18.68 38 18 38 C17.49596232 36.70990357 16.99690074 35.41786211 16.5 34.125 C16.08234375 33.04605469 16.08234375 33.04605469 15.65625 31.9453125 C15 30 15 30 15 28 C14.34 28 13.68 28 13 28 C12.5875 27.030625 12.175 26.06125 11.75 25.0625 C11.47285156 24.42054687 11.19570313 23.77859375 10.91015625 23.1171875 C10.3049984 21.70948125 9.70857407 20.29798733 9.12109375 18.8828125 C6.89298829 13.64350176 4.21438126 8.87868718 1.171875 4.06640625 C0 2 0 2 0 0 Z " fill="#FDFEFE" transform="translate(428,0)"/>
<path d="M0 0 C0.495 0.99 0.495 0.99 1 2 C33.01 2.33 65.02 2.66 98 3 C98 3.66 98 4.32 98 5 C97.34 5 96.68 5 96 5 C95.74605469 5.67160156 95.49210938 6.34320313 95.23046875 7.03515625 C93.75546564 10.58921136 92.04922996 14.00676354 90.3125 17.4375 C89.9616333 18.13544678 89.6107666 18.83339355 89.24926758 19.55249023 C87.83320158 22.36901206 86.41258229 25.18322286 84.99121094 27.99707031 C84.35490348 29.25748558 83.71938226 30.51829814 83.0847168 31.77954102 C82.23935737 33.45944847 81.39125231 35.13797346 80.54296875 36.81640625 C79.4965863 38.97539789 78.50960899 41.16400503 77.578125 43.375 C75.77386746 47.51943316 73.70624221 51.46137713 71.5625 55.4375 C66.2392861 65.30081205 66.2392861 65.30081205 61.53125 75.46484375 C59.72995298 79.62345039 57.64789978 83.57506228 55.5 87.5625 C54.71810054 89.02178761 53.93683837 90.4814169 53.15625 91.94140625 C52.81400391 92.57763916 52.47175781 93.21387207 52.11914062 93.86938477 C50.70633509 96.55907802 49.35871037 99.28257927 48 102 C15.33 102 -17.34 102 -51 102 C-54.63 94.41 -58.26 86.82 -62 79 C-64.71333523 73.5005167 -67.43627307 68.00768863 -70.1875 62.52734375 C-70.904639 61.0949435 -71.62159392 59.66245108 -72.33837891 58.22987366 C-74.18311584 54.54412968 -76.03025148 50.85959357 -77.87799072 47.175354 C-79.76782467 43.40606925 -81.65528873 39.63559815 -83.54296875 35.86523438 C-86.84696121 29.26669343 -90.15293268 22.6691476 -93.46044922 16.07237244 C-93.96850098 15.05848953 -94.47655273 14.04460663 -95 13 C-95.56090332 11.91977066 -96.12180664 10.83954132 -96.69970703 9.72657776 C-98 7 -98 7 -98 5 C-98.66 5 -99.32 5 -100 5 C-100 4.34 -100 3.68 -100 3 C-67.99 3 -35.98 3 -3 3 C-2.67 2.34 -2.34 1.68 -2 1 C-1.34 0.67 -0.68 0.34 0 0 Z " fill="#4D5C78" transform="translate(524,187)"/>
<path d="M0 0 C0.495 0.99 0.495 0.99 1 2 C31.69 2 62.38 2 94 2 C92.87591241 12.11678832 92.87591241 12.11678832 91.0625 15.3125 C90.55396484 16.23482422 90.55396484 16.23482422 90.03515625 17.17578125 C89.69355469 17.77777344 89.35195313 18.37976563 89 19 C88.32681914 20.3300563 87.65838711 21.66255892 87 23 C86.34 23 85.68 23 85 23 C84.72736328 23.97839844 84.72736328 23.97839844 84.44921875 24.9765625 C83.02533404 29.92730011 81.50592766 34.46546423 79 39 C78.34 39 77.68 39 77 39 C76.84144531 39.6290625 76.68289063 40.258125 76.51953125 40.90625 C75.08920001 46.153432 73.38442185 50.23696079 70.328125 54.7109375 C68.03015103 58.67156322 66.68899417 63.01975193 65.2109375 67.33984375 C64.81132812 68.21769531 64.41171875 69.09554687 64 70 C62.515 70.495 62.515 70.495 61 71 C60.150764 73.06408755 60.150764 73.06408755 59.625 75.5625 C58.43348284 79.96050838 56.80561166 83.1634997 54.26953125 86.91015625 C52.33282314 90.09827576 51.09569358 93.5095111 49.796875 96.99609375 C49 99 49 99 48 100 C44.95597578 100.09530981 41.93468292 100.12551639 38.89038086 100.11352539 C37.93438492 100.11367142 36.97838898 100.11381744 35.99342346 100.1139679 C32.81720755 100.11326835 29.64104948 100.10547403 26.46484375 100.09765625 C24.26908907 100.09579222 22.07333398 100.09436825 19.87757874 100.09336853 C14.08579367 100.08954219 8.2940335 100.07971091 2.5022583 100.06866455 C-3.40278791 100.05845293 -9.30783813 100.05387145 -15.21289062 100.04882812 C-26.80860472 100.03808875 -38.40430029 100.02101093 -50 100 C-49.19588015 95.34326143 -47.40363663 91.72072195 -45.125 87.625 C-41.34154294 80.66131269 -37.82953215 73.5996364 -34.4375 66.4375 C-30.43610746 57.99973612 -26.35388849 49.61536061 -22.14550781 41.27929688 C-20.78412046 38.57044941 -19.4348127 35.85572429 -18.0859375 33.140625 C-12.8806524 22.67235374 -7.67173437 12.22509858 -2 2 C-1.34 2 -0.68 2 0 2 C0 1.34 0 0.68 0 0 Z " fill="#223357" transform="translate(328,189)"/>
<path d="M0 0 C1.35575333 0.96938676 2.69652209 1.96138404 4 3 C4.33 1.02 4.66 -0.96 5 -3 C12.92 -3 20.84 -3 29 -3 C29.06810916 5.78922526 29.12300675 14.57827172 29.15543652 23.36770248 C29.17101078 27.45015108 29.1920959 31.53240785 29.22631836 35.61474609 C29.25920907 39.56348778 29.27691475 43.51204638 29.28463173 47.46091461 C29.29012248 48.95821255 29.30084251 50.45550188 29.31719017 51.95272064 C29.44939285 64.57686003 28.91553901 77.16558928 20 87 C19.34 87 18.68 87 18 87 C18 87.66 18 88.32 18 89 C6.44446034 96.07776804 -2.43412778 97.67208336 -15.84375 95.328125 C-26.24449697 92.79460971 -32.3316055 88.16650677 -38.08984375 79.28515625 C-39.43479715 75.90834191 -39.64207412 72.61316755 -40 69 C-36.22956968 68.85503492 -32.45985258 68.76604393 -28.6875 68.6875 C-27.61564453 68.64560547 -26.54378906 68.60371094 -25.43945312 68.56054688 C-24.41142578 68.54443359 -23.38339844 68.52832031 -22.32421875 68.51171875 C-21.37635498 68.48553467 -20.42849121 68.45935059 -19.4519043 68.43237305 C-17 69 -17 69 -15.35449219 71.49560547 C-14.68401855 72.73528076 -14.68401855 72.73528076 -14 74 C-10.94734502 74.68164614 -10.94734502 74.68164614 -7.5625 74.4375 C-6.42941406 74.41558594 -5.29632812 74.39367187 -4.12890625 74.37109375 C-1.18949443 74.02247437 0.59297482 73.69003896 3 72 C4.14077657 68.57767028 4.09815117 65.91326783 4.0625 62.3125 C4.05347656 61.13300781 4.04445313 59.95351563 4.03515625 58.73828125 C4.02355469 57.83464844 4.01195312 56.93101562 4 56 C3.57589844 56.40992188 3.15179687 56.81984375 2.71484375 57.2421875 C-3.37718802 62.83882328 -9.13398404 64.50504235 -17.37109375 64.31640625 C-23.17032749 63.61843012 -28.32623284 61.76186016 -32.375 57.5 C-32.91125 56.675 -33.4475 55.85 -34 55 C-34.64710938 54.39027344 -35.29421875 53.78054688 -35.9609375 53.15234375 C-42.83133814 45.90025419 -42.53510001 35.00305192 -42.48535156 25.60888672 C-42.29589607 19.1638916 -41.38816418 13.61164692 -38 8 C-37.34 8 -36.68 8 -36 8 C-35.79375 7.443125 -35.5875 6.88625 -35.375 6.3125 C-32.361738 1.24474118 -27.68405376 -1.67652024 -22.1953125 -3.4921875 C-14.12668941 -5.35859498 -7.25546335 -3.80593604 0 0 Z " fill="#060606" transform="translate(796,395)"/>
<path d="M0 0 C4.33927875 3.57238161 5.96643781 7.94360335 8.0625 13 C10.04691852 17.73236569 11.86181627 21.91780979 15 26 C15.7490572 27.69246438 16.49494091 29.38682417 17.19628906 31.09960938 C18.59079968 34.39695768 20.25075875 37.56128648 21.875 40.75 C24.1734331 45.29170797 26.40694115 49.83042215 28.4375 54.5 C30.4867394 59.1021639 32.88100231 63.44205116 35.375 67.8125 C41.543253 78.63190766 46.72010037 89.23027602 51 101 C18.33 101 -14.34 101 -48 101 C-48 100.34 -48 99.68 -48 99 C-47.34 99 -46.68 99 -46 99 C-45.67 97.845 -45.34 96.69 -45 95.5 C-42.74380463 88.7314139 -39.3523897 82.4865412 -36.10253906 76.15673828 C-34.27186699 72.57565832 -32.48157909 68.97451044 -30.6875 65.375 C-30.04576377 64.09105042 -29.40384581 62.80719166 -28.76171875 61.5234375 C-28.18035156 60.36070312 -27.59898437 59.19796875 -27 58 C-26 56 -25 54 -24 52 C-23.34 52 -22.68 52 -22 52 C-21.67 50.02 -21.34 48.04 -21 46 C-20.34 46 -19.68 46 -19 46 C-18.938125 45.21625 -18.87625 44.4325 -18.8125 43.625 C-17.6967665 38.64711207 -15.39693773 34.47546306 -13 30 C-12.34 30 -11.68 30 -11 30 C-10.938125 29.21625 -10.87625 28.4325 -10.8125 27.625 C-8.83744126 18.81319945 -3.2477908 10.78761647 1 3 C-30.35 3 -61.7 3 -94 3 C-93.67 2.34 -93.34 1.68 -93 1 C-91.8496376 1.00222061 -90.69927521 1.00444122 -89.51405334 1.00672913 C-78.69799941 1.02695922 -67.8819493 1.0419715 -57.06588078 1.05181217 C-51.50460589 1.05704134 -45.94334621 1.06413958 -40.38208008 1.07543945 C-35.01992581 1.08626715 -29.65778622 1.09227658 -24.29562187 1.09487724 C-22.24499722 1.09673171 -20.1943734 1.10035272 -18.14375496 1.10573006 C-15.28209797 1.11293893 -12.42050243 1.11399101 -9.55883789 1.11352539 C-8.70216522 1.11712067 -7.84549255 1.12071594 -6.96286011 1.12442017 C-3.17490136 1.48793166 -3.17490136 1.48793166 0 0 Z " fill="#4D5C78" transform="translate(717,188)"/>
<path d="M0 0 C1.093125 0.103125 2.18625 0.20625 3.3125 0.3125 C4.10800392 1.70615 4.89871838 3.10253431 5.6875 4.5 C6.12835937 5.27730469 6.56921875 6.05460938 7.0234375 6.85546875 C8.3125 9.3125 8.3125 9.3125 9.17578125 11.5390625 C10.87142965 15.67621153 13.02054991 19.55848424 15.125 23.5 C16.03587612 25.2183686 16.94604122 26.93711431 17.85546875 28.65625 C18.28649902 29.4709375 18.7175293 30.285625 19.16162109 31.125 C21.281226 35.1537781 23.29926627 39.22993625 25.3125 43.3125 C26.58070836 45.85548019 27.85307824 48.39637556 29.125 50.9375 C29.81907586 52.32548811 30.5130856 53.71350929 31.20703125 55.1015625 C31.55588379 55.79926758 31.90473633 56.49697266 32.26416016 57.21582031 C33.28417969 59.25585937 34.30419922 61.29589844 35.32421875 63.3359375 C35.65309082 63.99352051 35.98196289 64.65110352 36.32080078 65.32861328 C36.97985075 66.64703771 37.6383828 67.96572116 38.29638672 69.28466797 C40.0381729 72.77426132 41.79067039 76.25794147 43.55859375 79.734375 C43.92533203 80.45882812 44.29207031 81.18328125 44.66992188 81.9296875 C45.37235806 83.31677668 46.07792213 84.70228781 46.78710938 86.0859375 C48.31705431 89.1146676 49.71051512 91.95495053 50.3125 95.3125 C49.3225 95.3125 48.3325 95.3125 47.3125 95.3125 C47.3125 94.6525 47.3125 93.9925 47.3125 93.3125 C46.13930206 93.31694122 44.96610413 93.32138245 43.75735474 93.32595825 C32.72088062 93.36643708 21.68442149 93.39645199 10.64789009 93.41612434 C4.97339925 93.42657795 -0.70103184 93.44076583 -6.37548828 93.46337891 C-11.84787715 93.48505116 -17.32020841 93.49705674 -22.79263687 93.50225449 C-24.88430819 93.50596037 -26.97597623 93.51319663 -29.06762314 93.52396011 C-31.98899999 93.53840041 -34.91013639 93.54048108 -37.83154297 93.53955078 C-38.70332184 93.54674133 -39.57510071 93.55393188 -40.47329712 93.56134033 C-46.45939568 93.54060432 -46.45939568 93.54060432 -48.6875 91.3125 C-47.99314706 89.68077059 -47.29700772 88.04978638 -46.59375 86.421875 C-46.00036987 85.04073158 -45.41663259 83.65539572 -44.84375 82.265625 C-42.93158028 77.74894825 -40.71222678 73.58287797 -38.1875 69.375 C-35.61475783 65.05083504 -33.60956136 60.85466362 -31.84765625 56.15625 C-30.30207813 52.36776222 -28.51171815 48.72344522 -26.6875 45.0625 C-26.18875366 44.05171387 -26.18875366 44.05171387 -25.67993164 43.02050781 C-24.11436249 39.90708567 -22.49959832 37.03116464 -20.55859375 34.125 C-18.87742904 31.59798832 -17.78183056 29.39646781 -16.75 26.5625 C-14.73963418 21.29229796 -12.28461242 16.31513458 -9.6875 11.3125 C-9.0275 11.3125 -8.3675 11.3125 -7.6875 11.3125 C-7.584375 10.425625 -7.48125 9.53875 -7.375 8.625 C-5.68489583 0.48177083 -5.68489583 0.48177083 0 0 Z " fill="#79859B" transform="translate(620.6875,-0.3125)"/>
<path d="M0 0 C0.99 0 1.98 0 3 0 C1.51308177 4.92062632 -0.54111218 9.32001449 -2.875 13.875 C-3.38353516 14.87853516 -3.38353516 14.87853516 -3.90234375 15.90234375 C-4.58645423 17.25235645 -5.27199859 18.60164351 -5.95898438 19.95019531 C-7.65604016 23.29177138 -9.32719824 26.64623647 -11 30 C-12 32 -13 34 -14 36 C-14.66 36 -15.32 36 -16 36 C-16.33 37.98 -16.66 39.96 -17 42 C-17.66 42 -18.32 42 -19 42 C-19.09539062 42.67160156 -19.19078125 43.34320313 -19.2890625 44.03515625 C-20.17832445 47.74367173 -21.72636839 51.02101756 -23.375 54.4375 C-23.67921875 55.08009766 -23.9834375 55.72269531 -24.296875 56.38476562 C-26.14836241 60.28159277 -28.05864108 64.14705761 -30 68 C-30.66 68 -31.32 68 -32 68 C-32.33 69.98 -32.66 71.96 -33 74 C-33.66 74 -34.32 74 -35 74 C-35.11786865 74.71567139 -35.2357373 75.43134277 -35.35717773 76.16870117 C-36.02656457 79.11700315 -37.01841655 81.558851 -38.28515625 84.30078125 C-38.73310547 85.27724609 -39.18105469 86.25371094 -39.64257812 87.25976562 C-40.11115234 88.26716797 -40.57972656 89.27457031 -41.0625 90.3125 C-41.53494141 91.33923828 -42.00738281 92.36597656 -42.49414062 93.42382812 C-43.65802325 95.951452 -44.82677855 98.47670072 -46 101 C-46.66 101 -47.32 101 -48 101 C-48.36629517 100.22246117 -48.36629517 100.22246117 -48.73999023 99.42921448 C-57.18601721 81.54327618 -66.0111875 63.8550279 -74.87799072 46.175354 C-76.76782467 42.40606925 -78.65528873 38.63559815 -80.54296875 34.86523438 C-83.84696121 28.26669343 -87.15293268 21.6691476 -90.46044922 15.07237244 C-90.96850098 14.05848953 -91.47655273 13.04460663 -92 12 C-92.56090332 10.91977066 -93.12180664 9.83954132 -93.69970703 8.72657776 C-95 6 -95 6 -95 4 C-95.66 4 -96.32 4 -97 4 C-97 3.34 -97 2.68 -97 2 C-64.99 2 -32.98 2 0 2 C0 1.34 0 0.68 0 0 Z " fill="#79859B" transform="translate(521,188)"/>
<path d="M0 0 C2.31 0 4.62 0 7 0 C8.27571484 2.1847753 9.54560673 4.37261619 10.8125 6.5625 C11.16892578 7.17158203 11.52535156 7.78066406 11.89257812 8.40820312 C14.25636736 12.50688355 16.19289741 16.62745712 18 21 C18.5878125 22.11375 18.5878125 22.11375 19.1875 23.25 C20 25 20 25 20 28 C20.66 28 21.32 28 22 28 C22.99 31.3 23.98 34.6 25 38 C25.66 38 26.32 38 27 38 C28.97435987 41.88063836 30.92848675 45.73926867 32.625 49.75 C33.89069258 52.87036116 33.89069258 52.87036116 35.1875 55.25 C36 57 36 57 36 60 C36.66 60 37.32 60 38 60 C38.99 63.3 39.98 66.6 41 70 C41.66 70 42.32 70 43 70 C51 84.85714286 51 84.85714286 51 92 C19.65 92 -11.7 92 -44 92 C-43.15766739 86.94600432 -42.0582251 83.62687395 -39.75 79.25 C-39.02540231 77.83886979 -38.30149564 76.42738462 -37.578125 75.015625 C-37.17271484 74.22994141 -36.76730469 73.44425781 -36.34960938 72.63476562 C-33.69095235 67.44442072 -31.10257009 62.21862305 -28.5 57 C-27.36353907 54.72643361 -26.22682557 52.45299345 -25.08984375 50.1796875 C-24.55343262 49.10686523 -24.01702148 48.03404297 -23.46435547 46.92871094 C-15.64290365 31.28580729 -7.82145182 15.64290365 0 0 Z " fill="#223457" transform="translate(421,0)"/>
<path d="M0 0 C2.83227391 3.25711499 4.31563018 6.83470011 5.9375 10.78125 C6.93051649 13.04704837 6.93051649 13.04704837 8.50390625 14.9765625 C10.15374368 17.20793532 10.99278082 19.27195403 11.9375 21.875 C13.11730283 24.97710706 14.28391596 27.63779204 16.25 30.3125 C18.14278595 33.21927842 18.39896842 34.6087684 18 38 C18.66 38 19.32 38 20 38 C20.68359375 39.69270833 21.3671875 41.38541667 22.05078125 43.078125 C22.96186444 45.08063941 22.96186444 45.08063941 24.484375 46.9296875 C26.13403015 49.18308242 26.98686503 51.25565386 27.9375 53.875 C29.11730283 56.97710706 30.28391596 59.63779204 32.25 62.3125 C34.14278595 65.21927842 34.39896842 66.6087684 34 70 C34.66 70 35.32 70 36 70 C36.68359375 71.69270833 37.3671875 73.38541667 38.05078125 75.078125 C38.96223582 77.07937458 38.96223582 77.07937458 40.4765625 78.9296875 C42.1292607 81.17566198 43.06287079 83.27677348 44.0625 85.875 C44.38347656 86.69742188 44.70445312 87.51984375 45.03515625 88.3671875 C46.08299405 91.2264696 47.04206354 94.1095157 48 97 C36.05650588 97.02314458 24.11301708 97.04092592 12.16950512 97.05181217 C6.6239817 97.05703635 1.07847359 97.06412561 -4.46704102 97.07543945 C-9.81623676 97.08628478 -15.16541775 97.09228035 -20.51462364 97.09487724 C-22.5580131 97.09672851 -24.60140173 97.10034344 -26.64478493 97.10573006 C-29.50124498 97.11296228 -32.35764363 97.11399001 -35.21411133 97.11352539 C-36.4883345 97.1189183 -36.4883345 97.1189183 -37.78829956 97.12442017 C-41.11471629 97.11854436 -43.8217706 97.0594098 -47 96 C-46.411072 92.31592817 -45.37665702 89.47318392 -43.625 86.1875 C-42.03473183 83.12055424 -40.62122512 80.14201803 -39.5 76.875 C-38.23558397 73.29727738 -36.44523167 70.35725573 -34.28125 67.25 C-32.81956282 64.68313471 -31.89630777 62.01808345 -30.89257812 59.24755859 C-29.24932044 55.10974946 -27.10306088 51.23099726 -25 47.3125 C-24.56171875 46.48427734 -24.1234375 45.65605469 -23.671875 44.80273438 C-21.93378148 41.53333858 -20.18242389 38.30157464 -18.265625 35.1328125 C-16.82443865 32.70414661 -15.97262145 30.18704343 -15.02734375 27.53515625 C-12.72704912 21.85876379 -9.79222307 16.44674746 -7 11 C-6.34 11 -5.68 11 -5 11 C-4.731875 9.9275 -4.46375 8.855 -4.1875 7.75 C-3.13772173 4.43491072 -2.25387672 2.56122354 0 0 Z " fill="#223356" transform="translate(572,93)"/>
<path d="M0 0 C7.59 0 15.18 0 23 0 C23.33 8.91 23.66 17.82 24 27 C26.97 25.02 29.94 23.04 33 21 C41.02726009 18.99318498 47.39058186 19.95334492 55 23 C56.03125 23.33 57.0625 23.66 58.125 24 C65.35410986 29.02894599 68.82212329 37.57537845 70.56640625 45.9609375 C72.05824308 56.41723525 71.53166401 67.20852463 65.4375 76.1875 C64.633125 77.115625 63.82875 78.04375 63 79 C62.34 79 61.68 79 61 79 C61 79.66 61 80.32 61 81 C53.81105451 86.86852693 47.2025187 88.52983111 37.9453125 88.390625 C32.00193177 87.60237822 28.04755396 84.19518511 24 80 C23.67 82.31 23.34 84.62 23 87 C15.41 87 7.82 87 0 87 C0 58.29 0 29.58 0 0 Z " fill="#040404" transform="translate(173,371)"/>
<path d="M0 0 C31.02 0 62.04 0 94 0 C92.78863579 3.02841053 91.65116981 5.81621582 90.1875 8.6875 C89.84460938 9.36683594 89.50171875 10.04617187 89.1484375 10.74609375 C88.32357856 12.36494957 87.49501317 13.98191883 86.6640625 15.59765625 C86.21804688 16.47292969 85.77203125 17.34820312 85.3125 18.25 C84.68794922 19.46429688 84.68794922 19.46429688 84.05078125 20.703125 C83.0877132 22.80827003 82.47158867 24.74052021 82 27 C81.34 27 80.68 27 80 27 C79.62875 28.175625 79.62875 28.175625 79.25 29.375 C77.66068507 33.98401329 75.83792827 38.48547716 74 43 C73.34 43 72.68 43 72 43 C71.67 44.98 71.34 46.96 71 49 C70.34 49 69.68 49 69 49 C68.61714844 50.25683594 68.61714844 50.25683594 68.2265625 51.5390625 C66.88844083 55.31478159 65.19860966 58.81896116 63.375 62.375 C62.65881372 63.79034412 61.94266912 65.20570933 61.2265625 66.62109375 C60.85950195 67.34280762 60.49244141 68.06452148 60.11425781 68.80810547 C58.31575144 72.34600868 56.52995271 75.8902303 54.75 79.4375 C54.41597168 80.10313965 54.08194336 80.7687793 53.73779297 81.45458984 C51.34714329 86.2442943 49.10914802 91.07865462 47 96 C46.34 96 45.68 96 45 96 C40.22286437 87.06498706 35.51491544 78.10805731 31.02368164 69.02563477 C28.58411774 64.1133689 26.02884991 59.27111171 23.4375 54.4375 C19.68827393 47.42041035 16.2599924 40.3001371 12.95068359 33.06738281 C11.09568986 29.03346217 9.20481395 25.01651392 7.3125 21 C6.94382812 20.21061035 6.57515625 19.4212207 6.1953125 18.60791016 C4.50593753 15.02408716 2.77911202 11.60464379 0.66796875 8.25 C-1 5 -1 5 0 0 Z " fill="#223356" transform="translate(624,191)"/>
<path d="M0 0 C9.24 0 18.48 0 28 0 C28.70125 2.000625 29.4025 4.00125 30.125 6.0625 C32.42492789 12.56350586 34.95103063 18.95372595 37.5703125 25.33203125 C38.88754378 28.71148528 40.06253377 32.09847981 41.19189453 35.54321289 C45.10920611 47.45255017 49.0726307 59.39355374 54.08984375 70.890625 C56.08379048 75.51178909 56 77.43770356 56 83 C48.41 83 40.82 83 33 83 C29 73 29 73 29 70 C18.77 70 8.54 70 -2 70 C-2.66 73.63 -3.32 77.26 -4 81 C-4.33 81.66 -4.66 82.32 -5 83 C-12.92 83 -20.84 83 -29 83 C-28.21404554 78.28427321 -27.16572554 74.10044086 -25.625 69.625 C-25.20476562 68.37976563 -24.78453125 67.13453125 -24.3515625 65.8515625 C-22.08691505 59.32380536 -19.57509304 52.88893047 -17.09545898 46.44067383 C-14.2560639 39.04455632 -11.49727915 31.66046223 -9.0703125 24.1171875 C-6.83209922 17.59859555 -4.23320048 11.2081032 -1.69262695 4.80249023 C-1.08380366 3.21809038 -0.53674842 1.61024527 0 0 Z " fill="#060606" transform="translate(501,375)"/>
<path d="M0 0 C2.55428684 1.51346524 4.68266686 3.10829948 7 5 C7 5.66 7 6.32 7 7 C7.66 7 8.32 7 9 7 C9 4.36 9 1.72 9 -1 C16.59 -1 24.18 -1 32 -1 C32 20.78 32 42.56 32 65 C24.41 65 16.82 65 9 65 C9 62.36 9 59.72 9 57 C8.5875 57.39832031 8.175 57.79664063 7.75 58.20703125 C1.00816061 64.39206694 -5.06280804 66.64910803 -14.26171875 66.34375 C-22.33774268 65.32992674 -27.94098674 61.17904356 -33 55 C-36.95382333 49.88871025 -38.83800096 45.52046155 -39 39 C-39.061875 37.79859375 -39.12375 36.5971875 -39.1875 35.359375 C-39.56164764 25.37083993 -38.99868588 14.86204083 -32 7 C-31.34 7 -30.68 7 -30 7 C-29.67 6.01 -29.34 5.02 -29 4 C-28.34 4 -27.68 4 -27 4 C-27 3.34 -27 2.68 -27 2 C-17.86929428 -2.35165549 -9.66175849 -3.82824393 0 0 Z " fill="#050505" transform="translate(883,393)"/>
<path d="M0 0 C1.89839917 1.55956509 3.38342275 3.13083255 5 5 C5.33 2.69 5.66 0.38 6 -2 C13.59 -2 21.18 -2 29 -2 C29 19.78 29 41.56 29 64 C21.41 64 13.82 64 6 64 C5.505 61.03 5.505 61.03 5 58 C4.40832031 58.42152344 3.81664062 58.84304688 3.20703125 59.27734375 C2.41683594 59.82519531 1.62664063 60.37304688 0.8125 60.9375 C0.03519531 61.48277344 -0.74210938 62.02804687 -1.54296875 62.58984375 C-7.06619634 65.75977246 -13.80565606 65.78721444 -20 65 C-27.48290295 62.81010935 -32.12145705 59.67375172 -36.125 52.9375 C-37.13546595 50.98443522 -38.09840293 49.00564857 -39 47 C-39.3815625 46.24847656 -39.763125 45.49695313 -40.15625 44.72265625 C-43.4643301 34.04797185 -42.0207571 18.80108357 -37 9 C-28.27778018 -3.22685894 -13.40271237 -6.81892384 0 0 Z " fill="#040404" transform="translate(614,394)"/>
<path d="M0 0 C0 0.66 0 1.32 0 2 C0.928125 2.4640625 0.928125 2.4640625 1.875 2.9375 C3.25 3.625 4.625 4.3125 6 5 C6.33 3.02 6.66 1.04 7 -1 C14.59 -1 22.18 -1 30 -1 C30 20.78 30 42.56 30 65 C22.41 65 14.82 65 7 65 C6.505 61.535 6.505 61.535 6 58 C5.57589844 58.40992188 5.15179688 58.81984375 4.71484375 59.2421875 C-0.89365495 64.39461048 -6.02899216 66.4921818 -13.82421875 66.25 C-20.72459219 65.45713842 -27.42214478 63.48822416 -32 58 C-37.56749802 49.9967216 -40.38230971 43.05711356 -40.3125 33.3125 C-40.30621582 32.12092285 -40.30621582 32.12092285 -40.29980469 30.90527344 C-40.11503024 21.23803184 -38.45502134 12.52303907 -31.43359375 5.4140625 C-22.34377992 -2.92335063 -11.46057557 -4.16748202 0 0 Z " fill="#040404" transform="translate(300,393)"/>
<path d="M0 0 C7.59 0 15.18 0 23 0 C23.33 18.81 23.66 37.62 24 57 C24.66 57 25.32 57 26 57 C26 57.66 26 58.32 26 59 C31.7531176 61.30124704 36.99056193 62.24302877 42.875 59.8125 C45.97619538 57.16736276 46.85038877 54.40404198 47.2784729 50.38664246 C47.29179657 49.45620621 47.30512024 48.52576996 47.31884766 47.56713867 C47.33871735 46.50641647 47.35858704 45.44569427 47.37905884 44.35282898 C47.39061005 43.2193251 47.40216125 42.08582123 47.4140625 40.91796875 C47.43342865 39.74865311 47.4527948 38.57933746 47.4727478 37.37458801 C47.53245195 33.64563251 47.57889297 29.91664599 47.625 26.1875 C47.66318815 23.6568877 47.70224037 21.12628827 47.7421875 18.59570312 C47.83976966 12.39720303 47.91941299 6.19883758 48 0 C55.92 0 63.84 0 72 0 C72.11528726 7.61408283 72.21468449 15.22509268 72.2746582 22.83935547 C72.29967919 25.4250723 72.33370672 28.01071928 72.37719727 30.59619141 C72.43839427 34.32992875 72.46633569 38.06272462 72.48828125 41.796875 C72.51408768 42.93799744 72.5398941 44.07911987 72.56648254 45.25482178 C72.57029731 56.36850686 68.91533015 66.95874414 61 75 C52.76056991 81.9559804 43.78059209 84.61085906 33.08203125 84.28125 C22.47088182 83.31293218 13.44915102 80.10115259 6.125 72.125 C3.69344647 68.54918599 2.2348511 65.12173271 1 61 C0.82541763 60.41748474 0.65083527 59.83496948 0.47096252 59.23480225 C-0.09603864 56.5442793 -0.11961082 54.06408888 -0.11352539 51.31347656 C-0.11344986 50.17259583 -0.11337433 49.03171509 -0.11329651 47.85626221 C-0.10813522 46.63010193 -0.10297394 45.40394165 -0.09765625 44.140625 C-0.0962413 42.88111023 -0.09482635 41.62159546 -0.09336853 40.32391357 C-0.08872073 36.98334881 -0.07974281 33.64285279 -0.06866455 30.30230713 C-0.05841598 26.8903462 -0.05386354 23.47837815 -0.04882812 20.06640625 C-0.03779963 13.37758275 -0.02053524 6.68880079 0 0 Z " fill="#060606" transform="translate(16,375)"/>
<path d="M0 0 C5.4384087 4.23757111 7.94424981 9.30931194 10.08984375 15.74609375 C10.17672174 17.29579823 10.20753035 18.84899082 10.20336914 20.40112305 C10.20325584 21.81224617 10.20325584 21.81224617 10.20314026 23.25187683 C10.19797897 24.2644606 10.19281769 25.27704437 10.1875 26.3203125 C10.18608505 27.35928177 10.1846701 28.39825104 10.18321228 29.46870422 C10.17761031 32.79036323 10.16505747 36.11195508 10.15234375 39.43359375 C10.147329 41.68424382 10.14276605 43.93489494 10.13867188 46.18554688 C10.12849071 51.70577592 10.10891558 57.22585957 10.08984375 62.74609375 C2.49984375 62.74609375 -5.09015625 62.74609375 -12.91015625 62.74609375 C-12.97074219 59.905 -13.03132813 57.06390625 -13.09375 54.13671875 C-13.15556994 51.38311177 -13.21894499 48.62954466 -13.2824707 45.87597656 C-13.32576482 43.96325229 -13.36744381 42.05049075 -13.4074707 40.13769531 C-13.46530705 37.38725557 -13.52896301 34.63700247 -13.59375 31.88671875 C-13.61046249 31.03241272 -13.62717499 30.17810669 -13.64439392 29.2979126 C-13.67431175 28.09712067 -13.67431175 28.09712067 -13.70483398 26.87207031 C-13.72815041 25.81950043 -13.72815041 25.81950043 -13.75193787 24.7456665 C-13.91991862 22.62271642 -14.23475112 20.76727701 -14.91015625 18.74609375 C-18.74127949 16.27440134 -23.08187124 16.3989086 -27.5078125 16.1875 C-30.07366288 16.57606486 -30.07366288 16.57606486 -32.0222168 18.68994141 C-34.62630689 22.9053817 -34.5126683 26.33777357 -34.51953125 31.203125 C-34.5360675 32.1060881 -34.55260376 33.00905121 -34.56964111 33.93937683 C-34.61807682 36.81251864 -34.63948213 39.68513132 -34.66015625 42.55859375 C-34.68831965 44.51109426 -34.7182476 46.46357018 -34.75 48.41601562 C-34.82714557 53.19295066 -34.86770514 57.96822127 -34.91015625 62.74609375 C-42.83015625 62.74609375 -50.75015625 62.74609375 -58.91015625 62.74609375 C-58.91015625 40.96609375 -58.91015625 19.18609375 -58.91015625 -3.25390625 C-50.99015625 -3.25390625 -43.07015625 -3.25390625 -34.91015625 -3.25390625 C-34.58015625 -0.94390625 -34.25015625 1.36609375 -33.91015625 3.74609375 C-33.48605469 3.33617187 -33.06195313 2.92625 -32.625 2.50390625 C-23.37823025 -5.99092837 -10.54489358 -6.92210806 0 0 Z " fill="#070707" transform="translate(411.91015625,395.25390625)"/>
<path d="M0 0 C7.59 0 15.18 0 23 0 C23.33 2.64 23.66 5.28 24 8 C24.66 8 25.32 8 26 8 C26.2475 7.401875 26.495 6.80375 26.75 6.1875 C28.44654943 3.2185385 30.41841915 1.52353255 33.6875 0.44140625 C42.37264934 -1.21640097 51.27285247 -1.04368436 58.98046875 3.51953125 C64.41060757 7.50023263 67.29494427 12.4791322 69 19 C69.38035355 22.69544959 69.35121017 26.3508072 69.29296875 30.0625 C69.28872391 31.09439453 69.28447906 32.12628906 69.28010559 33.18945312 C69.26341801 36.45990967 69.22578395 39.72973217 69.1875 43 C69.17244036 45.22785563 69.1587542 47.455721 69.14648438 49.68359375 C69.11610888 55.12283198 69.05736748 60.56071284 69 66 C61.08 66 53.16 66 45 66 C44.98582031 63.01453125 44.97164062 60.0290625 44.95703125 56.953125 C44.92641397 54.06043186 44.8873244 51.16796867 44.84741211 48.27539062 C44.82422097 46.26570777 44.80983378 44.25590318 44.80444336 42.24609375 C44.79516193 39.35599817 44.75418988 36.46782011 44.70703125 33.578125 C44.7109639 32.68007141 44.71489655 31.78201782 44.71894836 30.85675049 C44.6287334 25.62049872 44.6287334 25.62049872 41.63012695 21.43457031 C38.64002843 19.80365795 36.76578762 19.46263595 33.375 19.5 C32.43398438 19.4896875 31.49296875 19.479375 30.5234375 19.46875 C27.89330129 19.78172686 27.89330129 19.78172686 26.2265625 21.78125 C23.61423749 26.50672964 23.79264628 31.41406105 23.68359375 36.703125 C23.66281265 37.54091492 23.64203156 38.37870483 23.62062073 39.24188232 C23.5553745 41.91117356 23.49635642 44.58056098 23.4375 47.25 C23.39429106 49.06250984 23.35067601 50.87501005 23.30664062 52.6875 C23.1989564 57.12490296 23.09969793 61.56238168 23 66 C15.41 66 7.82 66 0 66 C0 44.22 0 22.44 0 0 Z " fill="#070707" transform="translate(666,392)"/>
<path d="M0 0 C6.51243502 4.3947551 9.17640264 8.39657512 11 16 C11.37207531 19.72920142 11.35203635 23.4155007 11.29296875 27.16015625 C11.28872391 28.19063583 11.28447906 29.22111542 11.28010559 30.28282166 C11.26344216 33.54299115 11.22581301 36.80252039 11.1875 40.0625 C11.17243722 42.2857983 11.15875162 44.50910639 11.14648438 46.73242188 C11.11614328 52.15538725 11.05739765 57.57698514 11 63 C3.41 63 -4.18 63 -12 63 C-12.02578125 60.09832031 -12.0515625 57.19664062 -12.078125 54.20703125 C-12.11655998 51.39044578 -12.16171553 48.57404249 -12.20751953 45.75756836 C-12.23570944 43.80323004 -12.25693383 41.84877814 -12.27099609 39.89428711 C-12.29245307 37.08127777 -12.33911695 34.26963129 -12.390625 31.45703125 C-12.39185364 30.58601273 -12.39308228 29.7149942 -12.39434814 28.81758118 C-12.49255389 24.73133444 -12.6882156 22.5112576 -14.85839844 18.95263672 C-17.64895447 16.40830622 -19.2598775 16.29847454 -23 16.3125 C-24.03125 16.28800781 -25.0625 16.26351563 -26.125 16.23828125 C-29.20079823 16.76521308 -29.20079823 16.76521308 -31.14160156 19.46411133 C-33.49794318 23.94741343 -33.60211959 27.35200295 -33.609375 32.3359375 C-33.62591125 33.21528961 -33.64244751 34.09464172 -33.65948486 35.00064087 C-33.70782914 37.79216592 -33.72930535 40.58314676 -33.75 43.375 C-33.77817108 45.27476676 -33.8081001 47.17450832 -33.83984375 49.07421875 C-33.91687546 53.71639286 -33.95751938 58.35686854 -34 63 C-41.59 63 -49.18 63 -57 63 C-57 41.22 -57 19.44 -57 -3 C-49.41 -3 -41.82 -3 -34 -3 C-33.67 -0.36 -33.34 2.28 -33 5 C-32.278125 4.236875 -31.55625 3.47375 -30.8125 2.6875 C-21.9059674 -5.82318671 -10.41355233 -6.3305408 0 0 Z " fill="#020202" transform="translate(995,395)"/>
<path d="M0 0 C0 8.25 0 16.5 0 25 C-5.22460938 25.24414062 -5.22460938 25.24414062 -10.44921875 25.48828125 C-14.13923835 26.02006625 -16.08929829 26.70815018 -19 29 C-21.50601953 32.65288875 -21.34577917 36.5538386 -21.4140625 40.828125 C-21.43342865 41.57713074 -21.4527948 42.32613647 -21.4727478 43.09783936 C-21.53235716 45.48177836 -21.57885354 47.86576614 -21.625 50.25 C-21.66319701 51.86981231 -21.70224975 53.48960468 -21.7421875 55.109375 C-21.83964904 59.07281082 -21.91936277 63.03604345 -22 67 C-29.59 67 -37.18 67 -45 67 C-45 45.22 -45 23.44 -45 1 C-37.41 1 -29.82 1 -22 1 C-22 4.63 -22 8.26 -22 12 C-21.34 12 -20.68 12 -20 12 C-19.814375 11.278125 -19.62875 10.55625 -19.4375 9.8125 C-16.96382703 4.97270505 -12.78249414 2.74864754 -7.875 0.6875 C-5 0 -5 0 0 0 Z " fill="#040404" transform="translate(155,391)"/>
<path d="M0 0 C4.17999563 3.02382663 5.90012338 6.00056083 7 11 C7.3150749 15.48981732 7.26254537 19.04054561 5 23 C2.9375 24.125 2.9375 24.125 1 25 C0.67 25.99 0.34 26.98 0 28 C-1.45823212 28.0270043 -2.91660675 28.04639787 -4.375 28.0625 C-5.18710938 28.07410156 -5.99921875 28.08570313 -6.8359375 28.09765625 C-9 28 -9 28 -11 27 C-11 26.34 -11 25.68 -11 25 C-11.99 24.67 -12.98 24.34 -14 24 C-17.26671598 19.16042077 -17.76534353 14.66144527 -17 9 C-13.78975776 1.3967947 -7.98372118 -1.6662939 0 0 Z " fill="#F2F2F2" transform="translate(213,411)"/>
<path d="M0 0 C3.11709136 1.69624851 5.38929088 3.77858175 7 7 C8.0369224 16.8952023 8.0369224 16.8952023 5.953125 21.125 C4.625 22.75 4.625 22.75 2 25 C1.34 25 0.68 25 0 25 C0 25.66 0 26.32 0 27 C-8.89464594 27.62176166 -8.89464594 27.62176166 -13 25.3125 C-16.87600147 20.8308733 -17.34612772 16.90970668 -17.18359375 11.14453125 C-16.83125953 7.02896764 -15.68232687 4.78894044 -13 1.6875 C-8.67402437 -0.74586129 -4.8529586 -0.92252727 0 0 Z " fill="#F4F4F4" transform="translate(794,412)"/>
<path d="M0 0 C3.28576766 1.76023267 6.30738053 3.61476105 8 7 C9.10437669 19.44790302 9.10437669 19.44790302 5.6875 24.25 C4.800625 24.8275 3.91375 25.405 3 26 C2.01 26.66 1.02 27.32 0 28 C-3.08813214 28.60143397 -5.9146132 28.62790328 -9 28 C-12.47905504 25.48462687 -14.22628575 22.17031978 -15 18 C-15.38608132 13.43384598 -15.54469737 9.34740928 -13.8125 5.0625 C-9.75696838 0.4475847 -6.11568561 -0.84354284 0 0 Z " fill="#F3F3F3" transform="translate(883,411)"/>
<path d="M0 0 C3.18970398 1.73983854 5.44695493 3.44695493 8 6 C8.68398356 11.31280253 9.12219535 17.09763707 6.125 21.75 C5.42375 22.4925 4.7225 23.235 4 24 C3.34 24 2.68 24 2 24 C1.67 24.99 1.34 25.98 1 27 C-4.35491639 27.57374104 -7.08043625 27.36378338 -11.4375 24.0625 C-13.01817713 22.75403341 -14.54956924 21.45043076 -16 20 C-16.07271741 17.64686445 -16.08370868 15.29166332 -16.0625 12.9375 C-16.05347656 11.64714844 -16.04445313 10.35679687 -16.03515625 9.02734375 C-16.02355469 8.02832031 -16.01195312 7.02929688 -16 6 C-15.34 6 -14.68 6 -14 6 C-13.731875 5.38125 -13.46375 4.7625 -13.1875 4.125 C-10.26992292 -1.09592741 -5.27764423 -0.75652238 0 0 Z " fill="#F4F4F4" transform="translate(612,412)"/>
<path d="M0 0 C3.16410011 2.0473589 3.91357023 3.80447015 5.125 7.375 C5.80189877 12.45999566 5.72514124 16.19615114 3.375 20.8125 C-0.02258988 24.68197737 -1.98281056 26.5427805 -7.1875 27.125 C-10.25263226 27.01335611 -11.5740194 26.60897397 -14.015625 24.7109375 C-17.43389003 20.77854318 -19.31637076 17.44887693 -19.5 12.1875 C-19.17655797 8.0280355 -18.30245393 4.84279133 -15.875 1.375 C-10.95005841 -1.69127493 -5.49885397 -1.19540304 0 0 Z " fill="#F4F4F4" transform="translate(301.875,412.625)"/>
<path d="M0 0 C0.66 0 1.32 0 2 0 C1.125 6.875 1.125 6.875 0 8 C0 9.65 0 11.3 0 13 C26.4 13.33 52.8 13.66 80 14 C80 14.33 80 14.66 80 15 C52.94 15 25.88 15 -2 15 C-2 15.66 -2 16.32 -2 17 C27.04 17 56.08 17 86 17 C86 17.33 86 17.66 86 18 C54.65 18 23.3 18 -9 18 C-2 2 -2 2 0 0 Z " fill="#52607C" transform="translate(335,173)"/>
<path d="M0 0 C0.66 0 1.32 0 2 0 C2.98678898 2.85172962 3.96456818 5.70604342 4.9375 8.5625 C5.21529297 9.36236328 5.49308594 10.16222656 5.77929688 10.98632812 C6.18051758 12.1706543 6.18051758 12.1706543 6.58984375 13.37890625 C6.83597412 14.0963501 7.08210449 14.81379395 7.33569336 15.55297852 C8.17341603 18.63879046 8.54780503 21.8346352 9 25 C3.72 25 -1.56 25 -7 25 C-6.5335692 18.93639966 -5.58374156 14.56498182 -3 9 C-1.94229928 6.01833688 -0.96343945 3.01331061 0 0 Z " fill="#EFEFEF" transform="translate(514,402)"/>
<path d="M0 0 C0.33 0.66 0.66 1.32 1 2 C30.37 2 59.74 2 90 2 C90 2.33 90 2.66 90 3 C47.43 3.495 47.43 3.495 4 4 C3.67 4.66 3.34 5.32 3 6 C3.99 7.485 3.99 7.485 5 9 C4.625 11.1875 4.625 11.1875 4 13 C3.67 12.01 3.34 11.02 3 10 C2.05125 10.515625 1.1025 11.03125 0.125 11.5625 C-0.90625 12.036875 -1.9375 12.51125 -3 13 C-3.66 12.67 -4.32 12.34 -5 12 C-4.54738642 10.56068883 -4.08767021 9.12361001 -3.625 7.6875 C-3.24214844 6.48673828 -3.24214844 6.48673828 -2.8515625 5.26171875 C-2 3 -2 3 0 0 Z " fill="#5A6789" transform="translate(376,90)"/>
<path d="M0 0 C3.2542015 2.83430453 4.5206753 4.68607774 5 9 C4.01 8.67 3.02 8.34 2 8 C1.34 8.33 0.68 8.66 0 9 C0.33 7.02 0.66 5.04 1 3 C-30.35 3 -61.7 3 -94 3 C-93.67 2.34 -93.34 1.68 -93 1 C-91.8496376 1.00222061 -90.69927521 1.00444122 -89.51405334 1.00672913 C-78.69799941 1.02695922 -67.8819493 1.0419715 -57.06588078 1.05181217 C-51.50460589 1.05704134 -45.94334621 1.06413958 -40.38208008 1.07543945 C-35.01992581 1.08626715 -29.65778622 1.09227658 -24.29562187 1.09487724 C-22.24499722 1.09673171 -20.1943734 1.10035272 -18.14375496 1.10573006 C-15.28209797 1.11293893 -12.42050243 1.11399101 -9.55883789 1.11352539 C-8.70216522 1.11712067 -7.84549255 1.12071594 -6.96286011 1.12442017 C-3.17490136 1.48793166 -3.17490136 1.48793166 0 0 Z " fill="#5F6E8B" transform="translate(717,188)"/>
<path d="M0 0 C0.68707555 2.49064888 1 4.37886292 1 7 C1.66 7.33 2.32 7.66 3 8 C2.67 8.99 2.34 9.98 2 11 C28.73 11 55.46 11 83 11 C83 11.33 83 11.66 83 12 C54.29 12 25.58 12 -4 12 C-3.16687441 7.00124645 -2.34505694 4.28227788 0 0 Z " fill="#283758" transform="translate(381,80)"/>
<path d="M0 0 C2 3 2 3 3 7 C32.04 7.33 61.08 7.66 91 8 C91 8.33 91 8.66 91 9 C59.65 9 28.3 9 -4 9 C-2.68 6.03 -1.36 3.06 0 0 Z " fill="#5F6E8B" transform="translate(330,182)"/>
<path d="M0 0 C31.68 0 63.36 0 96 0 C96 0.66 96 1.32 96 2 C95.34 2 94.68 2 94 2 C93.67 2.66 93.34 3.32 93 4 C92.505 3.01 92.505 3.01 92 2 C61.31 2 30.62 2 -1 2 C-0.67 1.34 -0.34 0.68 0 0 Z " fill="#5A6B89" transform="translate(526,190)"/>
<path d="M0 0 C0.66 0.33 1.32 0.66 2 1 C2 1.66 2 2.32 2 3 C32.69 3 63.38 3 95 3 C95 3.33 95 3.66 95 4 C62.66 4 30.32 4 -3 4 C-2.01 2.68 -1.02 1.36 0 0 Z " fill="#2B3342" transform="translate(281,285)"/>
<path d="M0 0 C3.125 -0.625 3.125 -0.625 7 0 C9.58480759 3.03577402 11.49869694 6.30727877 13 10 C12.67 10.66 12.34 11.32 12 12 C8.51668565 8.98112756 7.20842856 6.43090471 6 2 C4.35 2 2.7 2 1 2 C1.33 2.66 1.66 3.32 2 4 C2.66 4 3.32 4 4 4 C4 4.99 4 5.98 4 7 C3.01 7 2.02 7 1 7 C0.67 9.64 0.34 12.28 0 15 C-2.97 14.505 -2.97 14.505 -6 14 C-4.50829734 9.0276578 -2.39542583 4.58154261 0 0 Z " fill="#303D5B" transform="translate(421,0)"/>
<path d="M0 0 C-1 2 -2 4 -3 6 C-5.33333333 6.33333333 -7.66666667 6.66666667 -10 7 C-10.33 7.66 -10.66 8.32 -11 9 C-11.66 9 -12.32 9 -13 9 C-13 9.66 -13 10.32 -13 11 C-14.32 11.33 -15.64 11.66 -17 12 C-14.54209543 6.27749398 -9.56355442 2.33750665 -4.125 -0.5 C-2 -1 -2 -1 0 0 Z " fill="#131313" transform="translate(594,393)"/>
<path d="M0 0 C0.33 0.66 0.66 1.32 1 2 C6.63908725 4.47569684 12.11079336 4.96306888 18 3 C18.66 2.67 19.32 2.34 20 2 C19.67 3.65 19.34 5.3 19 7 C17.02 7.33 15.04 7.66 13 8 C13 7.67 13 7.34 13 7 C9.65747276 6.92572162 7.1964086 6.93453047 4 8 C1.8125 7.0625 1.8125 7.0625 0 6 C0 4 0 2 0 0 Z " fill="#363636" transform="translate(41,432)"/>
<path d="M0 0 C1.18771723 3.42943519 0.80226223 5.37784675 -0.4375 8.75 C-0.72496094 9.54921875 -1.01242187 10.3484375 -1.30859375 11.171875 C-1.53675781 11.77515625 -1.76492188 12.3784375 -2 13 C-2.66 13 -3.32 13 -4 13 C-4.33 14.98 -4.66 16.96 -5 19 C-6.32 19.33 -7.64 19.66 -9 20 C-7.55676531 15.26210835 -5.62773267 11.01141849 -3.375 6.625 C-2.88773438 5.66400391 -2.88773438 5.66400391 -2.390625 4.68359375 C-1.59742593 3.12052499 -0.79922969 1.55999378 0 0 Z " fill="#4C596A" transform="translate(549,136)"/>
<path d="M0 0 C1.1700097 3.91736581 0.69584017 6.97959015 0 11 C-0.99 11 -1.98 11 -3 11 C-2.67 12.65 -2.34 14.3 -2 16 C-3.65 16 -5.3 16 -7 16 C-5.35433477 10.31497465 -2.70967216 5.23318364 0 0 Z " fill="#3F4964" transform="translate(397,48)"/>
<path d="M0 0 C-1.44920425 3.38147659 -3.37261655 5.45737085 -6 8 C-7.1490712 9.9254644 -7.1490712 9.9254644 -7 12 C-7.61875 12.144375 -8.2375 12.28875 -8.875 12.4375 C-11.03258322 12.93152225 -11.03258322 12.93152225 -13 14 C-12.67 12.35 -12.34 10.7 -12 9 C-11.34 9 -10.68 9 -10 9 C-9.79375 8.443125 -9.5875 7.88625 -9.375 7.3125 C-7.41177961 4.01072025 -4.06489071 0 0 0 Z " fill="#313131" transform="translate(770,394)"/>
<path d="M0 0 C3.125 -0.625 3.125 -0.625 7 0 C9.58480759 3.03577402 11.49869694 6.30727877 13 10 C12.67 10.66 12.34 11.32 12 12 C8.51668565 8.98112756 7.20842856 6.43090471 6 2 C4.35 2 2.7 2 1 2 C0.67 3.32 0.34 4.64 0 6 C-0.66 6 -1.32 6 -2 6 C-1.34 4.02 -0.68 2.04 0 0 Z " fill="#3F4B65" transform="translate(421,0)"/>
<path d="M0 0 C0.33 0 0.66 0 1 0 C0.74438677 2.3431213 0.40729228 4.67843403 0 7 C-0.99 7.495 -0.99 7.495 -2 8 C-2.22511131 10.02600175 -2.4440878 12.05459276 -2.55859375 14.08984375 C-3 16 -3 16 -6 18 C-6.80572936 15.67578068 -7.14949025 14.4293499 -6.328125 12.0703125 C-5.97234375 11.42835937 -5.6165625 10.78640625 -5.25 10.125 C-4.87875 9.43664063 -4.5075 8.74828125 -4.125 8.0390625 C-3.75375 7.36617187 -3.3825 6.69328125 -3 6 C-2.4225 4.845 -1.845 3.69 -1.25 2.5 C-0.8375 1.675 -0.425 0.85 0 0 Z M-2 9 C-1.34 9.66 -0.68 10.32 0 11 C-0.66 11 -1.32 11 -2 11 C-2 10.34 -2 9.68 -2 9 Z " fill="#828B98" transform="translate(591,52)"/>
<path d="M0 0 C0.33 0 0.66 0 1 0 C0.74438677 2.3431213 0.40729228 4.67843403 0 7 C-0.99 7.495 -0.99 7.495 -2 8 C-2.22511131 10.02600175 -2.4440878 12.05459276 -2.55859375 14.08984375 C-3 16 -3 16 -6 18 C-6.80572936 15.67578068 -7.14949025 14.4293499 -6.328125 12.0703125 C-5.97234375 11.42835937 -5.6165625 10.78640625 -5.25 10.125 C-4.87875 9.43664063 -4.5075 8.74828125 -4.125 8.0390625 C-3.75375 7.36617187 -3.3825 6.69328125 -3 6 C-2.4225 4.845 -1.845 3.69 -1.25 2.5 C-0.8375 1.675 -0.425 0.85 0 0 Z M-2 9 C-1.34 9.66 -0.68 10.32 0 11 C-0.66 11 -1.32 11 -2 11 C-2 10.34 -2 9.68 -2 9 Z " fill="#828B98" transform="translate(607,20)"/>
<path d="M0 0 C0.515625 0.2475 1.03125 0.495 1.5625 0.75 C-0.4375 2.75 -0.4375 2.75 -3.4375 3.75 C-3.6025 4.41 -3.7675 5.07 -3.9375 5.75 C-4.1025 6.41 -4.2675 7.07 -4.4375 7.75 C-7.57099732 8.79449911 -8.42718256 8.68423645 -11.4375 7.75 C-10.40545898 4.53920572 -8.85001338 3.15059709 -6.0625 1.4375 C-2.4375 -0.25 -2.4375 -0.25 0 0 Z " fill="#232323" transform="translate(974.4375,392.25)"/>
<path d="M0 0 C0.66 0.33 1.32 0.66 2 1 C0.97912836 4.06261493 0.47189851 5.05779403 -2 7 C-5.43045321 8.05552406 -7.59605919 7.95397067 -11 7 C-9.73299277 6.0158875 -8.4612381 5.03788503 -7.1875 4.0625 C-6.47980469 3.51722656 -5.77210938 2.97195313 -5.04296875 2.41015625 C-3 1 -3 1 0 0 Z " fill="#2B2B2B" transform="translate(147,392)"/>
<path d="M0 0 C3 3.625 3 3.625 3 7 C2.34 7 1.68 7 1 7 C1 7.99 1 8.98 1 10 C-0.32 10.33 -1.64 10.66 -3 11 C-3.75 8.875 -3.75 8.875 -4 6 C-2.0625 2.6875 -2.0625 2.6875 0 0 Z " fill="#293B54" transform="translate(572,93)"/>
<path d="M0 0 C0.33 0 0.66 0 1 0 C2.125 6.75 2.125 6.75 1 9 C0.01 9 -0.98 9 -2 9 C-1.67 10.65 -1.34 12.3 -1 14 C-2.65 14 -4.3 14 -6 14 C-4.50829734 9.0276578 -2.39542583 4.58154261 0 0 Z " fill="#3D4863" transform="translate(412,18)"/>
<path d="M0 0 C0.68707555 2.49064888 1 4.37886292 1 7 C1.66 7.33 2.32 7.66 3 8 C2.67 9.32 2.34 10.64 2 12 C0.02 12 -1.96 12 -4 12 C-3.45660208 7.43545749 -2.20536179 4.0271824 0 0 Z " fill="#35435C" transform="translate(381,80)"/>
<path d="M0 0 C2.97 0.495 2.97 0.495 6 1 C6 1.66 6 2.32 6 3 C6.66 3 7.32 3 8 3 C10.29648649 5.5614657 11 6.47967572 11 10 C6.56156561 8.60506348 4.0565036 6.48101799 1 3 C0.67 2.01 0.34 1.02 0 0 Z " fill="#262626" transform="translate(759,446)"/>
<path d="M0 0 C1.6077072 4.01926801 0.34539351 7.03462964 -1 11 C-1.62469505 12.35350594 -2.2716331 13.69934483 -3 15 C-3.99 15 -4.98 15 -6 15 C-3.10933941 4.44191344 -3.10933941 4.44191344 0 0 Z " fill="#D9DFE6" transform="translate(399,241)"/>
<path d="M0 0 C1.2065625 0.0309375 1.2065625 0.0309375 2.4375 0.0625 C2.4375 0.3925 2.4375 0.7225 2.4375 1.0625 C5.7375 1.0625 9.0375 1.0625 12.4375 1.0625 C13.0975 2.7125 13.7575 4.3625 14.4375 6.0625 C13.880625 5.73765625 13.32375 5.4128125 12.75 5.078125 C10.12721657 3.92622687 8.29003627 3.79510649 5.4375 3.8125 C4.591875 3.80734375 3.74625 3.8021875 2.875 3.796875 C0.30271189 4.07718845 -1.3428108 4.7676813 -3.5625 6.0625 C-3.605221 4.39638095 -3.60313832 2.72867115 -3.5625 1.0625 C-2.5625 0.0625 -2.5625 0.0625 0 0 Z " fill="#1C1C1C" transform="translate(783.5625,408.9375)"/>
<path d="M0 0 C2.29158942 2.89818662 4.07862366 5.83140544 5.75 9.125 C6.19859375 9.99382812 6.6471875 10.86265625 7.109375 11.7578125 C7.40328125 12.49773437 7.6971875 13.23765625 8 14 C7.67 14.66 7.34 15.32 7 16 C6.01 16 5.02 16 4 16 C4.33 14.35 4.66 12.7 5 11 C4.01 11.33 3.02 11.66 2 12 C2.33 10.68 2.66 9.36 3 8 C2.34 8 1.68 8 1 8 C0.67 5.36 0.34 2.72 0 0 Z " fill="#71798A" transform="translate(504,153)"/>
<path d="M0 0 C2.29158942 2.89818662 4.07862366 5.83140544 5.75 9.125 C6.19859375 9.99382812 6.6471875 10.86265625 7.109375 11.7578125 C7.40328125 12.49773437 7.6971875 13.23765625 8 14 C7.67 14.66 7.34 15.32 7 16 C6.01 16 5.02 16 4 16 C4.33 14.35 4.66 12.7 5 11 C4.01 11.33 3.02 11.66 2 12 C2.33 10.68 2.66 9.36 3 8 C2.34 8 1.68 8 1 8 C0.67 5.36 0.34 2.72 0 0 Z " fill="#71798A" transform="translate(488,121)"/>
<path d="M0 0 C1.53674273 2.99004241 2.90306293 6.01823885 4.1875 9.125 C4.55230469 9.99382812 4.91710937 10.86265625 5.29296875 11.7578125 C6 14 6 14 5 16 C4.401875 15.05125 3.80375 14.1025 3.1875 13.125 C1.18437474 9.86035803 1.18437474 9.86035803 -2 8 C-1.33333333 5.33333333 -0.66666667 2.66666667 0 0 Z " fill="#303030" transform="translate(531,382)"/>
<path d="M0 0 C0.66 0 1.32 0 2 0 C4 3 4 3 3.625 5.1875 C3.41875 5.785625 3.2125 6.38375 3 7 C2.67 6.01 2.34 5.02 2 4 C1.05125 4.515625 0.1025 5.03125 -0.875 5.5625 C-1.90625 6.036875 -2.9375 6.51125 -4 7 C-4.66 6.67 -5.32 6.34 -6 6 C-5.67 4.68 -5.34 3.36 -5 2 C-3.35 2 -1.7 2 0 2 C0 1.34 0 0.68 0 0 Z " fill="#586781" transform="translate(377,96)"/>
<path d="M0 0 C1.33333333 1.33333333 2.66666667 2.66666667 4 4 C4.33 3.34 4.66 2.68 5 2 C5.66 3.98 6.32 5.96 7 8 C6.01 8.99 5.02 9.98 4 11 C3.67 10.34 3.34 9.68 3 9 C2.34 9.66 1.68 10.32 1 11 C1.020625 10.113125 1.04125 9.22625 1.0625 8.3125 C1.00713781 5.37830369 0.6694266 2.84506304 0 0 Z " fill="#394563" transform="translate(450,51)"/>
<path d="M0 0 C1.33333333 1.33333333 2.66666667 2.66666667 4 4 C4.33 3.34 4.66 2.68 5 2 C5.66 3.98 6.32 5.96 7 8 C6.01 8.99 5.02 9.98 4 11 C3.67 10.34 3.34 9.68 3 9 C2.34 9.66 1.68 10.32 1 11 C1.020625 10.113125 1.04125 9.22625 1.0625 8.3125 C1.00713781 5.37830369 0.6694266 2.84506304 0 0 Z " fill="#394563" transform="translate(434,19)"/>
<path d="M0 0 C2.97 0.495 2.97 0.495 6 1 C4.125 5.75 4.125 5.75 3 8 C2.01 8 1.02 8 0 8 C0 7.34 0 6.68 0 6 C-0.66 5.67 -1.32 5.34 -2 5 C-1.34 3.35 -0.68 1.7 0 0 Z M0 4 C1 6 1 6 1 6 Z " fill="#EFF4F5" transform="translate(323,184)"/>
<path d="M0 0 C1.37432457 3.81756824 0.67975039 7.07255329 0 11 C-0.99 11.33 -1.98 11.66 -3 12 C-4.12668965 8.61993106 -3.89636912 8.0359269 -2.625 4.875 C-2.34914063 4.17117187 -2.07328125 3.46734375 -1.7890625 2.7421875 C-1 1 -1 1 0 0 Z " fill="#3E4C63" transform="translate(559,117)"/>
<path d="M0 0 C2.95183101 2.95183101 3.08663988 5.95511947 4 10 C4.66 10 5.32 10 6 10 C6.66 11.98 7.32 13.96 8 16 C7.01 15.34 6.02 14.68 5 14 C5 13.34 5 12.68 5 12 C4.34 12 3.68 12 3 12 C2.71125 11.360625 2.4225 10.72125 2.125 10.0625 C1.17176549 7.84793921 1.17176549 7.84793921 -1 7 C-0.67 4.69 -0.34 2.38 0 0 Z " fill="#4B546A" transform="translate(458,60)"/>
<path d="M0 0 C2.95183101 2.95183101 3.08663988 5.95511947 4 10 C4.66 10 5.32 10 6 10 C6.66 11.98 7.32 13.96 8 16 C7.01 15.34 6.02 14.68 5 14 C5 13.34 5 12.68 5 12 C4.34 12 3.68 12 3 12 C2.71125 11.360625 2.4225 10.72125 2.125 10.0625 C1.17176549 7.84793921 1.17176549 7.84793921 -1 7 C-0.67 4.69 -0.34 2.38 0 0 Z " fill="#4B546A" transform="translate(442,28)"/>
<path d="M0 0 C0.625 1.8125 0.625 1.8125 1 4 C0.01 5.485 0.01 5.485 -1 7 C-0.67 7.99 -0.34 8.98 0 10 C-1.375 11.5 -1.375 11.5 -3 13 C-3.66 13 -4.32 13 -5 13 C-4.54803755 11.39402675 -4.08817673 9.79027492 -3.625 8.1875 C-3.36976563 7.29417969 -3.11453125 6.40085937 -2.8515625 5.48046875 C-2 3 -2 3 0 0 Z " fill="#D3D9E1" transform="translate(383,273)"/>
<path d="M0 0 C0.66 0.99 1.32 1.98 2 3 C1.00631858 7.57093452 -0.93022144 10.52091763 -4 14 C-3.67 11.03 -3.34 8.06 -3 5 C-2.01 4.67 -1.02 4.34 0 4 C0 2.68 0 1.36 0 0 Z " fill="#586576" transform="translate(582,261)"/>
<path d="M0 0 C0.66 0.99 1.32 1.98 2 3 C1.00631858 7.57093452 -0.93022144 10.52091763 -4 14 C-3.67 11.03 -3.34 8.06 -3 5 C-2.01 4.67 -1.02 4.34 0 4 C0 2.68 0 1.36 0 0 Z " fill="#586576" transform="translate(598,229)"/>
<path d="M0 0 C0.433125 0.9590625 0.433125 0.9590625 0.875 1.9375 C1.82823451 4.15206079 1.82823451 4.15206079 4 5 C3.38722388 7.96175123 2.74627478 9.38058783 1 12 C0.44191911 10.56879256 -0.09596462 9.12969645 -0.625 7.6875 C-0.92664063 6.88699219 -1.22828125 6.08648437 -1.5390625 5.26171875 C-1.69117188 4.51535156 -1.84328125 3.76898438 -2 3 C-1.34 2.01 -0.68 1.02 0 0 Z " fill="#4A586F" transform="translate(500,148)"/>
<path d="M0 0 C0.433125 0.9590625 0.433125 0.9590625 0.875 1.9375 C1.82823451 4.15206079 1.82823451 4.15206079 4 5 C3.38722388 7.96175123 2.74627478 9.38058783 1 12 C0.44191911 10.56879256 -0.09596462 9.12969645 -0.625 7.6875 C-0.92664063 6.88699219 -1.22828125 6.08648437 -1.5390625 5.26171875 C-1.69117188 4.51535156 -1.84328125 3.76898438 -2 3 C-1.34 2.01 -0.68 1.02 0 0 Z " fill="#4A586F" transform="translate(484,116)"/>
<path d="M0 0 C0.99 0.33 1.98 0.66 3 1 C0.25 7.75 0.25 7.75 -2 10 C-2.33 7.36 -2.66 4.72 -3 2 C-2.01 1.34 -1.02 0.68 0 0 Z " fill="#5B6176" transform="translate(588,249)"/>
<path d="M0 0 C0.99 0.33 1.98 0.66 3 1 C0.25 7.75 0.25 7.75 -2 10 C-2.33 7.36 -2.66 4.72 -3 2 C-2.01 1.34 -1.02 0.68 0 0 Z " fill="#5B6176" transform="translate(604,217)"/>
<path d="M0 0 C1.5625 1.25 1.5625 1.25 3 3 C2.8125 5.125 2.8125 5.125 2 7 C1.01 7.495 1.01 7.495 0 8 C-0.66 7.67 -1.32 7.34 -2 7 C-2.12375 7.639375 -2.2475 8.27875 -2.375 8.9375 C-2.58125 9.618125 -2.7875 10.29875 -3 11 C-3.99 11.495 -3.99 11.495 -5 12 C-3.68938409 7.76570244 -2.05643741 3.92592596 0 0 Z " fill="#505C71" transform="translate(565,104)"/>
<path d="M0 0 C1.88391785 3.26545761 2.49287967 6.28111761 3 10 C2.34 10 1.68 10 1 10 C0.67 9.34 0.34 8.68 0 8 C-1.98 8.99 -1.98 8.99 -4 10 C-2.66666667 6.66666667 -1.33333333 3.33333333 0 0 Z " fill="#3A4358" transform="translate(282,278)"/>
<path d="M0 0 C2 1 2 1 3.1875 4.375 C4 8 4 8 3 11 C2.34 11 1.68 11 1 11 C0 8 -1 5 -2 2 C-1.34 2 -0.68 2 0 2 C0 1.34 0 0.68 0 0 Z " fill="#667084" transform="translate(722,197)"/>
<path d="M0 0 C2.15377564 2.62198774 3.40072174 4.64404172 4 8 C2.68 8.33 1.36 8.66 0 9 C-0.33 8.01 -0.66 7.02 -1 6 C-1.66 6.66 -2.32 7.32 -3 8 C-2.25 2.25 -2.25 2.25 0 0 Z " fill="#637087" transform="translate(758,269)"/>
<path d="M0 0 C0.33 0 0.66 0 1 0 C2.35384615 6.27692308 2.35384615 6.27692308 0.5625 9.9375 C-0.2109375 10.9584375 -0.2109375 10.9584375 -1 12 C-2.1875 10.5 -2.1875 10.5 -3 8 C-2.27101296 5.21175762 -1.1843275 2.62334908 0 0 Z " fill="#DCE2E7" transform="translate(389,260)"/>
<path d="M0 0 C0.66 1.32 1.32 2.64 2 4 C2.33 3.67 2.66 3.34 3 3 C4.04449911 6.13349732 3.93423645 6.98968256 3 10 C2.67 8.68 2.34 7.36 2 6 C0.68 6 -0.64 6 -2 6 C-1.34 4.02 -0.68 2.04 0 0 Z " fill="#354361" transform="translate(298,246)"/>
<path d="M0 0 C0.33 0 0.66 0 1 0 C2.35384615 6.27692308 2.35384615 6.27692308 0.5625 9.9375 C-0.2109375 10.9584375 -0.2109375 10.9584375 -1 12 C-2.1875 10.5 -2.1875 10.5 -3 8 C-2.27101296 5.21175762 -1.1843275 2.62334908 0 0 Z " fill="#DCE2E7" transform="translate(405,228)"/>
<path d="M0 0 C0.66 1.32 1.32 2.64 2 4 C2.33 3.67 2.66 3.34 3 3 C4.04449911 6.13349732 3.93423645 6.98968256 3 10 C2.67 8.68 2.34 7.36 2 6 C0.68 6 -0.64 6 -2 6 C-1.34 4.02 -0.68 2.04 0 0 Z " fill="#354361" transform="translate(314,214)"/>
<path d="M0 0 C3 3.75 3 3.75 3 6 C1.68 6.33 0.36 6.66 -1 7 C-1.33 6.34 -1.66 5.68 -2 5 C-2.99 5.495 -2.99 5.495 -4 6 C-4.33 4.35 -4.66 2.7 -5 1 C-3.35 0.67 -1.7 0.34 0 0 Z " fill="#5E6B83" transform="translate(671,95)"/>
<path d="M0 0 C0.33 0 0.66 0 1 0 C1 2.64 1 5.28 1 8 C1.66 8 2.32 8 3 8 C3 9.32 3 10.64 3 12 C0 14.25 0 14.25 -3 16 C-2.68289063 15.46890625 -2.36578125 14.9378125 -2.0390625 14.390625 C-0.7629651 11.45464152 -0.58292979 8.93825671 -0.375 5.75 C-0.30023437 4.67234375 -0.22546875 3.5946875 -0.1484375 2.484375 C-0.09945312 1.66453125 -0.05046875 0.8446875 0 0 Z " fill="#323232" transform="translate(891,420)"/>
<path d="M0 0 C0.66 0.33 1.32 0.66 2 1 C1.49380917 4.74581214 0.84235245 6.51294161 -2 9 C-2.33 9.66 -2.66 10.32 -3 11 C-3.66 11 -4.32 11 -5 11 C-3.55049545 7.2089881 -1.84827434 3.6125362 0 0 Z " fill="#666C7F" transform="translate(352,139)"/>
<path d="M0 0 C0.99 0.33 1.98 0.66 3 1 C2.67 3.31 2.34 5.62 2 8 C1.67 7.34 1.34 6.68 1 6 C0.01 6 -0.98 6 -2 6 C-2.33 7.32 -2.66 8.64 -3 10 C-3.33 9.34 -3.66 8.68 -4 8 C-3.22265625 6.0546875 -3.22265625 6.0546875 -2.0625 3.875 C-1.49208984 2.78832031 -1.49208984 2.78832031 -0.91015625 1.6796875 C-0.60980469 1.12539062 -0.30945313 0.57109375 0 0 Z " fill="#212E48" transform="translate(563,111)"/>
<path d="M0 0 C3 1 3 1 4.75 3.9375 C5.1625 4.948125 5.575 5.95875 6 7 C5.67 7.66 5.34 8.32 5 9 C2.525 8.01 2.525 8.01 0 7 C0 4.69 0 2.38 0 0 Z " fill="#89909E" transform="translate(664,84)"/>
<path d="M0 0 C0.99 0.33 1.98 0.66 3 1 C2.25 6.75 2.25 6.75 0 9 C-0.33 8.34 -0.66 7.68 -1 7 C-1.66 6.67 -2.32 6.34 -3 6 C-2.01 4.02 -1.02 2.04 0 0 Z " fill="#37455C" transform="translate(385,261)"/>
<path d="M0 0 C0.99 0.33 1.98 0.66 3 1 C2.25 6.75 2.25 6.75 0 9 C-0.33 8.34 -0.66 7.68 -1 7 C-1.66 6.67 -2.32 6.34 -3 6 C-2.01 4.02 -1.02 2.04 0 0 Z " fill="#37455C" transform="translate(401,229)"/>
<path d="M0 0 C2.15377564 2.62198774 3.40072174 4.64404172 4 8 C2.68 8.33 1.36 8.66 0 9 C-0.33 8.34 -0.66 7.68 -1 7 C-1.99 7.495 -1.99 7.495 -3 8 C-2.37240135 5.07120629 -1.41377341 2.63904371 0 0 Z " fill="#657187" transform="translate(734,221)"/>
<path d="M0 0 C0.66 0 1.32 0 2 0 C5 4.38461538 5 4.38461538 5 7 C4.34 7 3.68 7 3 7 C2.34 6.34 1.68 5.68 1 5 C0.34 5 -0.32 5 -1 5 C-1.66 5.99 -2.32 6.98 -3 8 C-2.45276317 4.62537285 -1.9451 2.91765 0 0 Z " fill="#D0D6DE" transform="translate(424,192)"/>
<path d="M0 0 C2.29013653 3.4352048 2.17842973 4.985331 2 9 C0.02 9 -1.96 9 -4 9 C-2.68 6.03 -1.36 3.06 0 0 Z " fill="#647081" transform="translate(330,182)"/>
<path d="M0 0 C1.04449911 3.13349732 0.93423645 3.98968256 0 7 C2.64 7 5.28 7 8 7 C8 7.33 8 7.66 8 8 C4.37 8 0.74 8 -3 8 C-2 3 -2 3 0 0 Z " fill="#212D4A" transform="translate(528,181)"/>
<path d="M0 0 C0 1.66666667 0 3.33333333 0 5 C-1.98 5.33 -3.96 5.66 -6 6 C-6 5.67 -6 5.34 -6 5 C-8.97 4.505 -8.97 4.505 -12 4 C-12 3.67 -12 3.34 -12 3 C-11.30132812 2.86722656 -10.60265625 2.73445313 -9.8828125 2.59765625 C-8.51769531 2.33275391 -8.51769531 2.33275391 -7.125 2.0625 C-6.22007813 1.88847656 -5.31515625 1.71445312 -4.3828125 1.53515625 C-2.00043683 1.10036299 -2.00043683 1.10036299 0 0 Z " fill="#2C2C2C" transform="translate(60,434)"/>
<path d="M0 0 C0.66 0.33 1.32 0.66 2 1 C1.2884375 1.6496875 1.2884375 1.6496875 0.5625 2.3125 C-1.23686957 4.02309613 -1.23686957 4.02309613 -2 7 C-2.66 7 -3.32 7 -4 7 C-4 7.66 -4 8.32 -4 9 C-5.32 9.33 -6.64 9.66 -8 10 C-6.34908222 5.70761377 -3.26245434 3.1206085 0 0 Z " fill="#383838" transform="translate(585,395)"/>
<path d="M0 0 C0.66 0.66 1.32 1.32 2 2 C1.625 5.125 1.625 5.125 1 8 C-0.32 8 -1.64 8 -3 8 C-1.125 2.25 -1.125 2.25 0 0 Z " fill="#6B738A" transform="translate(376,90)"/>
<path d="M0 0 C0.33 1.32 0.66 2.64 1 4 C1.33 3.67 1.66 3.34 2 3 C2.33 3.99 2.66 4.98 3 6 C1.5625 8.1875 1.5625 8.1875 0 10 C0 9.34 0 8.68 0 8 C-0.66 8 -1.32 8 -2 8 C-1.125 2.25 -1.125 2.25 0 0 Z " fill="#363636" transform="translate(756,408)"/>
<path d="M0 0 C-1.32927141 3.98781424 -3.60926422 5.66886915 -7 8 C-7.66 8 -8.32 8 -9 8 C-9 7.34 -9 6.68 -9 6 C-8.34 6 -7.68 6 -7 6 C-6.67 5.01 -6.34 4.02 -6 3 C-5.34 3 -4.68 3 -4 3 C-4 2.34 -4 1.68 -4 1 C-2 0 -2 0 0 0 Z " fill="#373737" transform="translate(860,394)"/>
<path d="M0 0 C0.33 0 0.66 0 1 0 C1.6875 3.3125 1.6875 3.3125 2 7 C0.6875 8.9375 0.6875 8.9375 -1 10 C-1.66 10 -2.32 10 -3 10 C-2.01 6.7 -1.02 3.4 0 0 Z " fill="#D9DEE4" transform="translate(413,212)"/>
<path d="M0 0 C0.33 0.99 0.66 1.98 1 3 C1.66 3 2.32 3 3 3 C3.33 4.98 3.66 6.96 4 9 C3.01 9 2.02 9 1 9 C0.01 6.36 -0.98 3.72 -2 1 C-1.34 0.67 -0.68 0.34 0 0 Z " fill="#576683" transform="translate(419,177)"/>
<path d="M0 0 C2.64465038 3.1254959 3.84414715 6.08788267 5 10 C3.68 10 2.36 10 1 10 C1.33 8.35 1.66 6.7 2 5 C1.01 5.33 0.02 5.66 -1 6 C-0.67 4.02 -0.34 2.04 0 0 Z " fill="#737A8C" transform="translate(475,95)"/>
<path d="M0 0 C-0.33 0.99 -0.66 1.98 -1 3 C-1.66 3 -2.32 3 -3 3 C-4.66965451 3.31802943 -6.33678518 3.64984951 -8 4 C-7.1875 2.0625 -7.1875 2.0625 -6 0 C-3 -1 -3 -1 0 0 Z " fill="#0F0F0F" transform="translate(584,404)"/>
<path d="M0 0 C3 0 3 0 5 1 C4.34 2.32 3.68 3.64 3 5 C2.34 5 1.68 5 1 5 C0.34 5.99 -0.32 6.98 -1 8 C-1.04241723 5.66705225 -1.04092937 3.33297433 -1 1 C-0.67 0.67 -0.34 0.34 0 0 Z " fill="#272727" transform="translate(195,397)"/>
<path d="M0 0 C0 1.32 0 2.64 0 4 C-1.9375 3.625 -1.9375 3.625 -4 3 C-4.33 2.34 -4.66 1.68 -5 1 C-5.99 0.34 -6.98 -0.32 -8 -1 C-4.37673261 -2.2077558 -3.35853631 -1.54311128 0 0 Z " fill="#111111" transform="translate(725,396)"/>
<path d="M0 0 C1.4606285 2.64738916 2 3.89448334 2 7 C1.67 7.66 1.34 8.32 1 9 C-0.32 8.67 -1.64 8.34 -3 8 C-1.125 2.25 -1.125 2.25 0 0 Z " fill="#39475D" transform="translate(290,262)"/>
<path d="M0 0 C0.66 1.32 1.32 2.64 2 4 C2.33 3.67 2.66 3.34 3 3 C3.33 3.99 3.66 4.98 4 6 C3.01 7.485 3.01 7.485 2 9 C1.67 8.34 1.34 7.68 1 7 C0.01 6.34 -0.98 5.68 -2 5 C-1.34 3.35 -0.68 1.7 0 0 Z " fill="#35425C" transform="translate(306,230)"/>
<path d="M0 0 C0.66 0.33 1.32 0.66 2 1 C0.625 2.5 0.625 2.5 -1 4 C-1.66 4 -2.32 4 -3 4 C-3.99 5.485 -3.99 5.485 -5 7 C-5.66 7 -6.32 7 -7 7 C-6.875 5.1875 -6.875 5.1875 -6 3 C-3.0625 1.1875 -3.0625 1.1875 0 0 Z " fill="#313131" transform="translate(388,392)"/>
<path d="M0 0 C0.66 0.33 1.32 0.66 2 1 C0.25 6.75 0.25 6.75 -2 9 C-3.21185923 5.36442231 -2.59260392 4.36216382 -1 1 C-0.67 0.67 -0.34 0.34 0 0 Z " fill="#EAF1F7" transform="translate(283,271)"/>
<path d="M0 0 C0.66 0.66 1.32 1.32 2 2 C2.66 1.67 3.32 1.34 4 1 C3.74438677 3.3431213 3.40729228 5.67843403 3 8 C2.01 8.495 2.01 8.495 1 9 C1 8.01 1 7.02 1 6 C0.34 5.67 -0.32 5.34 -1 5 C-0.67 3.35 -0.34 1.7 0 0 Z " fill="#1B2C4E" transform="translate(300,245)"/>
<path d="M0 0 C0.66 0.66 1.32 1.32 2 2 C2.66 1.67 3.32 1.34 4 1 C3.74438677 3.3431213 3.40729228 5.67843403 3 8 C2.01 8.495 2.01 8.495 1 9 C1 8.01 1 7.02 1 6 C0.34 5.67 -0.32 5.34 -1 5 C-0.67 3.35 -0.34 1.7 0 0 Z " fill="#1B2C4E" transform="translate(316,213)"/>
<path d="M0 0 C0.66 0.99 1.32 1.98 2 3 C1.67 3.99 1.34 4.98 1 6 C1 6.99 1 7.98 1 9 C-0.32 8.67 -1.64 8.34 -3 8 C-1.125 2.25 -1.125 2.25 0 0 Z " fill="#3A4760" transform="translate(322,198)"/>
<path d="M0 0 C1.39195915 4.17587745 -0.17676781 6.13474776 -2 10 C-4 7 -4 7 -4 5 C-3.34 5 -2.68 5 -2 5 C-2 3.68 -2 2.36 -2 1 C-1.34 0.67 -0.68 0.34 0 0 Z " fill="#586477" transform="translate(616,196)"/>
<path d="M0 0 C0.66 0 1.32 0 2 0 C5.11450382 4.15267176 5.11450382 4.15267176 4.6875 7.3125 C4.460625 7.869375 4.23375 8.42625 4 9 C0 3.375 0 3.375 0 0 Z " fill="#4D5B6D" transform="translate(712,181)"/>
<path d="M0 0 C0.66 0 1.32 0 2 0 C1.67 2.31 1.34 4.62 1 7 C0.01 7 -0.98 7 -2 7 C-2.33 6.34 -2.66 5.68 -3 5 C-1.6875 2.375 -1.6875 2.375 0 0 Z " fill="#6D7384" transform="translate(335,173)"/>
<path d="M0 0 C0.97687451 3.03916514 1.105817 4.98413546 0 8 C-0.66 8.66 -1.32 9.32 -2 10 C-3.39195915 5.82412255 -1.82323219 3.86525224 0 0 Z " fill="#99A1B2" transform="translate(611,11)"/>
<path d="M0 0 C2.5 1.8125 2.5 1.8125 5 4 C5 4.99 5 5.98 5 7 C2.11562221 5.70700306 0.12780579 4.34058637 -2 2 C-1.34 2 -0.68 2 0 2 C0 1.34 0 0.68 0 0 Z " fill="#1F1F1F" transform="translate(271,449)"/>
<path d="M0 0 C2.97 1.98 2.97 1.98 6 4 C4.02 4.99 4.02 4.99 2 6 C1.01 5.01 0.02 4.02 -1 3 C-0.67 2.01 -0.34 1.02 0 0 Z " fill="#151515" transform="translate(993,394)"/>
<path d="M0 0 C0.66 0.33 1.32 0.66 2 1 C2.625 3.5625 2.625 3.5625 3 6 C2.01 6.33 1.02 6.66 0 7 C-0.66 6.34 -1.32 5.68 -2 5 C-1 2 -1 2 0 0 Z " fill="#DDDEE5" transform="translate(658,266)"/>
<path d="M0 0 C0.66 0.99 1.32 1.98 2 3 C1.125 6.1875 1.125 6.1875 0 9 C-0.99 8.67 -1.98 8.34 -3 8 C-1.125 2.25 -1.125 2.25 0 0 Z " fill="#646E80" transform="translate(346,150)"/>
<path d="M0 0 C1.27351308 2.54702616 0.80191925 3.4282945 0.0625 6.125 C-0.13214844 6.84945312 -0.32679688 7.57390625 -0.52734375 8.3203125 C-0.68332031 8.87460938 -0.83929688 9.42890625 -1 10 C-1.99 10 -2.98 10 -4 10 C-3.52449439 8.51965236 -3.04448784 7.04074979 -2.5625 5.5625 C-2.29566406 4.73878906 -2.02882813 3.91507812 -1.75390625 3.06640625 C-1 1 -1 1 0 0 Z " fill="#757E8E" transform="translate(359,124)"/>
<path d="M0 0 C0.96516243 3.00272755 1.22393475 5.04215769 0 8 C-0.99 8.33 -1.98 8.66 -3 9 C-1.125 2.25 -1.125 2.25 0 0 Z " fill="#9BA3B0" transform="translate(579,75)"/>
<path d="M0 0 C1.32 0.66 2.64 1.32 4 2 C3.67 3.65 3.34 5.3 3 7 C1.35 6.67 -0.3 6.34 -2 6 C-1.34 4.02 -0.68 2.04 0 0 Z " fill="#1D2C48" transform="translate(388,69)"/>
<path d="M0 0 C0.96516243 3.00272755 1.22393475 5.04215769 0 8 C-0.99 8.33 -1.98 8.66 -3 9 C-1.125 2.25 -1.125 2.25 0 0 Z " fill="#9AA2B3" transform="translate(595,43)"/>
<path d="M0 0 C1.32 0.66 2.64 1.32 4 2 C3.67 3.65 3.34 5.3 3 7 C1.35 6.67 -0.3 6.34 -2 6 C-1.34 4.02 -0.68 2.04 0 0 Z " fill="#1D2C48" transform="translate(404,37)"/>
<path d="M0 0 C0.33 0.99 0.66 1.98 1 3 C-0.75 5.0625 -0.75 5.0625 -3 7 C-4.32 6.67 -5.64 6.34 -7 6 C-4.69 4.02 -2.38 2.04 0 0 Z " fill="#C6C6C6" transform="translate(800,450)"/>
<path d="M0 0 C0.66 0 1.32 0 2 0 C2.33 1.32 2.66 2.64 3 4 C2.01 4.495 2.01 4.495 1 5 C0.34 5.99 -0.32 6.98 -1 8 C-1.33 6.02 -1.66 4.04 -2 2 C-1.34 2 -0.68 2 0 2 C0 1.34 0 0.68 0 0 Z " fill="#1E1E1E" transform="translate(523,416)"/>
<path d="M0 0 C0.99 0.33 1.98 0.66 3 1 C2.34 1 1.68 1 1 1 C1 1.99 1 2.98 1 4 C1.66 4 2.32 4 3 4 C3 4.99 3 5.98 3 7 C2.34 7 1.68 7 1 7 C0.67 7.99 0.34 8.98 0 10 C-1.6415049 6.7169902 -0.51888624 3.57454967 0 0 Z " fill="#101010" transform="translate(892,392)"/>
<path d="M0 0 C-1.25 2 -1.25 2 -3 4 C-7 4 -7 4 -9 3 C-6.38220849 -0.01046024 -3.86655673 -1.93327837 0 0 Z " fill="#353535" transform="translate(145,396)"/>
<path d="M0 0 C1.67542976 0.28604898 3.34385343 0.61781233 5 1 C5.33 2.65 5.66 4.3 6 6 C3.11424181 5.60196439 2.17810487 5.20990931 0.25 2.9375 C-0.1625 2.298125 -0.575 1.65875 -1 1 C-0.67 0.67 -0.34 0.34 0 0 Z " fill="#0E0E0E" transform="translate(791,394)"/>
<path d="M0 0 C0.66 0.66 1.32 1.32 2 2 C1.625 5.625 1.625 5.625 1 9 C0.34 8.01 -0.32 7.02 -1 6 C-1.66 6.66 -2.32 7.32 -3 8 C-2.37240135 5.07120629 -1.41377341 2.63904371 0 0 Z " fill="#5E6D83" transform="translate(742,237)"/>
<path d="M0 0 C0.99 0.33 1.98 0.66 3 1 C2.25 3.4375 2.25 3.4375 1 6 C-1.125 6.8125 -1.125 6.8125 -3 7 C-1.125 2.25 -1.125 2.25 0 0 Z " fill="#EAEFF2" transform="translate(420,200)"/>
<path d="M0 0 C0.33 0.66 0.66 1.32 1 2 C1.99 2 2.98 2 4 2 C3.34 3.32 2.68 4.64 2 6 C0.68 5.67 -0.64 5.34 -2 5 C-1.34 3.35 -0.68 1.7 0 0 Z " fill="#687287" transform="translate(338,166)"/>
<path d="M0 0 C0.66 0.66 1.32 1.32 2 2 C1.625 5.625 1.625 5.625 1 9 C0.34 8.01 -0.32 7.02 -1 6 C-1.66 6.66 -2.32 7.32 -3 8 C-2.37240135 5.07120629 -1.41377341 2.63904371 0 0 Z " fill="#5E6D83" transform="translate(694,141)"/>
<path d="M0 0 C0.66 0.66 1.32 1.32 2 2 C1.625 5.625 1.625 5.625 1 9 C0.34 8.01 -0.32 7.02 -1 6 C-1.66 6.66 -2.32 7.32 -3 8 C-2.37240135 5.07120629 -1.41377341 2.63904371 0 0 Z " fill="#5E6D83" transform="translate(678,109)"/>
<path d="M0 0 C0.33 0 0.66 0 1 0 C0.75 3.375 0.75 3.375 0 7 C-2.0625 8.4375 -2.0625 8.4375 -4 9 C-2.94124926 5.59687262 -1.99097846 2.98646769 0 0 Z " fill="#9AA0AB" transform="translate(591,52)"/>
<path d="M0 0 C0.33 0 0.66 0 1 0 C0.75 3.375 0.75 3.375 0 7 C-2.0625 8.4375 -2.0625 8.4375 -4 9 C-2.94124926 5.59687262 -1.99097846 2.98646769 0 0 Z " fill="#9AA0AB" transform="translate(607,20)"/>
<path d="M0 0 C0.39832031 0.50144531 0.79664063 1.00289063 1.20703125 1.51953125 C0.87703125 2.17953125 0.54703125 2.83953125 0.20703125 3.51953125 C-0.78296875 2.85953125 -1.77296875 2.19953125 -2.79296875 1.51953125 C-4.84217815 1.06813666 -4.84217815 1.06813666 -6.98046875 0.89453125 C-8.23859375 0.77078125 -9.49671875 0.64703125 -10.79296875 0.51953125 C-10.79296875 0.18953125 -10.79296875 -0.14046875 -10.79296875 -0.48046875 C-9.35886507 -0.7300088 -7.92036803 -0.95439517 -6.48046875 -1.16796875 C-5.67996094 -1.29558594 -4.87945313 -1.42320312 -4.0546875 -1.5546875 C-1.79296875 -1.48046875 -1.79296875 -1.48046875 0 0 Z " fill="#515151" transform="translate(796.79296875,411.48046875)"/>
<path d="M0 0 C0.66 0.66 1.32 1.32 2 2 C2.66 1.67 3.32 1.34 4 1 C3.67 2.98 3.34 4.96 3 7 C1.68 6.34 0.36 5.68 -1 5 C-0.67 3.35 -0.34 1.7 0 0 Z " fill="#1C2C50" transform="translate(284,277)"/>
<path d="M0 0 C0.66 0.66 1.32 1.32 2 2 C2.66 1.67 3.32 1.34 4 1 C3.67 2.98 3.34 4.96 3 7 C1.68 6.34 0.36 5.68 -1 5 C-0.67 3.35 -0.34 1.7 0 0 Z " fill="#1D2C49" transform="translate(292,261)"/>
<path d="M0 0 C0.33 0 0.66 0 1 0 C1 1.65 1 3.3 1 5 C0.34 5 -0.32 5 -1 5 C-1.33 5.99 -1.66 6.98 -2 8 C-2.66 6.35 -3.32 4.7 -4 3 C-2.68 2.67 -1.36 2.34 0 2 C0 1.34 0 0.68 0 0 Z " fill="#303D59" transform="translate(653,244)"/>
<path d="M0 0 C0.66 0.66 1.32 1.32 2 2 C2.66 1.67 3.32 1.34 4 1 C3.67 2.98 3.34 4.96 3 7 C1.68 6.34 0.36 5.68 -1 5 C-0.67 3.35 -0.34 1.7 0 0 Z " fill="#1D2C49" transform="translate(308,229)"/>
<path d="M0 0 C0.33 0 0.66 0 1 0 C1 1.65 1 3.3 1 5 C0.34 5 -0.32 5 -1 5 C-1.33 5.99 -1.66 6.98 -2 8 C-2.66 6.35 -3.32 4.7 -4 3 C-2.68 2.67 -1.36 2.34 0 2 C0 1.34 0 0.68 0 0 Z " fill="#303D59" transform="translate(637,212)"/>
<path d="M0 0 C0.66 0 1.32 0 2 0 C2.66 1.98 3.32 3.96 4 6 C1.03 5.505 1.03 5.505 -2 5 C-1.34 3.35 -0.68 1.7 0 0 Z " fill="#CFD9E2" transform="translate(620,192)"/>
<path d="M0 0 C0.99 0.33 1.98 0.66 3 1 C3.33 2.65 3.66 4.3 4 6 C3.01 5.67 2.02 5.34 1 5 C0.01 5.495 0.01 5.495 -1 6 C-0.67 4.02 -0.34 2.04 0 0 Z " fill="#6F7A8F" transform="translate(718,191)"/>
<path d="M0 0 C0.66 0 1.32 0 2 0 C0.25 5.75 0.25 5.75 -2 8 C-3 5 -3 5 -1.6875 2.3125 C-1.130625 1.549375 -0.57375 0.78625 0 0 Z " fill="#E9F1F6" transform="translate(379,80)"/>
<path d="M0 0 C0.33 0.99 0.66 1.98 1 3 C1.66 3.33 2.32 3.66 3 4 C2.34 4 1.68 4 1 4 C1.33 4.99 1.66 5.98 2 7 C1.01 6.67 0.02 6.34 -1 6 C-1.33 4.35 -1.66 2.7 -2 1 C-1.34 0.67 -0.68 0.34 0 0 Z " fill="#C8C8C8" transform="translate(780,429)"/>
<path d="M0 0 C0.99 0.99 1.98 1.98 3 3 C2.67 3.99 2.34 4.98 2 6 C1.01 6 0.02 6 -1 6 C-1.33 4.68 -1.66 3.36 -2 2 C-1.34 2 -0.68 2 0 2 C0 1.34 0 0.68 0 0 Z " fill="#2B3C59" transform="translate(665,272)"/>
<path d="M0 0 C0.66 0.33 1.32 0.66 2 1 C2.625 3.5625 2.625 3.5625 3 6 C1.68 6.33 0.36 6.66 -1 7 C-1.04254356 5.00045254 -1.04080783 2.99958364 -1 1 C-0.67 0.67 -0.34 0.34 0 0 Z " fill="#6F788C" transform="translate(755,263)"/>
<path d="M0 0 C2.45484649 2.13464912 3.68134222 3.70720291 4 7 C3.34 7.66 2.68 8.32 2 9 C2 7.68 2 6.36 2 5 C1.34 5 0.68 5 0 5 C0 3.35 0 1.7 0 0 Z " fill="#697385" transform="translate(750,254)"/>
<path d="M0 0 C0.66 0.33 1.32 0.66 2 1 C2.625 3.5625 2.625 3.5625 3 6 C1.68 6.33 0.36 6.66 -1 7 C-1.04254356 5.00045254 -1.04080783 2.99958364 -1 1 C-0.67 0.67 -0.34 0.34 0 0 Z " fill="#6F788C" transform="translate(739,231)"/>
<path d="M0 0 C2 3 2 3 1.625 5.6875 C1.41875 6.450625 1.2125 7.21375 1 8 C0.01 7.34 -0.98 6.68 -2 6 C-1.34 4.02 -0.68 2.04 0 0 Z " fill="#3F4D66" transform="translate(325,192)"/>
<path d="M0 0 C0.66 0.33 1.32 0.66 2 1 C2.625 3.5625 2.625 3.5625 3 6 C1.68 6.33 0.36 6.66 -1 7 C-1.04254356 5.00045254 -1.04080783 2.99958364 -1 1 C-0.67 0.67 -0.34 0.34 0 0 Z " fill="#6F788C" transform="translate(707,167)"/>
<path d="M0 0 C2.45484649 2.13464912 3.68134222 3.70720291 4 7 C3.34 7.66 2.68 8.32 2 9 C2 7.68 2 6.36 2 5 C1.34 5 0.68 5 0 5 C0 3.35 0 1.7 0 0 Z " fill="#697385" transform="translate(702,158)"/>
<path d="M0 0 C0.99 0.33 1.98 0.66 3 1 C2.625 3.4375 2.625 3.4375 2 6 C1.01 6.495 1.01 6.495 0 7 C-1.125 2.25 -1.125 2.25 0 0 Z " fill="#D6DDE2" transform="translate(537,154)"/>
<path d="M0 0 C0.66 0.33 1.32 0.66 2 1 C2.625 3.5625 2.625 3.5625 3 6 C1.68 6.33 0.36 6.66 -1 7 C-1.04254356 5.00045254 -1.04080783 2.99958364 -1 1 C-0.67 0.67 -0.34 0.34 0 0 Z " fill="#6F788C" transform="translate(691,135)"/>
<path d="M0 0 C2.45484649 2.13464912 3.68134222 3.70720291 4 7 C3.34 7.66 2.68 8.32 2 9 C2 7.68 2 6.36 2 5 C1.34 5 0.68 5 0 5 C0 3.35 0 1.7 0 0 Z " fill="#697385" transform="translate(686,126)"/>
<path d="M0 0 C0.99 0.33 1.98 0.66 3 1 C2.625 3.4375 2.625 3.4375 2 6 C1.01 6.495 1.01 6.495 0 7 C-1.125 2.25 -1.125 2.25 0 0 Z " fill="#D6DDE2" transform="translate(553,122)"/>
<path d="M0 0 C0.33 0.66 0.66 1.32 1 2 C3.02463255 2.65213292 3.02463255 2.65213292 5 3 C4.01 4.485 4.01 4.485 3 6 C2.34 6 1.68 6 1 6 C-0.0625 4.125 -0.0625 4.125 -1 2 C-0.67 1.34 -0.34 0.68 0 0 Z " fill="#5D6981" transform="translate(362,118)"/>
<path d="M0 0 C0.66 0.33 1.32 0.66 2 1 C2.625 3.5625 2.625 3.5625 3 6 C1.68 6.33 0.36 6.66 -1 7 C-1.04254356 5.00045254 -1.04080783 2.99958364 -1 1 C-0.67 0.67 -0.34 0.34 0 0 Z " fill="#6F788C" transform="translate(675,103)"/>
</svg>
