<svg xmlns="http://www.w3.org/2000/svg" xmlns:v="https://svgstorm.com"
viewBox = "0 0 201 99"
width="201"
height="99">
<g fill="None" fill-opacity="0.0" stroke="#FCFCFC" stroke-opacity="1.00" stroke-width="0.3"><path d="
M 0.00 99.00 
L 201.00 99.00
L 201.00 91.00
C 199.33 91.00 197.67 91.00 196.00 91.00
C 196.00 88.00 196.00 85.00 196.00 82.00
C 190.08 80.39 192.45 87.60 192.00 91.00
C 183.90 92.99 187.96 82.61 187.00 78.00
C 192.10 79.18 197.14 76.47 201.00 81.00
L 201.00 0.00
L 125.00 0.00
C 127.40 6.50 130.81 12.76 134.00 19.00
C 137.20 25.27 139.94 31.79 143.00 38.00
C 143.35 38.05 143.83 38.67 144.00 39.00
C 147.10 44.99 149.93 51.01 153.00 57.00
C 148.50 57.60 138.17 60.07 134.00 57.00
C 133.70 56.78 133.17 56.33 133.00 56.00
C 131.91 53.90 129.55 50.05 129.08 47.92 C 128.60 45.80 123.79 40.98 125.00 39.00
C 119.29 41.82 119.50 51.50 115.00 56.00
C 111.06 59.94 97.22 59.44 93.70 55.30 C 90.18 51.16 89.12 41.12 84.00 39.00
C 82.20 43.59 79.07 52.44 76.00 56.00
C 73.94 58.38 57.92 60.13 56.00 57.00
C 54.56 54.65 60.15 50.10 60.31 47.31 C 60.46 44.51 64.91 40.21 66.00 38.00
C 69.36 31.20 72.58 23.61 76.00 17.00
C 78.82 11.54 80.80 5.47 84.00 0.00
L 0.00 0.00
L 0.00 99.00
M 35.00 91.00 
C 33.15 89.54 32.91 75.20 35.00 74.00
C 38.37 72.06 39.85 76.53 39.00 79.00
C 44.22 76.16 50.49 80.41 48.67 86.67 C 46.85 92.93 39.71 90.11 35.00 91.00
M 17.00 75.00 
C 19.65 76.53 17.67 84.18 17.00 86.00
C 12.14 99.15 -2.81 85.12 3.00 75.00
C 12.58 72.36 4.27 82.95 8.78 86.22 C 13.29 89.50 13.94 78.20 13.00 75.00
C 14.33 75.00 15.67 75.00 17.00 75.00
M 105.00 89.00 
C 102.56 88.65 101.12 89.56 99.00 90.00
C 97.86 90.23 95.80 91.84 94.00 91.00
C 98.02 85.54 96.15 72.86 106.00 75.00
C 106.89 80.53 109.95 85.45 111.00 91.00
C 108.40 91.34 106.35 91.05 105.00 89.00
M 27.00 91.00 
C 25.94 92.48 23.05 92.48 22.00 91.00
C 19.95 88.13 23.54 81.24 22.00 78.00
C 25.40 77.50 27.90 79.54 31.00 78.00
C 31.65 81.10 30.77 84.07 27.00 83.00
C 27.00 85.67 27.00 88.33 27.00 91.00
M 66.00 78.00 
C 66.00 82.33 66.00 86.67 66.00 91.00
C 60.33 89.90 52.21 93.71 52.01 84.99 C 51.80 76.28 60.13 78.52 66.00 78.00
M 80.00 91.00 
C 77.38 89.49 80.37 85.02 79.00 83.00
C 77.74 81.80 77.23 81.83 76.00 83.00
C 75.10 84.33 76.92 96.92 71.00 91.00
C 69.33 89.33 68.97 79.48 71.00 78.00
C 77.68 73.14 88.88 82.74 84.00 91.00
C 82.67 91.00 81.33 91.00 80.00 91.00
M 128.00 78.00 
C 128.00 82.33 128.00 86.67 128.00 91.00
C 122.92 89.92 114.44 93.46 114.03 84.97 C 113.61 76.49 122.53 78.54 128.00 78.00
M 146.00 82.00 
C 147.03 84.53 147.29 87.82 147.00 91.00
C 145.93 92.47 143.06 92.49 142.00 91.00
C 141.20 89.88 143.10 77.90 138.00 83.00
C 137.03 84.55 138.17 89.12 138.00 91.00
C 136.93 92.47 134.06 92.49 133.00 91.00
C 130.95 88.13 134.54 81.24 133.00 78.00
C 137.26 79.83 144.90 75.20 146.00 82.00
M 164.00 78.00 
C 166.75 80.00 164.96 90.63 164.00 93.00
C 161.45 99.27 151.82 99.67 151.00 92.00
C 152.00 92.00 153.00 92.00 154.00 92.00
C 153.76 91.68 154.00 91.00 154.00 91.00
C 151.94 89.94 151.71 88.93 151.00 87.00
C 150.23 84.90 150.33 85.03 151.00 83.00
C 151.53 78.73 160.58 75.51 164.00 78.00
M 182.00 78.00 
C 184.16 79.57 183.25 88.29 183.00 91.00
C 180.98 93.09 179.26 91.27 177.00 91.00
C 171.69 90.36 170.53 91.33 169.00 86.00
C 168.48 84.19 168.40 84.79 169.00 83.00
C 169.43 78.66 178.66 75.57 182.00 78.00 Z"/>
</g>
<g fill="None" fill-opacity="0.0" stroke="#283858" stroke-opacity="1.00" stroke-width="0.3"><path d="
M 76.00 17.00 
C 77.04 18.75 93.65 18.66 94.00 18.00
C 91.15 12.24 88.57 5.92 86.00 0.00
L 84.00 0.00
C 80.80 5.47 78.82 11.54 76.00 17.00 Z"/>
</g>
<g fill="None" fill-opacity="0.0" stroke="#F9FBFB" stroke-opacity="1.00" stroke-width="0.3"><path d="
M 94.00 18.00 
C 96.51 23.08 99.59 31.51 103.00 36.00
C 103.26 36.34 104.88 36.76 105.00 37.00
C 107.42 30.84 110.96 24.88 114.00 19.00
C 114.17 18.67 114.65 18.05 115.00 18.00
C 117.84 12.23 120.44 5.92 123.00 0.00
L 86.00 0.00
C 88.57 5.92 91.15 12.24 94.00 18.00 Z"/>
</g>
<g fill="None" fill-opacity="0.0" stroke="#7B869A" stroke-opacity="1.00" stroke-width="0.3"><path d="
M 115.00 18.00 
C 119.34 17.38 130.46 16.47 134.00 19.00
C 130.81 12.76 127.40 6.50 125.00 0.00
L 123.00 0.00
C 120.44 5.92 117.84 12.23 115.00 18.00 Z"/>
</g>
<g fill="None" fill-opacity="0.0" stroke="#4E5D79" stroke-opacity="1.00" stroke-width="0.3"><path d="
M 66.00 38.00 
C 70.47 36.27 79.15 38.00 84.00 38.00
C 90.99 38.00 98.05 37.65 103.00 36.00
C 99.59 31.51 96.51 23.08 94.00 18.00
C 93.65 18.66 77.04 18.75 76.00 17.00
C 72.58 23.61 69.36 31.20 66.00 38.00 Z"/>
</g>
<g fill="None" fill-opacity="0.0" stroke="#4E5D78" stroke-opacity="1.00" stroke-width="0.3"><path d="
M 114.00 19.00 
C 116.34 25.29 122.17 30.91 123.00 38.00
C 117.00 38.00 111.00 38.00 105.00 38.00
C 100.64 43.44 98.71 50.96 95.00 57.00
C 101.60 56.42 108.83 58.21 115.00 56.00
C 119.50 51.50 119.29 41.82 125.00 39.00
C 129.02 37.01 138.12 37.30 143.00 38.00
C 139.94 31.79 137.20 25.27 134.00 19.00
C 130.46 16.47 119.34 17.38 115.00 18.00
C 114.65 18.05 114.17 18.67 114.00 19.00 Z"/>
</g>
<g fill="None" fill-opacity="0.0" stroke="#243456" stroke-opacity="1.00" stroke-width="0.3"><path d="
M 105.00 37.00 
C 104.83 37.43 105.00 38.00 105.00 38.00
C 111.00 38.00 117.00 38.00 123.00 38.00
C 122.17 30.91 116.34 25.29 114.00 19.00
C 110.96 24.88 107.42 30.84 105.00 37.00 Z"/>
</g>
<g fill="None" fill-opacity="0.0" stroke="#7B879C" stroke-opacity="1.00" stroke-width="0.3"><path d="
M 84.00 38.00 
C 84.04 38.00 84.00 39.00 84.00 39.00
C 89.12 41.12 90.18 51.16 93.70 55.30 C 97.22 59.44 111.06 59.94 115.00 56.00
C 108.83 58.21 101.60 56.42 95.00 57.00
C 98.71 50.96 100.64 43.44 105.00 38.00
C 105.00 38.00 104.83 37.43 105.00 37.00
C 104.88 36.76 103.26 36.34 103.00 36.00
C 98.05 37.65 90.99 38.00 84.00 38.00 Z"/>
</g>
<g fill="None" fill-opacity="0.0" stroke="#233455" stroke-opacity="1.00" stroke-width="0.3"><path d="
M 56.00 57.00 
C 61.53 55.13 71.26 59.93 76.00 56.00
C 79.07 52.44 82.20 43.59 84.00 39.00
C 84.00 39.00 84.04 38.00 84.00 38.00
C 79.15 38.00 70.47 36.27 66.00 38.00
C 64.91 40.21 60.46 44.51 60.31 47.31 C 60.15 50.10 54.56 54.65 56.00 57.00 Z"/>
</g>
<g fill="None" fill-opacity="0.0" stroke="#243556" stroke-opacity="1.00" stroke-width="0.3"><path d="
M 125.00 39.00 
C 123.79 40.98 128.60 45.80 129.08 47.92 C 129.55 50.05 131.91 53.90 133.00 56.00
C 136.99 50.63 140.04 44.28 144.00 39.00
C 143.83 38.67 143.35 38.05 143.00 38.00
C 138.12 37.30 129.02 37.01 125.00 39.00 Z"/>
</g>
<g fill="None" fill-opacity="0.0" stroke="#4E5B76" stroke-opacity="1.00" stroke-width="0.3"><path d="
M 133.00 56.00 
C 133.17 56.33 133.70 56.78 134.00 57.00
C 140.20 57.89 146.76 56.33 153.00 57.00
C 149.93 51.01 147.10 44.99 144.00 39.00
C 140.04 44.28 136.99 50.63 133.00 56.00 Z"/>
</g>
<g fill="None" fill-opacity="0.0" stroke="#81899B" stroke-opacity="1.00" stroke-width="0.3"><path d="
M 56.00 57.00 
C 57.92 60.13 73.94 58.38 76.00 56.00
C 71.26 59.93 61.53 55.13 56.00 57.00 Z"/>
</g>
<g fill="None" fill-opacity="0.0" stroke="#979FAA" stroke-opacity="1.00" stroke-width="0.3"><path d="
M 153.00 57.00 
C 146.76 56.33 140.20 57.89 134.00 57.00
C 138.17 60.07 148.50 57.60 153.00 57.00 Z"/>
</g>
<g fill="None" fill-opacity="0.0" stroke="#838383" stroke-opacity="1.00" stroke-width="0.3"><path d="
M 35.00 91.00 
C 35.00 85.33 35.00 79.67 35.00 74.00
C 32.91 75.20 33.15 89.54 35.00 91.00 Z"/>
</g>
<g fill="None" fill-opacity="0.0" stroke="#040404" stroke-opacity="1.00" stroke-width="0.3"><path d="
M 35.00 91.00 
C 39.71 90.11 46.85 92.93 48.67 86.67 C 50.49 80.41 44.22 76.16 39.00 79.00
C 39.85 76.53 38.37 72.06 35.00 74.00
C 35.00 79.67 35.00 85.33 35.00 91.00
M 43.00 82.00 
C 45.53 83.23 43.22 88.46 40.32 86.66 C 37.42 84.86 40.18 80.63 43.00 82.00 Z"/>
</g>
<g fill="None" fill-opacity="0.0" stroke="#050505" stroke-opacity="1.00" stroke-width="0.3"><path d="
M 17.00 86.00 
C 17.77 82.50 16.42 78.54 17.00 75.00
C 15.67 75.00 14.33 75.00 13.00 75.00
C 13.94 78.20 13.29 89.50 8.78 86.22 C 4.27 82.95 12.58 72.36 3.00 75.00
C -2.81 85.12 12.14 99.15 17.00 86.00 Z"/>
</g>
<g fill="None" fill-opacity="0.0" stroke="#868686" stroke-opacity="1.00" stroke-width="0.3"><path d="
M 17.00 86.00 
C 17.67 84.18 19.65 76.53 17.00 75.00
C 16.42 78.54 17.77 82.50 17.00 86.00 Z"/>
</g>
<g fill="None" fill-opacity="0.0" stroke="#040404" stroke-opacity="1.00" stroke-width="0.3"><path d="
M 99.00 90.00 
C 101.89 89.04 101.51 87.93 105.00 89.00
C 106.35 91.05 108.40 91.34 111.00 91.00
C 109.95 85.45 106.89 80.53 106.00 75.00
C 96.15 72.86 98.02 85.54 94.00 91.00
C 95.80 91.84 97.86 90.23 99.00 90.00
M 103.00 80.00 
C 106.85 86.49 97.80 85.04 103.00 80.00 Z"/>
</g>
<g fill="None" fill-opacity="0.0" stroke="#0C0C0C" stroke-opacity="1.00" stroke-width="0.3"><path d="
M 22.00 91.00 
C 23.67 91.00 25.33 91.00 27.00 91.00
C 27.00 88.33 27.00 85.67 27.00 83.00
C 30.77 84.07 31.65 81.10 31.00 78.00
C 27.90 79.54 25.40 77.50 22.00 78.00
C 23.54 81.24 19.95 88.13 22.00 91.00 Z"/>
</g>
<g fill="None" fill-opacity="0.0" stroke="#070707" stroke-opacity="1.00" stroke-width="0.3"><path d="
M 66.00 78.00 
C 60.13 78.52 51.80 76.28 52.01 84.99 C 52.21 93.71 60.33 89.90 66.00 91.00
C 66.00 86.67 66.00 82.33 66.00 78.00
M 60.00 82.00 
C 62.57 83.02 60.60 88.57 57.99 86.99 C 55.38 85.41 57.11 80.85 60.00 82.00 Z"/>
</g>
<g fill="None" fill-opacity="0.0" stroke="#8F8F8F" stroke-opacity="1.00" stroke-width="0.3"><path d="
M 71.00 91.00 
C 71.00 86.67 71.00 82.33 71.00 78.00
C 68.97 79.48 69.33 89.33 71.00 91.00 Z"/>
</g>
<g fill="None" fill-opacity="0.0" stroke="#020202" stroke-opacity="1.00" stroke-width="0.3"><path d="
M 71.00 91.00 
C 72.33 91.00 73.67 91.00 75.00 91.00
C 75.56 88.48 73.81 84.70 76.00 83.00
C 77.23 81.83 77.74 81.80 79.00 83.00
C 80.95 84.86 79.59 88.41 80.00 91.00
C 81.33 91.00 82.67 91.00 84.00 91.00
C 88.88 82.74 77.68 73.14 71.00 78.00
C 71.00 82.33 71.00 86.67 71.00 91.00 Z"/>
</g>
<g fill="None" fill-opacity="0.0" stroke="#050505" stroke-opacity="1.00" stroke-width="0.3"><path d="
M 128.00 78.00 
C 122.53 78.54 113.61 76.49 114.03 84.97 C 114.44 93.46 122.92 89.92 128.00 91.00
C 128.00 86.67 128.00 82.33 128.00 78.00
M 123.00 82.00 
C 125.53 83.23 123.22 88.46 120.32 86.66 C 117.42 84.86 120.18 80.63 123.00 82.00 Z"/>
</g>
<g fill="None" fill-opacity="0.0" stroke="#030303" stroke-opacity="1.00" stroke-width="0.3"><path d="
M 133.00 91.00 
C 134.33 91.00 135.67 91.00 137.00 91.00
C 136.78 88.57 136.37 84.63 138.00 83.00
C 143.10 77.90 141.20 89.88 142.00 91.00
C 143.33 91.00 144.67 91.00 146.00 91.00
C 145.74 88.16 146.69 84.75 146.00 82.00
C 144.90 75.20 137.26 79.83 133.00 78.00
C 134.54 81.24 130.95 88.13 133.00 91.00 Z"/>
</g>
<g fill="None" fill-opacity="0.0" stroke="#050505" stroke-opacity="1.00" stroke-width="0.3"><path d="
M 151.00 83.00 
C 150.85 84.17 150.83 85.84 151.00 87.00
C 151.71 88.93 151.94 89.94 154.00 91.00
C 156.09 90.78 158.25 91.42 160.00 90.00
C 161.02 94.40 156.06 94.71 154.00 92.00
C 153.00 92.00 152.00 92.00 151.00 92.00
C 151.82 99.67 161.45 99.27 164.00 93.00
C 165.18 88.30 163.11 82.78 164.00 78.00
C 160.58 75.51 151.53 78.73 151.00 83.00
M 159.00 82.00 
C 161.53 83.23 159.22 88.46 156.32 86.66 C 153.42 84.86 156.18 80.63 159.00 82.00 Z"/>
</g>
<g fill="None" fill-opacity="0.0" stroke="#717171" stroke-opacity="1.00" stroke-width="0.3"><path d="
M 164.00 93.00 
C 164.96 90.63 166.75 80.00 164.00 78.00
C 163.11 82.78 165.18 88.30 164.00 93.00 Z"/>
</g>
<g fill="None" fill-opacity="0.0" stroke="#030303" stroke-opacity="1.00" stroke-width="0.3"><path d="
M 169.00 83.00 
C 168.91 83.95 168.96 85.04 169.00 86.00
C 170.53 91.33 171.69 90.36 177.00 91.00
C 177.79 91.02 180.35 90.89 182.00 91.00
C 181.61 86.70 182.29 82.31 182.00 78.00
C 178.66 75.57 169.43 78.66 169.00 83.00
M 177.00 82.00 
C 179.53 83.23 177.22 88.46 174.32 86.66 C 171.42 84.86 174.18 80.63 177.00 82.00 Z"/>
</g>
<g fill="None" fill-opacity="0.0" stroke="#696969" stroke-opacity="1.00" stroke-width="0.3"><path d="
M 182.00 91.00 
C 182.50 91.03 183.00 91.00 183.00 91.00
C 183.25 88.29 184.16 79.57 182.00 78.00
C 182.29 82.31 181.61 86.70 182.00 91.00 Z"/>
</g>
<g fill="None" fill-opacity="0.0" stroke="#0A0A0A" stroke-opacity="1.00" stroke-width="0.3"><path d="
M 201.00 91.00 
L 201.00 81.00
C 197.14 76.47 192.10 79.18 187.00 78.00
C 187.96 82.61 183.90 92.99 192.00 91.00
C 192.45 87.60 190.08 80.39 196.00 82.00
C 196.00 85.00 196.00 88.00 196.00 91.00
C 197.67 91.00 199.33 91.00 201.00 91.00 Z"/>
</g>
<g fill="None" fill-opacity="0.0" stroke="#C7C7C7" stroke-opacity="1.00" stroke-width="0.3"><path d="
M 103.00 80.00 
C 97.80 85.04 106.85 86.49 103.00 80.00 Z"/>
</g>
<g fill="None" fill-opacity="0.0" stroke="#E8E8E8" stroke-opacity="1.00" stroke-width="0.3"><path d="
M 43.00 82.00 
C 40.18 80.63 37.42 84.86 40.32 86.66 C 43.22 88.46 45.53 83.23 43.00 82.00 Z"/>
</g>
<g fill="None" fill-opacity="0.0" stroke="#EFEFEF" stroke-opacity="1.00" stroke-width="0.3"><path d="
M 60.00 82.00 
C 57.11 80.85 55.38 85.41 57.99 86.99 C 60.60 88.57 62.57 83.02 60.00 82.00 Z"/>
</g>
<g fill="None" fill-opacity="0.0" stroke="#E7E7E7" stroke-opacity="1.00" stroke-width="0.3"><path d="
M 123.00 82.00 
C 120.18 80.63 117.42 84.86 120.32 86.66 C 123.22 88.46 125.53 83.23 123.00 82.00 Z"/>
</g>
<g fill="None" fill-opacity="0.0" stroke="#606060" stroke-opacity="1.00" stroke-width="0.3"><path d="
M 146.00 91.00 
C 146.50 91.00 147.00 91.00 147.00 91.00
C 147.29 87.82 147.03 84.53 146.00 82.00
C 146.69 84.75 145.74 88.16 146.00 91.00 Z"/>
</g>
<g fill="None" fill-opacity="0.0" stroke="#E9E9E9" stroke-opacity="1.00" stroke-width="0.3"><path d="
M 159.00 82.00 
C 156.18 80.63 153.42 84.86 156.32 86.66 C 159.22 88.46 161.53 83.23 159.00 82.00 Z"/>
</g>
<g fill="None" fill-opacity="0.0" stroke="#E8E8E8" stroke-opacity="1.00" stroke-width="0.3"><path d="
M 177.00 82.00 
C 174.18 80.63 171.42 84.86 174.32 86.66 C 177.22 88.46 179.53 83.23 177.00 82.00 Z"/>
</g>
<g fill="None" fill-opacity="0.0" stroke="#C2C2C2" stroke-opacity="1.00" stroke-width="0.3"><path d="
M 71.00 91.00 
C 76.92 96.92 75.10 84.33 76.00 83.00
C 73.81 84.70 75.56 88.48 75.00 91.00
C 73.67 91.00 72.33 91.00 71.00 91.00 Z"/>
</g>
<g fill="None" fill-opacity="0.0" stroke="#8D8D8D" stroke-opacity="1.00" stroke-width="0.3"><path d="
M 80.00 91.00 
C 79.59 88.41 80.95 84.86 79.00 83.00
C 80.37 85.02 77.38 89.49 80.00 91.00 Z"/>
</g>
<g fill="None" fill-opacity="0.0" stroke="#5E5E5E" stroke-opacity="1.00" stroke-width="0.3"><path d="
M 137.00 91.00 
C 137.50 91.00 138.00 91.00 138.00 91.00
C 138.17 89.12 137.03 84.55 138.00 83.00
C 136.37 84.63 136.78 88.57 137.00 91.00 Z"/>
</g>
<g fill="None" fill-opacity="0.0" stroke="#797979" stroke-opacity="1.00" stroke-width="0.3"><path d="
M 151.00 87.00 
C 150.83 85.84 150.85 84.17 151.00 83.00
C 150.33 85.03 150.23 84.90 151.00 87.00 Z"/>
</g>
<g fill="None" fill-opacity="0.0" stroke="#777777" stroke-opacity="1.00" stroke-width="0.3"><path d="
M 169.00 86.00 
C 168.96 85.04 168.91 83.95 169.00 83.00
C 168.40 84.79 168.48 84.19 169.00 86.00 Z"/>
</g>
<g fill="None" fill-opacity="0.0" stroke="#777777" stroke-opacity="1.00" stroke-width="0.3"><path d="
M 99.00 90.00 
C 101.12 89.56 102.56 88.65 105.00 89.00
C 101.51 87.93 101.89 89.04 99.00 90.00 Z"/>
</g>
<g fill="None" fill-opacity="0.0" stroke="#C7C7C7" stroke-opacity="1.00" stroke-width="0.3"><path d="
M 154.00 91.00 
C 154.00 91.00 153.76 91.68 154.00 92.00
C 156.06 94.71 161.02 94.40 160.00 90.00
C 158.25 91.42 156.09 90.78 154.00 91.00 Z"/>
</g>
<g fill="None" fill-opacity="0.0" stroke="#BCBCBC" stroke-opacity="1.00" stroke-width="0.3"><path d="
M 177.00 91.00 
C 179.26 91.27 180.98 93.09 183.00 91.00
C 183.00 91.00 182.50 91.03 182.00 91.00
C 180.35 90.89 177.79 91.02 177.00 91.00 Z"/>
</g>
<g fill="None" fill-opacity="0.0" stroke="#BBBBBB" stroke-opacity="1.00" stroke-width="0.3"><path d="
M 27.00 91.00 
C 25.33 91.00 23.67 91.00 22.00 91.00
C 23.05 92.48 25.94 92.48 27.00 91.00 Z"/>
</g>
<g fill="None" fill-opacity="0.0" stroke="#BDBDBD" stroke-opacity="1.00" stroke-width="0.3"><path d="
M 138.00 91.00 
C 138.00 91.00 137.50 91.00 137.00 91.00
C 135.67 91.00 134.33 91.00 133.00 91.00
C 134.06 92.49 136.93 92.47 138.00 91.00 Z"/>
</g>
<g fill="None" fill-opacity="0.0" stroke="#BABABA" stroke-opacity="1.00" stroke-width="0.3"><path d="
M 147.00 91.00 
C 147.00 91.00 146.50 91.00 146.00 91.00
C 144.67 91.00 143.33 91.00 142.00 91.00
C 143.06 92.49 145.93 92.47 147.00 91.00 Z"/>
</g>
<g fill="#FCFCFC" fill-opacity="1.00" stroke="None">
<path d="
M 0.00 99.00 
L 201.00 99.00
L 201.00 91.00
C 199.33 91.00 197.67 91.00 196.00 91.00
C 196.00 88.00 196.00 85.00 196.00 82.00
C 190.08 80.39 192.45 87.60 192.00 91.00
C 183.90 92.99 187.96 82.61 187.00 78.00
C 192.10 79.18 197.14 76.47 201.00 81.00
L 201.00 0.00
L 125.00 0.00
C 127.40 6.50 130.81 12.76 134.00 19.00
C 137.20 25.27 139.94 31.79 143.00 38.00
C 143.35 38.05 143.83 38.67 144.00 39.00
C 147.10 44.99 149.93 51.01 153.00 57.00
C 148.50 57.60 138.17 60.07 134.00 57.00
C 133.70 56.78 133.17 56.33 133.00 56.00
C 131.91 53.90 129.55 50.05 129.08 47.92 C 128.60 45.80 123.79 40.98 125.00 39.00
C 119.29 41.82 119.50 51.50 115.00 56.00
C 111.06 59.94 97.22 59.44 93.70 55.30 C 90.18 51.16 89.12 41.12 84.00 39.00
C 82.20 43.59 79.07 52.44 76.00 56.00
C 73.94 58.38 57.92 60.13 56.00 57.00
C 54.56 54.65 60.15 50.10 60.31 47.31 C 60.46 44.51 64.91 40.21 66.00 38.00
C 69.36 31.20 72.58 23.61 76.00 17.00
C 78.82 11.54 80.80 5.47 84.00 0.00
L 0.00 0.00
L 0.00 99.00
M 35.00 91.00 
C 33.15 89.54 32.91 75.20 35.00 74.00
C 38.37 72.06 39.85 76.53 39.00 79.00
C 44.22 76.16 50.49 80.41 48.67 86.67 C 46.85 92.93 39.71 90.11 35.00 91.00
M 17.00 75.00 
C 19.65 76.53 17.67 84.18 17.00 86.00
C 12.14 99.15 -2.81 85.12 3.00 75.00
C 12.58 72.36 4.27 82.95 8.78 86.22 C 13.29 89.50 13.94 78.20 13.00 75.00
C 14.33 75.00 15.67 75.00 17.00 75.00
M 105.00 89.00 
C 102.56 88.65 101.12 89.56 99.00 90.00
C 97.86 90.23 95.80 91.84 94.00 91.00
C 98.02 85.54 96.15 72.86 106.00 75.00
C 106.89 80.53 109.95 85.45 111.00 91.00
C 108.40 91.34 106.35 91.05 105.00 89.00
M 27.00 91.00 
C 25.94 92.48 23.05 92.48 22.00 91.00
C 19.95 88.13 23.54 81.24 22.00 78.00
C 25.40 77.50 27.90 79.54 31.00 78.00
C 31.65 81.10 30.77 84.07 27.00 83.00
C 27.00 85.67 27.00 88.33 27.00 91.00
M 66.00 78.00 
C 66.00 82.33 66.00 86.67 66.00 91.00
C 60.33 89.90 52.21 93.71 52.01 84.99 C 51.80 76.28 60.13 78.52 66.00 78.00
M 80.00 91.00 
C 77.38 89.49 80.37 85.02 79.00 83.00
C 77.74 81.80 77.23 81.83 76.00 83.00
C 75.10 84.33 76.92 96.92 71.00 91.00
C 69.33 89.33 68.97 79.48 71.00 78.00
C 77.68 73.14 88.88 82.74 84.00 91.00
C 82.67 91.00 81.33 91.00 80.00 91.00
M 128.00 78.00 
C 128.00 82.33 128.00 86.67 128.00 91.00
C 122.92 89.92 114.44 93.46 114.03 84.97 C 113.61 76.49 122.53 78.54 128.00 78.00
M 146.00 82.00 
C 147.03 84.53 147.29 87.82 147.00 91.00
C 145.93 92.47 143.06 92.49 142.00 91.00
C 141.20 89.88 143.10 77.90 138.00 83.00
C 137.03 84.55 138.17 89.12 138.00 91.00
C 136.93 92.47 134.06 92.49 133.00 91.00
C 130.95 88.13 134.54 81.24 133.00 78.00
C 137.26 79.83 144.90 75.20 146.00 82.00
M 164.00 78.00 
C 166.75 80.00 164.96 90.63 164.00 93.00
C 161.45 99.27 151.82 99.67 151.00 92.00
C 152.00 92.00 153.00 92.00 154.00 92.00
C 153.76 91.68 154.00 91.00 154.00 91.00
C 151.94 89.94 151.71 88.93 151.00 87.00
C 150.23 84.90 150.33 85.03 151.00 83.00
C 151.53 78.73 160.58 75.51 164.00 78.00
M 182.00 78.00 
C 184.16 79.57 183.25 88.29 183.00 91.00
C 180.98 93.09 179.26 91.27 177.00 91.00
C 171.69 90.36 170.53 91.33 169.00 86.00
C 168.48 84.19 168.40 84.79 169.00 83.00
C 169.43 78.66 178.66 75.57 182.00 78.00 Z"/>
</g>
<g fill="#283858" fill-opacity="1.00" stroke="None">
<path d="
M 76.00 17.00 
C 77.04 18.75 93.65 18.66 94.00 18.00
C 91.15 12.24 88.57 5.92 86.00 0.00
L 84.00 0.00
C 80.80 5.47 78.82 11.54 76.00 17.00 Z"/>
</g>
<g fill="#F9FBFB" fill-opacity="1.00" stroke="None">
<path d="
M 94.00 18.00 
C 96.51 23.08 99.59 31.51 103.00 36.00
C 103.26 36.34 104.88 36.76 105.00 37.00
C 107.42 30.84 110.96 24.88 114.00 19.00
C 114.17 18.67 114.65 18.05 115.00 18.00
C 117.84 12.23 120.44 5.92 123.00 0.00
L 86.00 0.00
C 88.57 5.92 91.15 12.24 94.00 18.00 Z"/>
</g>
<g fill="#7B869A" fill-opacity="1.00" stroke="None">
<path d="
M 115.00 18.00 
C 119.34 17.38 130.46 16.47 134.00 19.00
C 130.81 12.76 127.40 6.50 125.00 0.00
L 123.00 0.00
C 120.44 5.92 117.84 12.23 115.00 18.00 Z"/>
</g>
<g fill="#4E5D79" fill-opacity="1.00" stroke="None">
<path d="
M 66.00 38.00 
C 70.47 36.27 79.15 38.00 84.00 38.00
C 90.99 38.00 98.05 37.65 103.00 36.00
C 99.59 31.51 96.51 23.08 94.00 18.00
C 93.65 18.66 77.04 18.75 76.00 17.00
C 72.58 23.61 69.36 31.20 66.00 38.00 Z"/>
</g>
<g fill="#4E5D78" fill-opacity="1.00" stroke="None">
<path d="
M 114.00 19.00 
C 116.34 25.29 122.17 30.91 123.00 38.00
C 117.00 38.00 111.00 38.00 105.00 38.00
C 100.64 43.44 98.71 50.96 95.00 57.00
C 101.60 56.42 108.83 58.21 115.00 56.00
C 119.50 51.50 119.29 41.82 125.00 39.00
C 129.02 37.01 138.12 37.30 143.00 38.00
C 139.94 31.79 137.20 25.27 134.00 19.00
C 130.46 16.47 119.34 17.38 115.00 18.00
C 114.65 18.05 114.17 18.67 114.00 19.00 Z"/>
</g>
<g fill="#243456" fill-opacity="1.00" stroke="None">
<path d="
M 105.00 37.00 
C 104.83 37.43 105.00 38.00 105.00 38.00
C 111.00 38.00 117.00 38.00 123.00 38.00
C 122.17 30.91 116.34 25.29 114.00 19.00
C 110.96 24.88 107.42 30.84 105.00 37.00 Z"/>
</g>
<g fill="#7B879C" fill-opacity="1.00" stroke="None">
<path d="
M 84.00 38.00 
C 84.04 38.00 84.00 39.00 84.00 39.00
C 89.12 41.12 90.18 51.16 93.70 55.30 C 97.22 59.44 111.06 59.94 115.00 56.00
C 108.83 58.21 101.60 56.42 95.00 57.00
C 98.71 50.96 100.64 43.44 105.00 38.00
C 105.00 38.00 104.83 37.43 105.00 37.00
C 104.88 36.76 103.26 36.34 103.00 36.00
C 98.05 37.65 90.99 38.00 84.00 38.00 Z"/>
</g>
<g fill="#233455" fill-opacity="1.00" stroke="None">
<path d="
M 56.00 57.00 
C 61.53 55.13 71.26 59.93 76.00 56.00
C 79.07 52.44 82.20 43.59 84.00 39.00
C 84.00 39.00 84.04 38.00 84.00 38.00
C 79.15 38.00 70.47 36.27 66.00 38.00
C 64.91 40.21 60.46 44.51 60.31 47.31 C 60.15 50.10 54.56 54.65 56.00 57.00 Z"/>
</g>
<g fill="#243556" fill-opacity="1.00" stroke="None">
<path d="
M 125.00 39.00 
C 123.79 40.98 128.60 45.80 129.08 47.92 C 129.55 50.05 131.91 53.90 133.00 56.00
C 136.99 50.63 140.04 44.28 144.00 39.00
C 143.83 38.67 143.35 38.05 143.00 38.00
C 138.12 37.30 129.02 37.01 125.00 39.00 Z"/>
</g>
<g fill="#4E5B76" fill-opacity="1.00" stroke="None">
<path d="
M 133.00 56.00 
C 133.17 56.33 133.70 56.78 134.00 57.00
C 140.20 57.89 146.76 56.33 153.00 57.00
C 149.93 51.01 147.10 44.99 144.00 39.00
C 140.04 44.28 136.99 50.63 133.00 56.00 Z"/>
</g>
<g fill="#81899B" fill-opacity="1.00" stroke="None">
<path d="
M 56.00 57.00 
C 57.92 60.13 73.94 58.38 76.00 56.00
C 71.26 59.93 61.53 55.13 56.00 57.00 Z"/>
</g>
<g fill="#979FAA" fill-opacity="1.00" stroke="None">
<path d="
M 153.00 57.00 
C 146.76 56.33 140.20 57.89 134.00 57.00
C 138.17 60.07 148.50 57.60 153.00 57.00 Z"/>
</g>
<g fill="#838383" fill-opacity="1.00" stroke="None">
<path d="
M 35.00 91.00 
C 35.00 85.33 35.00 79.67 35.00 74.00
C 32.91 75.20 33.15 89.54 35.00 91.00 Z"/>
</g>
<g fill="#040404" fill-opacity="1.00" stroke="None">
<path d="
M 35.00 91.00 
C 39.71 90.11 46.85 92.93 48.67 86.67 C 50.49 80.41 44.22 76.16 39.00 79.00
C 39.85 76.53 38.37 72.06 35.00 74.00
C 35.00 79.67 35.00 85.33 35.00 91.00
M 43.00 82.00 
C 45.53 83.23 43.22 88.46 40.32 86.66 C 37.42 84.86 40.18 80.63 43.00 82.00 Z"/>
</g>
<g fill="#050505" fill-opacity="1.00" stroke="None">
<path d="
M 17.00 86.00 
C 17.77 82.50 16.42 78.54 17.00 75.00
C 15.67 75.00 14.33 75.00 13.00 75.00
C 13.94 78.20 13.29 89.50 8.78 86.22 C 4.27 82.95 12.58 72.36 3.00 75.00
C -2.81 85.12 12.14 99.15 17.00 86.00 Z"/>
</g>
<g fill="#868686" fill-opacity="1.00" stroke="None">
<path d="
M 17.00 86.00 
C 17.67 84.18 19.65 76.53 17.00 75.00
C 16.42 78.54 17.77 82.50 17.00 86.00 Z"/>
</g>
<g fill="#040404" fill-opacity="1.00" stroke="None">
<path d="
M 99.00 90.00 
C 101.89 89.04 101.51 87.93 105.00 89.00
C 106.35 91.05 108.40 91.34 111.00 91.00
C 109.95 85.45 106.89 80.53 106.00 75.00
C 96.15 72.86 98.02 85.54 94.00 91.00
C 95.80 91.84 97.86 90.23 99.00 90.00
M 103.00 80.00 
C 106.85 86.49 97.80 85.04 103.00 80.00 Z"/>
</g>
<g fill="#0C0C0C" fill-opacity="1.00" stroke="None">
<path d="
M 22.00 91.00 
C 23.67 91.00 25.33 91.00 27.00 91.00
C 27.00 88.33 27.00 85.67 27.00 83.00
C 30.77 84.07 31.65 81.10 31.00 78.00
C 27.90 79.54 25.40 77.50 22.00 78.00
C 23.54 81.24 19.95 88.13 22.00 91.00 Z"/>
</g>
<g fill="#070707" fill-opacity="1.00" stroke="None">
<path d="
M 66.00 78.00 
C 60.13 78.52 51.80 76.28 52.01 84.99 C 52.21 93.71 60.33 89.90 66.00 91.00
C 66.00 86.67 66.00 82.33 66.00 78.00
M 60.00 82.00 
C 62.57 83.02 60.60 88.57 57.99 86.99 C 55.38 85.41 57.11 80.85 60.00 82.00 Z"/>
</g>
<g fill="#8F8F8F" fill-opacity="1.00" stroke="None">
<path d="
M 71.00 91.00 
C 71.00 86.67 71.00 82.33 71.00 78.00
C 68.97 79.48 69.33 89.33 71.00 91.00 Z"/>
</g>
<g fill="#020202" fill-opacity="1.00" stroke="None">
<path d="
M 71.00 91.00 
C 72.33 91.00 73.67 91.00 75.00 91.00
C 75.56 88.48 73.81 84.70 76.00 83.00
C 77.23 81.83 77.74 81.80 79.00 83.00
C 80.95 84.86 79.59 88.41 80.00 91.00
C 81.33 91.00 82.67 91.00 84.00 91.00
C 88.88 82.74 77.68 73.14 71.00 78.00
C 71.00 82.33 71.00 86.67 71.00 91.00 Z"/>
</g>
<g fill="#050505" fill-opacity="1.00" stroke="None">
<path d="
M 128.00 78.00 
C 122.53 78.54 113.61 76.49 114.03 84.97 C 114.44 93.46 122.92 89.92 128.00 91.00
C 128.00 86.67 128.00 82.33 128.00 78.00
M 123.00 82.00 
C 125.53 83.23 123.22 88.46 120.32 86.66 C 117.42 84.86 120.18 80.63 123.00 82.00 Z"/>
</g>
<g fill="#030303" fill-opacity="1.00" stroke="None">
<path d="
M 133.00 91.00 
C 134.33 91.00 135.67 91.00 137.00 91.00
C 136.78 88.57 136.37 84.63 138.00 83.00
C 143.10 77.90 141.20 89.88 142.00 91.00
C 143.33 91.00 144.67 91.00 146.00 91.00
C 145.74 88.16 146.69 84.75 146.00 82.00
C 144.90 75.20 137.26 79.83 133.00 78.00
C 134.54 81.24 130.95 88.13 133.00 91.00 Z"/>
</g>
<g fill="#050505" fill-opacity="1.00" stroke="None">
<path d="
M 151.00 83.00 
C 150.85 84.17 150.83 85.84 151.00 87.00
C 151.71 88.93 151.94 89.94 154.00 91.00
C 156.09 90.78 158.25 91.42 160.00 90.00
C 161.02 94.40 156.06 94.71 154.00 92.00
C 153.00 92.00 152.00 92.00 151.00 92.00
C 151.82 99.67 161.45 99.27 164.00 93.00
C 165.18 88.30 163.11 82.78 164.00 78.00
C 160.58 75.51 151.53 78.73 151.00 83.00
M 159.00 82.00 
C 161.53 83.23 159.22 88.46 156.32 86.66 C 153.42 84.86 156.18 80.63 159.00 82.00 Z"/>
</g>
<g fill="#717171" fill-opacity="1.00" stroke="None">
<path d="
M 164.00 93.00 
C 164.96 90.63 166.75 80.00 164.00 78.00
C 163.11 82.78 165.18 88.30 164.00 93.00 Z"/>
</g>
<g fill="#030303" fill-opacity="1.00" stroke="None">
<path d="
M 169.00 83.00 
C 168.91 83.95 168.96 85.04 169.00 86.00
C 170.53 91.33 171.69 90.36 177.00 91.00
C 177.79 91.02 180.35 90.89 182.00 91.00
C 181.61 86.70 182.29 82.31 182.00 78.00
C 178.66 75.57 169.43 78.66 169.00 83.00
M 177.00 82.00 
C 179.53 83.23 177.22 88.46 174.32 86.66 C 171.42 84.86 174.18 80.63 177.00 82.00 Z"/>
</g>
<g fill="#696969" fill-opacity="1.00" stroke="None">
<path d="
M 182.00 91.00 
C 182.50 91.03 183.00 91.00 183.00 91.00
C 183.25 88.29 184.16 79.57 182.00 78.00
C 182.29 82.31 181.61 86.70 182.00 91.00 Z"/>
</g>
<g fill="#0A0A0A" fill-opacity="1.00" stroke="None">
<path d="
M 201.00 91.00 
L 201.00 81.00
C 197.14 76.47 192.10 79.18 187.00 78.00
C 187.96 82.61 183.90 92.99 192.00 91.00
C 192.45 87.60 190.08 80.39 196.00 82.00
C 196.00 85.00 196.00 88.00 196.00 91.00
C 197.67 91.00 199.33 91.00 201.00 91.00 Z"/>
</g>
<g fill="#C7C7C7" fill-opacity="1.00" stroke="None">
<path d="
M 103.00 80.00 
C 97.80 85.04 106.85 86.49 103.00 80.00 Z"/>
</g>
<g fill="#E8E8E8" fill-opacity="1.00" stroke="None">
<path d="
M 43.00 82.00 
C 40.18 80.63 37.42 84.86 40.32 86.66 C 43.22 88.46 45.53 83.23 43.00 82.00 Z"/>
</g>
<g fill="#EFEFEF" fill-opacity="1.00" stroke="None">
<path d="
M 60.00 82.00 
C 57.11 80.85 55.38 85.41 57.99 86.99 C 60.60 88.57 62.57 83.02 60.00 82.00 Z"/>
</g>
<g fill="#E7E7E7" fill-opacity="1.00" stroke="None">
<path d="
M 123.00 82.00 
C 120.18 80.63 117.42 84.86 120.32 86.66 C 123.22 88.46 125.53 83.23 123.00 82.00 Z"/>
</g>
<g fill="#606060" fill-opacity="1.00" stroke="None">
<path d="
M 146.00 91.00 
C 146.50 91.00 147.00 91.00 147.00 91.00
C 147.29 87.82 147.03 84.53 146.00 82.00
C 146.69 84.75 145.74 88.16 146.00 91.00 Z"/>
</g>
<g fill="#E9E9E9" fill-opacity="1.00" stroke="None">
<path d="
M 159.00 82.00 
C 156.18 80.63 153.42 84.86 156.32 86.66 C 159.22 88.46 161.53 83.23 159.00 82.00 Z"/>
</g>
<g fill="#E8E8E8" fill-opacity="1.00" stroke="None">
<path d="
M 177.00 82.00 
C 174.18 80.63 171.42 84.86 174.32 86.66 C 177.22 88.46 179.53 83.23 177.00 82.00 Z"/>
</g>
<g fill="#C2C2C2" fill-opacity="1.00" stroke="None">
<path d="
M 71.00 91.00 
C 76.92 96.92 75.10 84.33 76.00 83.00
C 73.81 84.70 75.56 88.48 75.00 91.00
C 73.67 91.00 72.33 91.00 71.00 91.00 Z"/>
</g>
<g fill="#8D8D8D" fill-opacity="1.00" stroke="None">
<path d="
M 80.00 91.00 
C 79.59 88.41 80.95 84.86 79.00 83.00
C 80.37 85.02 77.38 89.49 80.00 91.00 Z"/>
</g>
<g fill="#5E5E5E" fill-opacity="1.00" stroke="None">
<path d="
M 137.00 91.00 
C 137.50 91.00 138.00 91.00 138.00 91.00
C 138.17 89.12 137.03 84.55 138.00 83.00
C 136.37 84.63 136.78 88.57 137.00 91.00 Z"/>
</g>
<g fill="#797979" fill-opacity="1.00" stroke="None">
<path d="
M 151.00 87.00 
C 150.83 85.84 150.85 84.17 151.00 83.00
C 150.33 85.03 150.23 84.90 151.00 87.00 Z"/>
</g>
<g fill="#777777" fill-opacity="1.00" stroke="None">
<path d="
M 169.00 86.00 
C 168.96 85.04 168.91 83.95 169.00 83.00
C 168.40 84.79 168.48 84.19 169.00 86.00 Z"/>
</g>
<g fill="#777777" fill-opacity="1.00" stroke="None">
<path d="
M 99.00 90.00 
C 101.12 89.56 102.56 88.65 105.00 89.00
C 101.51 87.93 101.89 89.04 99.00 90.00 Z"/>
</g>
<g fill="#C7C7C7" fill-opacity="1.00" stroke="None">
<path d="
M 154.00 91.00 
C 154.00 91.00 153.76 91.68 154.00 92.00
C 156.06 94.71 161.02 94.40 160.00 90.00
C 158.25 91.42 156.09 90.78 154.00 91.00 Z"/>
</g>
<g fill="#BCBCBC" fill-opacity="1.00" stroke="None">
<path d="
M 177.00 91.00 
C 179.26 91.27 180.98 93.09 183.00 91.00
C 183.00 91.00 182.50 91.03 182.00 91.00
C 180.35 90.89 177.79 91.02 177.00 91.00 Z"/>
</g>
<g fill="#BBBBBB" fill-opacity="1.00" stroke="None">
<path d="
M 27.00 91.00 
C 25.33 91.00 23.67 91.00 22.00 91.00
C 23.05 92.48 25.94 92.48 27.00 91.00 Z"/>
</g>
<g fill="#BDBDBD" fill-opacity="1.00" stroke="None">
<path d="
M 138.00 91.00 
C 138.00 91.00 137.50 91.00 137.00 91.00
C 135.67 91.00 134.33 91.00 133.00 91.00
C 134.06 92.49 136.93 92.47 138.00 91.00 Z"/>
</g>
<g fill="#BABABA" fill-opacity="1.00" stroke="None">
<path d="
M 147.00 91.00 
C 147.00 91.00 146.50 91.00 146.00 91.00
C 144.67 91.00 143.33 91.00 142.00 91.00
C 143.06 92.49 145.93 92.47 147.00 91.00 Z"/>
</g>
</svg>